<ttFont>
    <TTGlyph name="A" xMin="-95" yMin="-11" xMax="669" yMax="755">
      <contour>
        <pt x="456" y="696" on="1"/>
        <pt x="350" y="699" on="1"/>
        <pt x="253" y="699" on="0"/>
        <pt x="216" y="678" on="1"/>
        <pt x="200" y="669" on="0"/>
        <pt x="163" y="633" on="0"/>
        <pt x="153" y="607" on="1"/>
        <pt x="129" y="545" on="0"/>
        <pt x="129" y="452" on="1"/>
        <pt x="98" y="431" on="0"/>
        <pt x="60" y="398" on="1"/>
        <pt x="60" y="591" on="0"/>
        <pt x="187" y="695" on="1"/>
        <pt x="261" y="755" on="0"/>
        <pt x="392" y="755" on="1"/>
        <pt x="395" y="755" on="0"/>
        <pt x="557" y="746" on="1"/>
        <pt x="528" y="688" on="0"/>
        <pt x="528" y="424" on="1"/>
        <pt x="528" y="196" on="0"/>
        <pt x="547" y="83" on="0"/>
        <pt x="568" y="55" on="0"/>
        <pt x="618" y="55" on="0"/>
        <pt x="665" y="83" on="1"/>
        <pt x="669" y="75" on="1"/>
        <pt x="615" y="27" on="0"/>
        <pt x="552" y="-11" on="1"/>
        <pt x="507" y="-11" on="0"/>
        <pt x="490" y="23" on="1"/>
        <pt x="480" y="43" on="0"/>
        <pt x="468" y="79" on="0"/>
        <pt x="464" y="119" on="1"/>
        <pt x="460" y="173" on="0"/>
        <pt x="458" y="275" on="1"/>
        <pt x="276" y="275" on="1"/>
        <pt x="269" y="262" on="0"/>
        <pt x="254" y="230" on="1"/>
        <pt x="222" y="167" on="0"/>
        <pt x="205" y="144" on="1"/>
        <pt x="94" y="-8" on="0"/>
        <pt x="-33" y="-8" on="1"/>
        <pt x="-95" y="-8" on="1"/>
        <pt x="-48" y="56" on="1"/>
        <pt x="-12" y="47" on="0"/>
        <pt x="71" y="47" on="0"/>
        <pt x="118" y="85" on="0"/>
        <pt x="186" y="199" on="0"/>
        <pt x="408" y="621" on="0"/>
      </contour>
      <contour>
        <pt x="457" y="324" on="1"/>
        <pt x="456" y="361" on="0"/>
        <pt x="456" y="483" on="0"/>
        <pt x="458" y="608" on="0"/>
        <pt x="458" y="611" on="1"/>
        <pt x="428" y="557" on="0"/>
        <pt x="325" y="357" on="0"/>
        <pt x="307" y="324" on="1"/>
      </contour>
    </TTGlyph>
    <TTGlyph name="AE" xMin="-96" yMin="-8" xMax="874" yMax="753">
      <contour>
        <pt x="665" y="381" on="1"/>
        <pt x="531" y="383" on="1"/>
        <pt x="512" y="260" on="0"/>
        <pt x="484" y="125" on="0"/>
        <pt x="422" y="65" on="1"/>
        <pt x="426" y="56" on="1"/>
        <pt x="686" y="56" on="1"/>
        <pt x="755" y="56" on="0"/>
        <pt x="809" y="94" on="1"/>
        <pt x="813" y="86" on="1"/>
        <pt x="732" y="24" on="0"/>
        <pt x="696" y="-1" on="1"/>
        <pt x="313" y="-1" on="1"/>
        <pt x="309" y="8" on="1"/>
        <pt x="396" y="26" on="0"/>
        <pt x="424" y="177" on="1"/>
        <pt x="432" y="221" on="0"/>
        <pt x="441" y="275" on="1"/>
        <pt x="275" y="275" on="1"/>
        <pt x="221" y="171" on="0"/>
        <pt x="204" y="144" on="1"/>
        <pt x="154" y="64" on="0"/>
        <pt x="39" y="-8" on="0"/>
        <pt x="-34" y="-8" on="1"/>
        <pt x="-96" y="-8" on="1"/>
        <pt x="-49" y="56" on="1"/>
        <pt x="-13" y="47" on="0"/>
        <pt x="68" y="47" on="0"/>
        <pt x="117" y="89" on="0"/>
        <pt x="189" y="203" on="0"/>
        <pt x="417" y="622" on="0"/>
        <pt x="465" y="696" on="1"/>
        <pt x="359" y="699" on="1"/>
        <pt x="262" y="699" on="0"/>
        <pt x="225" y="678" on="1"/>
        <pt x="209" y="669" on="0"/>
        <pt x="172" y="633" on="0"/>
        <pt x="162" y="607" on="1"/>
        <pt x="138" y="545" on="0"/>
        <pt x="138" y="452" on="1"/>
        <pt x="107" y="431" on="0"/>
        <pt x="69" y="398" on="1"/>
        <pt x="69" y="591" on="0"/>
        <pt x="196" y="695" on="1"/>
        <pt x="239" y="730" on="0"/>
        <pt x="359" y="753" on="0"/>
        <pt x="477" y="753" on="1"/>
        <pt x="722" y="751" on="1"/>
        <pt x="841" y="751" on="0"/>
        <pt x="874" y="752" on="1"/>
        <pt x="818" y="693" on="1"/>
        <pt x="586" y="694" on="1"/>
        <pt x="579" y="675" on="0"/>
        <pt x="576" y="660" on="1"/>
        <pt x="542" y="445" on="1"/>
        <pt x="556" y="445" on="1"/>
        <pt x="674" y="441" on="1"/>
        <pt x="726" y="441" on="0"/>
        <pt x="771" y="451" on="1"/>
        <pt x="776" y="447" on="1"/>
        <pt x="758" y="421" on="0"/>
        <pt x="699" y="381" on="0"/>
      </contour>
      <contour>
        <pt x="526" y="694" on="1"/>
        <pt x="485" y="655" on="0"/>
        <pt x="400" y="503" on="0"/>
        <pt x="384" y="473" on="1"/>
        <pt x="314" y="341" on="0"/>
        <pt x="308" y="324" on="1"/>
        <pt x="449" y="324" on="1"/>
        <pt x="456" y="368" on="0"/>
        <pt x="477" y="502" on="0"/>
        <pt x="487" y="560" on="0"/>
        <pt x="494" y="598" on="1"/>
        <pt x="508" y="665" on="0"/>
      </contour>
    </TTGlyph>
    <TTGlyph name="Aacute" xMin="-95" yMin="-11" xMax="669" yMax="959">
      <contour>
        <pt x="456" y="696" on="1"/>
        <pt x="350" y="699" on="1"/>
        <pt x="253" y="699" on="0"/>
        <pt x="216" y="678" on="1"/>
        <pt x="200" y="669" on="0"/>
        <pt x="163" y="633" on="0"/>
        <pt x="153" y="607" on="1"/>
        <pt x="129" y="545" on="0"/>
        <pt x="129" y="452" on="1"/>
        <pt x="98" y="431" on="0"/>
        <pt x="60" y="398" on="1"/>
        <pt x="60" y="591" on="0"/>
        <pt x="187" y="695" on="1"/>
        <pt x="261" y="755" on="0"/>
        <pt x="392" y="755" on="1"/>
        <pt x="395" y="755" on="0"/>
        <pt x="557" y="746" on="1"/>
        <pt x="528" y="688" on="0"/>
        <pt x="528" y="424" on="1"/>
        <pt x="528" y="196" on="0"/>
        <pt x="547" y="83" on="0"/>
        <pt x="568" y="55" on="0"/>
        <pt x="618" y="55" on="0"/>
        <pt x="665" y="83" on="1"/>
        <pt x="669" y="75" on="1"/>
        <pt x="615" y="27" on="0"/>
        <pt x="552" y="-11" on="1"/>
        <pt x="507" y="-11" on="0"/>
        <pt x="490" y="23" on="1"/>
        <pt x="480" y="43" on="0"/>
        <pt x="468" y="79" on="0"/>
        <pt x="464" y="119" on="1"/>
        <pt x="460" y="173" on="0"/>
        <pt x="458" y="275" on="1"/>
        <pt x="276" y="275" on="1"/>
        <pt x="269" y="262" on="0"/>
        <pt x="254" y="230" on="1"/>
        <pt x="222" y="167" on="0"/>
        <pt x="205" y="144" on="1"/>
        <pt x="94" y="-8" on="0"/>
        <pt x="-33" y="-8" on="1"/>
        <pt x="-95" y="-8" on="1"/>
        <pt x="-48" y="56" on="1"/>
        <pt x="-12" y="47" on="0"/>
        <pt x="71" y="47" on="0"/>
        <pt x="118" y="85" on="0"/>
        <pt x="186" y="199" on="0"/>
        <pt x="408" y="621" on="0"/>
      </contour>
      <contour>
        <pt x="457" y="324" on="1"/>
        <pt x="456" y="361" on="0"/>
        <pt x="456" y="483" on="0"/>
        <pt x="458" y="608" on="0"/>
        <pt x="458" y="611" on="1"/>
        <pt x="428" y="557" on="0"/>
        <pt x="325" y="357" on="0"/>
        <pt x="307" y="324" on="1"/>
      </contour>
      <contour>
        <pt x="605" y="958" on="1"/>
        <pt x="609" y="958" on="0"/>
        <pt x="613" y="958" on="1"/>
        <pt x="598" y="919" on="1"/>
        <pt x="569" y="913" on="0"/>
        <pt x="479" y="856" on="0"/>
        <pt x="411" y="777" on="1"/>
        <pt x="397" y="794" on="1"/>
        <pt x="442" y="857" on="0"/>
        <pt x="468" y="888" on="1"/>
        <pt x="528" y="958" on="0"/>
      </contour>
    </TTGlyph>
    <TTGlyph name="Acircumflex" xMin="-95" yMin="-11" xMax="669" yMax="912">
      <contour>
        <pt x="456" y="696" on="1"/>
        <pt x="350" y="699" on="1"/>
        <pt x="253" y="699" on="0"/>
        <pt x="216" y="678" on="1"/>
        <pt x="200" y="669" on="0"/>
        <pt x="163" y="633" on="0"/>
        <pt x="153" y="607" on="1"/>
        <pt x="129" y="545" on="0"/>
        <pt x="129" y="452" on="1"/>
        <pt x="98" y="431" on="0"/>
        <pt x="60" y="398" on="1"/>
        <pt x="60" y="591" on="0"/>
        <pt x="187" y="695" on="1"/>
        <pt x="261" y="755" on="0"/>
        <pt x="392" y="755" on="1"/>
        <pt x="395" y="755" on="0"/>
        <pt x="557" y="746" on="1"/>
        <pt x="528" y="688" on="0"/>
        <pt x="528" y="424" on="1"/>
        <pt x="528" y="196" on="0"/>
        <pt x="547" y="83" on="0"/>
        <pt x="568" y="55" on="0"/>
        <pt x="618" y="55" on="0"/>
        <pt x="665" y="83" on="1"/>
        <pt x="669" y="75" on="1"/>
        <pt x="615" y="27" on="0"/>
        <pt x="552" y="-11" on="1"/>
        <pt x="507" y="-11" on="0"/>
        <pt x="490" y="23" on="1"/>
        <pt x="480" y="43" on="0"/>
        <pt x="468" y="79" on="0"/>
        <pt x="464" y="119" on="1"/>
        <pt x="460" y="173" on="0"/>
        <pt x="458" y="275" on="1"/>
        <pt x="276" y="275" on="1"/>
        <pt x="269" y="262" on="0"/>
        <pt x="254" y="230" on="1"/>
        <pt x="222" y="167" on="0"/>
        <pt x="205" y="144" on="1"/>
        <pt x="94" y="-8" on="0"/>
        <pt x="-33" y="-8" on="1"/>
        <pt x="-95" y="-8" on="1"/>
        <pt x="-48" y="56" on="1"/>
        <pt x="-12" y="47" on="0"/>
        <pt x="71" y="47" on="0"/>
        <pt x="118" y="85" on="0"/>
        <pt x="186" y="199" on="0"/>
        <pt x="408" y="621" on="0"/>
      </contour>
      <contour>
        <pt x="457" y="324" on="1"/>
        <pt x="456" y="361" on="0"/>
        <pt x="456" y="483" on="0"/>
        <pt x="458" y="608" on="0"/>
        <pt x="458" y="611" on="1"/>
        <pt x="428" y="557" on="0"/>
        <pt x="325" y="357" on="0"/>
        <pt x="307" y="324" on="1"/>
      </contour>
      <contour>
        <pt x="536" y="912" on="1"/>
        <pt x="559" y="903" on="0"/>
        <pt x="634" y="849" on="0"/>
        <pt x="652" y="830" on="1"/>
        <pt x="617" y="797" on="1"/>
        <pt x="553" y="859" on="0"/>
        <pt x="508" y="873" on="1"/>
        <pt x="462" y="850" on="0"/>
        <pt x="402" y="799" on="1"/>
        <pt x="392" y="808" on="1"/>
        <pt x="432" y="852" on="0"/>
        <pt x="497" y="903" on="0"/>
      </contour>
    </TTGlyph>
    <TTGlyph name="Adieresis" xMin="-95" yMin="-11" xMax="669" yMax="911">
      <contour>
        <pt x="456" y="696" on="1"/>
        <pt x="350" y="699" on="1"/>
        <pt x="253" y="699" on="0"/>
        <pt x="216" y="678" on="1"/>
        <pt x="200" y="669" on="0"/>
        <pt x="163" y="633" on="0"/>
        <pt x="153" y="607" on="1"/>
        <pt x="129" y="545" on="0"/>
        <pt x="129" y="452" on="1"/>
        <pt x="98" y="431" on="0"/>
        <pt x="60" y="398" on="1"/>
        <pt x="60" y="591" on="0"/>
        <pt x="187" y="695" on="1"/>
        <pt x="261" y="755" on="0"/>
        <pt x="392" y="755" on="1"/>
        <pt x="395" y="755" on="0"/>
        <pt x="557" y="746" on="1"/>
        <pt x="528" y="688" on="0"/>
        <pt x="528" y="424" on="1"/>
        <pt x="528" y="196" on="0"/>
        <pt x="547" y="83" on="0"/>
        <pt x="568" y="55" on="0"/>
        <pt x="618" y="55" on="0"/>
        <pt x="665" y="83" on="1"/>
        <pt x="669" y="75" on="1"/>
        <pt x="615" y="27" on="0"/>
        <pt x="552" y="-11" on="1"/>
        <pt x="507" y="-11" on="0"/>
        <pt x="490" y="23" on="1"/>
        <pt x="480" y="43" on="0"/>
        <pt x="468" y="79" on="0"/>
        <pt x="464" y="119" on="1"/>
        <pt x="460" y="173" on="0"/>
        <pt x="458" y="275" on="1"/>
        <pt x="276" y="275" on="1"/>
        <pt x="269" y="262" on="0"/>
        <pt x="254" y="230" on="1"/>
        <pt x="222" y="167" on="0"/>
        <pt x="205" y="144" on="1"/>
        <pt x="94" y="-8" on="0"/>
        <pt x="-33" y="-8" on="1"/>
        <pt x="-95" y="-8" on="1"/>
        <pt x="-48" y="56" on="1"/>
        <pt x="-12" y="47" on="0"/>
        <pt x="71" y="47" on="0"/>
        <pt x="118" y="85" on="0"/>
        <pt x="186" y="199" on="0"/>
        <pt x="408" y="621" on="0"/>
      </contour>
      <contour>
        <pt x="457" y="324" on="1"/>
        <pt x="456" y="361" on="0"/>
        <pt x="456" y="483" on="0"/>
        <pt x="458" y="608" on="0"/>
        <pt x="458" y="611" on="1"/>
        <pt x="428" y="557" on="0"/>
        <pt x="325" y="357" on="0"/>
        <pt x="307" y="324" on="1"/>
      </contour>
      <contour>
        <pt x="360" y="861" on="1"/>
        <pt x="414" y="911" on="1"/>
        <pt x="447" y="885" on="0"/>
        <pt x="462" y="859" on="1"/>
        <pt x="411" y="804" on="1"/>
        <pt x="374" y="849" on="0"/>
      </contour>
      <contour>
        <pt x="549" y="861" on="1"/>
        <pt x="603" y="911" on="1"/>
        <pt x="631" y="893" on="0"/>
        <pt x="650" y="859" on="1"/>
        <pt x="605" y="804" on="1"/>
        <pt x="575" y="842" on="0"/>
      </contour>
    </TTGlyph>
    <TTGlyph name="Agrave" xMin="-95" yMin="-11" xMax="669" yMax="962">
      <contour>
        <pt x="456" y="696" on="1"/>
        <pt x="350" y="699" on="1"/>
        <pt x="253" y="699" on="0"/>
        <pt x="216" y="678" on="1"/>
        <pt x="200" y="669" on="0"/>
        <pt x="163" y="633" on="0"/>
        <pt x="153" y="607" on="1"/>
        <pt x="129" y="545" on="0"/>
        <pt x="129" y="452" on="1"/>
        <pt x="98" y="431" on="0"/>
        <pt x="60" y="398" on="1"/>
        <pt x="60" y="591" on="0"/>
        <pt x="187" y="695" on="1"/>
        <pt x="261" y="755" on="0"/>
        <pt x="392" y="755" on="1"/>
        <pt x="395" y="755" on="0"/>
        <pt x="557" y="746" on="1"/>
        <pt x="528" y="688" on="0"/>
        <pt x="528" y="424" on="1"/>
        <pt x="528" y="196" on="0"/>
        <pt x="547" y="83" on="0"/>
        <pt x="568" y="55" on="0"/>
        <pt x="618" y="55" on="0"/>
        <pt x="665" y="83" on="1"/>
        <pt x="669" y="75" on="1"/>
        <pt x="615" y="27" on="0"/>
        <pt x="552" y="-11" on="1"/>
        <pt x="507" y="-11" on="0"/>
        <pt x="490" y="23" on="1"/>
        <pt x="480" y="43" on="0"/>
        <pt x="468" y="79" on="0"/>
        <pt x="464" y="119" on="1"/>
        <pt x="460" y="173" on="0"/>
        <pt x="458" y="275" on="1"/>
        <pt x="276" y="275" on="1"/>
        <pt x="269" y="262" on="0"/>
        <pt x="254" y="230" on="1"/>
        <pt x="222" y="167" on="0"/>
        <pt x="205" y="144" on="1"/>
        <pt x="94" y="-8" on="0"/>
        <pt x="-33" y="-8" on="1"/>
        <pt x="-95" y="-8" on="1"/>
        <pt x="-48" y="56" on="1"/>
        <pt x="-12" y="47" on="0"/>
        <pt x="71" y="47" on="0"/>
        <pt x="118" y="85" on="0"/>
        <pt x="186" y="199" on="0"/>
        <pt x="408" y="621" on="0"/>
      </contour>
      <contour>
        <pt x="457" y="324" on="1"/>
        <pt x="456" y="361" on="0"/>
        <pt x="456" y="483" on="0"/>
        <pt x="458" y="608" on="0"/>
        <pt x="458" y="611" on="1"/>
        <pt x="428" y="557" on="0"/>
        <pt x="325" y="357" on="0"/>
        <pt x="307" y="324" on="1"/>
      </contour>
      <contour>
        <pt x="340" y="961" on="1"/>
        <pt x="417" y="961" on="0"/>
        <pt x="476" y="891" on="1"/>
        <pt x="503" y="860" on="0"/>
        <pt x="548" y="797" on="1"/>
        <pt x="533" y="779" on="1"/>
        <pt x="458" y="866" on="0"/>
        <pt x="410" y="895" on="1"/>
        <pt x="393" y="905" on="0"/>
        <pt x="349" y="922" on="0"/>
        <pt x="347" y="922" on="1"/>
        <pt x="332" y="961" on="1"/>
        <pt x="336" y="961" on="0"/>
      </contour>
    </TTGlyph>
    <TTGlyph name="Aring" xMin="-95" yMin="-11" xMax="669" yMax="946">
      <contour>
        <pt x="456" y="696" on="1"/>
        <pt x="350" y="699" on="1"/>
        <pt x="253" y="699" on="0"/>
        <pt x="216" y="678" on="1"/>
        <pt x="200" y="669" on="0"/>
        <pt x="163" y="633" on="0"/>
        <pt x="153" y="607" on="1"/>
        <pt x="129" y="545" on="0"/>
        <pt x="129" y="452" on="1"/>
        <pt x="98" y="431" on="0"/>
        <pt x="60" y="398" on="1"/>
        <pt x="60" y="591" on="0"/>
        <pt x="187" y="695" on="1"/>
        <pt x="261" y="755" on="0"/>
        <pt x="392" y="755" on="1"/>
        <pt x="395" y="755" on="0"/>
        <pt x="557" y="746" on="1"/>
        <pt x="528" y="688" on="0"/>
        <pt x="528" y="424" on="1"/>
        <pt x="528" y="196" on="0"/>
        <pt x="547" y="83" on="0"/>
        <pt x="568" y="55" on="0"/>
        <pt x="618" y="55" on="0"/>
        <pt x="665" y="83" on="1"/>
        <pt x="669" y="75" on="1"/>
        <pt x="615" y="27" on="0"/>
        <pt x="552" y="-11" on="1"/>
        <pt x="507" y="-11" on="0"/>
        <pt x="490" y="23" on="1"/>
        <pt x="480" y="43" on="0"/>
        <pt x="468" y="79" on="0"/>
        <pt x="464" y="119" on="1"/>
        <pt x="460" y="173" on="0"/>
        <pt x="458" y="275" on="1"/>
        <pt x="276" y="275" on="1"/>
        <pt x="269" y="262" on="0"/>
        <pt x="254" y="230" on="1"/>
        <pt x="222" y="167" on="0"/>
        <pt x="205" y="144" on="1"/>
        <pt x="94" y="-8" on="0"/>
        <pt x="-33" y="-8" on="1"/>
        <pt x="-95" y="-8" on="1"/>
        <pt x="-48" y="56" on="1"/>
        <pt x="-12" y="47" on="0"/>
        <pt x="71" y="47" on="0"/>
        <pt x="118" y="85" on="0"/>
        <pt x="186" y="199" on="0"/>
        <pt x="408" y="621" on="0"/>
      </contour>
      <contour>
        <pt x="457" y="324" on="1"/>
        <pt x="456" y="361" on="0"/>
        <pt x="456" y="483" on="0"/>
        <pt x="458" y="608" on="0"/>
        <pt x="458" y="611" on="1"/>
        <pt x="428" y="557" on="0"/>
        <pt x="325" y="357" on="0"/>
        <pt x="307" y="324" on="1"/>
      </contour>
      <contour>
        <pt x="566" y="946" on="0"/>
        <pt x="605" y="914" on="0"/>
        <pt x="605" y="858" on="0"/>
        <pt x="561" y="804" on="0"/>
        <pt x="501" y="804" on="0"/>
        <pt x="464" y="836" on="0"/>
        <pt x="464" y="887" on="0"/>
        <pt x="501" y="934" on="0"/>
        <pt x="528" y="946" on="1"/>
      </contour>
      <contour>
        <pt x="548" y="836" on="1"/>
        <pt x="583" y="847" on="0"/>
        <pt x="583" y="893" on="0"/>
        <pt x="548" y="919" on="0"/>
        <pt x="523" y="919" on="1"/>
        <pt x="497" y="905" on="0"/>
        <pt x="491" y="873" on="1"/>
        <pt x="491" y="861" on="0"/>
        <pt x="527" y="836" on="0"/>
      </contour>
    </TTGlyph>
    <TTGlyph name="Atilde" xMin="-95" yMin="-11" xMax="669" yMax="913">
      <contour>
        <pt x="456" y="696" on="1"/>
        <pt x="350" y="699" on="1"/>
        <pt x="253" y="699" on="0"/>
        <pt x="216" y="678" on="1"/>
        <pt x="200" y="669" on="0"/>
        <pt x="163" y="633" on="0"/>
        <pt x="153" y="607" on="1"/>
        <pt x="129" y="545" on="0"/>
        <pt x="129" y="452" on="1"/>
        <pt x="98" y="431" on="0"/>
        <pt x="60" y="398" on="1"/>
        <pt x="60" y="591" on="0"/>
        <pt x="187" y="695" on="1"/>
        <pt x="261" y="755" on="0"/>
        <pt x="392" y="755" on="1"/>
        <pt x="395" y="755" on="0"/>
        <pt x="557" y="746" on="1"/>
        <pt x="528" y="688" on="0"/>
        <pt x="528" y="424" on="1"/>
        <pt x="528" y="196" on="0"/>
        <pt x="547" y="83" on="0"/>
        <pt x="568" y="55" on="0"/>
        <pt x="618" y="55" on="0"/>
        <pt x="665" y="83" on="1"/>
        <pt x="669" y="75" on="1"/>
        <pt x="615" y="27" on="0"/>
        <pt x="552" y="-11" on="1"/>
        <pt x="507" y="-11" on="0"/>
        <pt x="490" y="23" on="1"/>
        <pt x="480" y="43" on="0"/>
        <pt x="468" y="79" on="0"/>
        <pt x="464" y="119" on="1"/>
        <pt x="460" y="173" on="0"/>
        <pt x="458" y="275" on="1"/>
        <pt x="276" y="275" on="1"/>
        <pt x="269" y="262" on="0"/>
        <pt x="254" y="230" on="1"/>
        <pt x="222" y="167" on="0"/>
        <pt x="205" y="144" on="1"/>
        <pt x="94" y="-8" on="0"/>
        <pt x="-33" y="-8" on="1"/>
        <pt x="-95" y="-8" on="1"/>
        <pt x="-48" y="56" on="1"/>
        <pt x="-12" y="47" on="0"/>
        <pt x="71" y="47" on="0"/>
        <pt x="118" y="85" on="0"/>
        <pt x="186" y="199" on="0"/>
        <pt x="408" y="621" on="0"/>
      </contour>
      <contour>
        <pt x="457" y="324" on="1"/>
        <pt x="456" y="361" on="0"/>
        <pt x="456" y="483" on="0"/>
        <pt x="458" y="608" on="0"/>
        <pt x="458" y="611" on="1"/>
        <pt x="428" y="557" on="0"/>
        <pt x="325" y="357" on="0"/>
        <pt x="307" y="324" on="1"/>
      </contour>
      <contour>
        <pt x="528" y="827" on="0"/>
        <pt x="451" y="864" on="0"/>
        <pt x="407" y="864" on="0"/>
        <pt x="346" y="837" on="0"/>
        <pt x="329" y="822" on="1"/>
        <pt x="324" y="837" on="1"/>
        <pt x="373" y="887" on="0"/>
        <pt x="439" y="913" on="1"/>
        <pt x="461" y="913" on="0"/>
        <pt x="538" y="878" on="0"/>
        <pt x="583" y="878" on="0"/>
        <pt x="646" y="899" on="0"/>
        <pt x="661" y="910" on="1"/>
        <pt x="669" y="899" on="1"/>
        <pt x="613" y="842" on="0"/>
        <pt x="550" y="827" on="1"/>
      </contour>
    </TTGlyph>
    <TTGlyph name="B" xMin="-9" yMin="0" xMax="637" yMax="754">
      <contour>
        <pt x="146" y="691" on="0"/>
        <pt x="313" y="754" on="0"/>
        <pt x="523" y="754" on="0"/>
        <pt x="623" y="684" on="0"/>
        <pt x="623" y="582" on="0"/>
        <pt x="551" y="467" on="0"/>
        <pt x="498" y="431" on="1"/>
        <pt x="569" y="419" on="0"/>
        <pt x="637" y="348" on="0"/>
        <pt x="637" y="230" on="0"/>
        <pt x="539" y="91" on="0"/>
        <pt x="381" y="0" on="0"/>
        <pt x="302" y="0" on="1"/>
        <pt x="84" y="0" on="1"/>
        <pt x="80" y="8" on="1"/>
        <pt x="167" y="26" on="0"/>
        <pt x="195" y="177" on="1"/>
        <pt x="213" y="271" on="0"/>
        <pt x="247" y="489" on="0"/>
        <pt x="256" y="539" on="1"/>
        <pt x="276" y="662" on="0"/>
        <pt x="305" y="701" on="1"/>
        <pt x="306" y="702" on="1"/>
        <pt x="196" y="700" on="0"/>
        <pt x="56" y="550" on="0"/>
        <pt x="56" y="404" on="1"/>
        <pt x="-9" y="348" on="1"/>
        <pt x="-9" y="522" on="0"/>
        <pt x="94" y="635" on="1"/>
      </contour>
      <contour>
        <pt x="446" y="439" on="1"/>
        <pt x="487" y="439" on="0"/>
        <pt x="545" y="523" on="0"/>
        <pt x="545" y="630" on="0"/>
        <pt x="474" y="705" on="0"/>
        <pt x="401" y="705" on="1"/>
        <pt x="360" y="703" on="1"/>
        <pt x="352" y="687" on="0"/>
        <pt x="347" y="660" on="1"/>
        <pt x="280" y="254" on="0"/>
        <pt x="256" y="126" on="0"/>
        <pt x="193" y="65" on="1"/>
        <pt x="197" y="57" on="1"/>
        <pt x="345" y="57" on="1"/>
        <pt x="448" y="57" on="0"/>
        <pt x="567" y="168" on="0"/>
        <pt x="567" y="305" on="0"/>
        <pt x="476" y="394" on="0"/>
        <pt x="391" y="396" on="1"/>
        <pt x="369" y="396" on="1"/>
        <pt x="398" y="433" on="1"/>
        <pt x="409" y="446" on="1"/>
        <pt x="426" y="439" on="0"/>
      </contour>
    </TTGlyph>
    <TTGlyph name="C" xMin="36" yMin="-8" xMax="548" yMax="751">
      <contour>
        <pt x="412" y="751" on="1"/>
        <pt x="481" y="751" on="0"/>
        <pt x="548" y="731" on="1"/>
        <pt x="490" y="656" on="1"/>
        <pt x="435" y="695" on="0"/>
        <pt x="377" y="708" on="1"/>
        <pt x="309" y="707" on="0"/>
        <pt x="181" y="587" on="0"/>
        <pt x="104" y="399" on="0"/>
        <pt x="104" y="216" on="0"/>
        <pt x="183" y="73" on="0"/>
        <pt x="257" y="55" on="1"/>
        <pt x="325" y="67" on="0"/>
        <pt x="433" y="148" on="1"/>
        <pt x="442" y="140" on="1"/>
        <pt x="406" y="95" on="0"/>
        <pt x="288" y="5" on="0"/>
        <pt x="239" y="-8" on="1"/>
        <pt x="170" y="-8" on="0"/>
        <pt x="122" y="28" on="1"/>
        <pt x="36" y="94" on="0"/>
        <pt x="36" y="226" on="1"/>
        <pt x="36" y="341" on="0"/>
        <pt x="141" y="585" on="0"/>
        <pt x="319" y="751" on="0"/>
      </contour>
    </TTGlyph>
    <TTGlyph name="Ccedilla" xMin="35" yMin="-224" xMax="547" yMax="751">
      <contour>
        <pt x="411" y="751" on="1"/>
        <pt x="480" y="751" on="0"/>
        <pt x="547" y="731" on="1"/>
        <pt x="489" y="656" on="1"/>
        <pt x="434" y="695" on="0"/>
        <pt x="376" y="708" on="1"/>
        <pt x="308" y="707" on="0"/>
        <pt x="180" y="587" on="0"/>
        <pt x="103" y="399" on="0"/>
        <pt x="103" y="216" on="0"/>
        <pt x="182" y="73" on="0"/>
        <pt x="256" y="55" on="1"/>
        <pt x="324" y="67" on="0"/>
        <pt x="432" y="148" on="1"/>
        <pt x="441" y="140" on="1"/>
        <pt x="406" y="96" on="0"/>
        <pt x="291" y="8" on="0"/>
        <pt x="242" y="-6" on="1"/>
        <pt x="205" y="-39" on="0"/>
        <pt x="192" y="-50" on="1"/>
        <pt x="222" y="-58" on="0"/>
        <pt x="282" y="-109" on="0"/>
        <pt x="282" y="-130" on="1"/>
        <pt x="282" y="-166" on="0"/>
        <pt x="207" y="-224" on="0"/>
        <pt x="106" y="-224" on="0"/>
        <pt x="85" y="-184" on="1"/>
        <pt x="130" y="-145" on="1"/>
        <pt x="151" y="-184" on="0"/>
        <pt x="237" y="-184" on="0"/>
        <pt x="237" y="-169" on="1"/>
        <pt x="237" y="-143" on="0"/>
        <pt x="173" y="-90" on="0"/>
        <pt x="127" y="-74" on="1"/>
        <pt x="208" y="-6" on="1"/>
        <pt x="122" y="5" on="0"/>
        <pt x="35" y="139" on="0"/>
        <pt x="35" y="226" on="1"/>
        <pt x="35" y="341" on="0"/>
        <pt x="140" y="585" on="0"/>
        <pt x="318" y="751" on="0"/>
      </contour>
    </TTGlyph>
    <TTGlyph name="D" xMin="11" yMin="0" xMax="692" yMax="754">
      <contour>
        <pt x="266" y="733" on="1"/>
        <pt x="334" y="754" on="0"/>
        <pt x="491" y="754" on="0"/>
        <pt x="600" y="712" on="0"/>
        <pt x="631" y="676" on="1"/>
        <pt x="692" y="604" on="0"/>
        <pt x="692" y="494" on="1"/>
        <pt x="692" y="415" on="0"/>
        <pt x="628" y="242" on="0"/>
        <pt x="520" y="95" on="0"/>
        <pt x="357" y="0" on="0"/>
        <pt x="268" y="0" on="1"/>
        <pt x="88" y="0" on="1"/>
        <pt x="84" y="8" on="1"/>
        <pt x="171" y="26" on="0"/>
        <pt x="199" y="177" on="1"/>
        <pt x="217" y="272" on="0"/>
        <pt x="251" y="489" on="0"/>
        <pt x="260" y="540" on="1"/>
        <pt x="280" y="662" on="0"/>
        <pt x="309" y="702" on="1"/>
        <pt x="227" y="702" on="0"/>
        <pt x="155" y="632" on="1"/>
        <pt x="120" y="598" on="0"/>
        <pt x="76" y="479" on="0"/>
        <pt x="76" y="404" on="1"/>
        <pt x="11" y="348" on="1"/>
        <pt x="11" y="489" on="0"/>
        <pt x="72" y="588" on="1"/>
        <pt x="136" y="693" on="0"/>
      </contour>
      <contour>
        <pt x="339" y="57" on="1"/>
        <pt x="420" y="57" on="0"/>
        <pt x="554" y="175" on="0"/>
        <pt x="624" y="348" on="0"/>
        <pt x="624" y="493" on="0"/>
        <pt x="597" y="587" on="0"/>
        <pt x="568" y="625" on="1"/>
        <pt x="508" y="705" on="0"/>
        <pt x="366" y="705" on="1"/>
        <pt x="354" y="680" on="0"/>
        <pt x="344" y="619" on="0"/>
        <pt x="330" y="526" on="1"/>
        <pt x="306" y="374" on="0"/>
        <pt x="273" y="186" on="1"/>
        <pt x="263" y="128" on="0"/>
        <pt x="197" y="65" on="1"/>
        <pt x="201" y="57" on="1"/>
      </contour>
    </TTGlyph>
    <TTGlyph name="Delta" xMin="20" yMin="-21" xMax="578" yMax="754">
      <contour>
        <pt x="431" y="726" on="1"/>
        <pt x="494" y="754" on="1"/>
        <pt x="495" y="655" on="0"/>
        <pt x="550" y="212" on="0"/>
        <pt x="578" y="44" on="1"/>
        <pt x="485" y="-21" on="1"/>
        <pt x="20" y="-20" on="1"/>
        <pt x="403" y="686" on="0"/>
      </contour>
      <contour>
        <pt x="439" y="674" on="1"/>
        <pt x="437" y="674" on="0"/>
        <pt x="102" y="60" on="0"/>
        <pt x="86" y="27" on="1"/>
        <pt x="112" y="27" on="0"/>
        <pt x="199" y="29" on="0"/>
        <pt x="290" y="30" on="1"/>
        <pt x="503" y="34" on="0"/>
        <pt x="503" y="36" on="1"/>
      </contour>
    </TTGlyph>
    <TTGlyph name="E" xMin="-8" yMin="-1" xMax="631" yMax="752">
      <contour>
        <pt x="422" y="381" on="1"/>
        <pt x="288" y="383" on="1"/>
        <pt x="269" y="260" on="0"/>
        <pt x="241" y="125" on="0"/>
        <pt x="179" y="65" on="1"/>
        <pt x="183" y="57" on="1"/>
        <pt x="420" y="55" on="1"/>
        <pt x="428" y="54" on="0"/>
        <pt x="437" y="54" on="1"/>
        <pt x="509" y="54" on="0"/>
        <pt x="566" y="94" on="1"/>
        <pt x="570" y="86" on="1"/>
        <pt x="489" y="24" on="0"/>
        <pt x="453" y="-1" on="1"/>
        <pt x="70" y="0" on="1"/>
        <pt x="66" y="8" on="1"/>
        <pt x="153" y="26" on="0"/>
        <pt x="181" y="177" on="1"/>
        <pt x="199" y="271" on="0"/>
        <pt x="231" y="478" on="0"/>
        <pt x="239" y="529" on="1"/>
        <pt x="259" y="654" on="0"/>
        <pt x="283" y="694" on="1"/>
        <pt x="242" y="694" on="1"/>
        <pt x="142" y="694" on="0"/>
        <pt x="61" y="585" on="0"/>
        <pt x="61" y="452" on="1"/>
        <pt x="-8" y="398" on="1"/>
        <pt x="-8" y="512" on="0"/>
        <pt x="74" y="674" on="0"/>
        <pt x="173" y="731" on="1"/>
        <pt x="208" y="751" on="0"/>
        <pt x="322" y="751" on="1"/>
        <pt x="479" y="751" on="1"/>
        <pt x="598" y="751" on="0"/>
        <pt x="631" y="752" on="1"/>
        <pt x="575" y="693" on="1"/>
        <pt x="343" y="694" on="1"/>
        <pt x="336" y="675" on="0"/>
        <pt x="333" y="660" on="1"/>
        <pt x="299" y="445" on="1"/>
        <pt x="313" y="445" on="1"/>
        <pt x="431" y="441" on="1"/>
        <pt x="483" y="441" on="0"/>
        <pt x="528" y="451" on="1"/>
        <pt x="533" y="447" on="1"/>
        <pt x="515" y="421" on="0"/>
        <pt x="456" y="381" on="0"/>
      </contour>
    </TTGlyph>
    <TTGlyph name="Eacute" xMin="-9" yMin="-1" xMax="630" yMax="961">
      <contour>
        <pt x="421" y="381" on="1"/>
        <pt x="287" y="383" on="1"/>
        <pt x="268" y="260" on="0"/>
        <pt x="240" y="125" on="0"/>
        <pt x="178" y="65" on="1"/>
        <pt x="182" y="57" on="1"/>
        <pt x="419" y="55" on="1"/>
        <pt x="427" y="54" on="0"/>
        <pt x="436" y="54" on="1"/>
        <pt x="508" y="54" on="0"/>
        <pt x="565" y="94" on="1"/>
        <pt x="569" y="86" on="1"/>
        <pt x="488" y="24" on="0"/>
        <pt x="452" y="-1" on="1"/>
        <pt x="69" y="0" on="1"/>
        <pt x="65" y="8" on="1"/>
        <pt x="152" y="26" on="0"/>
        <pt x="180" y="177" on="1"/>
        <pt x="198" y="271" on="0"/>
        <pt x="230" y="478" on="0"/>
        <pt x="238" y="529" on="1"/>
        <pt x="258" y="654" on="0"/>
        <pt x="282" y="694" on="1"/>
        <pt x="241" y="694" on="1"/>
        <pt x="141" y="694" on="0"/>
        <pt x="60" y="585" on="0"/>
        <pt x="60" y="452" on="1"/>
        <pt x="-9" y="398" on="1"/>
        <pt x="-9" y="512" on="0"/>
        <pt x="73" y="674" on="0"/>
        <pt x="172" y="731" on="1"/>
        <pt x="207" y="751" on="0"/>
        <pt x="321" y="751" on="1"/>
        <pt x="478" y="751" on="1"/>
        <pt x="597" y="751" on="0"/>
        <pt x="630" y="752" on="1"/>
        <pt x="574" y="693" on="1"/>
        <pt x="342" y="694" on="1"/>
        <pt x="335" y="675" on="0"/>
        <pt x="332" y="660" on="1"/>
        <pt x="298" y="445" on="1"/>
        <pt x="312" y="445" on="1"/>
        <pt x="430" y="441" on="1"/>
        <pt x="482" y="441" on="0"/>
        <pt x="527" y="451" on="1"/>
        <pt x="532" y="447" on="1"/>
        <pt x="514" y="421" on="0"/>
        <pt x="455" y="381" on="0"/>
      </contour>
      <contour>
        <pt x="530" y="960" on="1"/>
        <pt x="534" y="960" on="0"/>
        <pt x="538" y="960" on="1"/>
        <pt x="523" y="921" on="1"/>
        <pt x="494" y="915" on="0"/>
        <pt x="404" y="858" on="0"/>
        <pt x="336" y="779" on="1"/>
        <pt x="322" y="796" on="1"/>
        <pt x="367" y="859" on="0"/>
        <pt x="394" y="890" on="1"/>
        <pt x="453" y="960" on="0"/>
      </contour>
    </TTGlyph>
    <TTGlyph name="Ecircumflex" xMin="-9" yMin="-1" xMax="630" yMax="906">
      <contour>
        <pt x="421" y="381" on="1"/>
        <pt x="287" y="383" on="1"/>
        <pt x="268" y="260" on="0"/>
        <pt x="240" y="125" on="0"/>
        <pt x="178" y="65" on="1"/>
        <pt x="182" y="57" on="1"/>
        <pt x="419" y="55" on="1"/>
        <pt x="427" y="54" on="0"/>
        <pt x="436" y="54" on="1"/>
        <pt x="508" y="54" on="0"/>
        <pt x="565" y="94" on="1"/>
        <pt x="569" y="86" on="1"/>
        <pt x="488" y="24" on="0"/>
        <pt x="452" y="-1" on="1"/>
        <pt x="69" y="0" on="1"/>
        <pt x="65" y="8" on="1"/>
        <pt x="152" y="26" on="0"/>
        <pt x="180" y="177" on="1"/>
        <pt x="198" y="271" on="0"/>
        <pt x="230" y="478" on="0"/>
        <pt x="238" y="529" on="1"/>
        <pt x="258" y="654" on="0"/>
        <pt x="282" y="694" on="1"/>
        <pt x="241" y="694" on="1"/>
        <pt x="141" y="694" on="0"/>
        <pt x="60" y="585" on="0"/>
        <pt x="60" y="452" on="1"/>
        <pt x="-9" y="398" on="1"/>
        <pt x="-9" y="512" on="0"/>
        <pt x="73" y="674" on="0"/>
        <pt x="172" y="731" on="1"/>
        <pt x="207" y="751" on="0"/>
        <pt x="321" y="751" on="1"/>
        <pt x="478" y="751" on="1"/>
        <pt x="597" y="751" on="0"/>
        <pt x="630" y="752" on="1"/>
        <pt x="574" y="693" on="1"/>
        <pt x="342" y="694" on="1"/>
        <pt x="335" y="675" on="0"/>
        <pt x="332" y="660" on="1"/>
        <pt x="298" y="445" on="1"/>
        <pt x="312" y="445" on="1"/>
        <pt x="430" y="441" on="1"/>
        <pt x="482" y="441" on="0"/>
        <pt x="527" y="451" on="1"/>
        <pt x="532" y="447" on="1"/>
        <pt x="514" y="421" on="0"/>
        <pt x="455" y="381" on="0"/>
      </contour>
      <contour>
        <pt x="409" y="906" on="1"/>
        <pt x="432" y="897" on="0"/>
        <pt x="507" y="843" on="0"/>
        <pt x="525" y="824" on="1"/>
        <pt x="490" y="791" on="1"/>
        <pt x="426" y="853" on="0"/>
        <pt x="381" y="867" on="1"/>
        <pt x="335" y="844" on="0"/>
        <pt x="275" y="793" on="1"/>
        <pt x="265" y="802" on="1"/>
        <pt x="305" y="846" on="0"/>
        <pt x="370" y="897" on="0"/>
      </contour>
    </TTGlyph>
    <TTGlyph name="Edieresis" xMin="-9" yMin="-1" xMax="630" yMax="914">
      <contour>
        <pt x="421" y="381" on="1"/>
        <pt x="287" y="383" on="1"/>
        <pt x="268" y="260" on="0"/>
        <pt x="240" y="125" on="0"/>
        <pt x="178" y="65" on="1"/>
        <pt x="182" y="57" on="1"/>
        <pt x="419" y="55" on="1"/>
        <pt x="427" y="54" on="0"/>
        <pt x="436" y="54" on="1"/>
        <pt x="508" y="54" on="0"/>
        <pt x="565" y="94" on="1"/>
        <pt x="569" y="86" on="1"/>
        <pt x="488" y="24" on="0"/>
        <pt x="452" y="-1" on="1"/>
        <pt x="69" y="0" on="1"/>
        <pt x="65" y="8" on="1"/>
        <pt x="152" y="26" on="0"/>
        <pt x="180" y="177" on="1"/>
        <pt x="198" y="271" on="0"/>
        <pt x="230" y="478" on="0"/>
        <pt x="238" y="529" on="1"/>
        <pt x="258" y="654" on="0"/>
        <pt x="282" y="694" on="1"/>
        <pt x="241" y="694" on="1"/>
        <pt x="141" y="694" on="0"/>
        <pt x="60" y="585" on="0"/>
        <pt x="60" y="452" on="1"/>
        <pt x="-9" y="398" on="1"/>
        <pt x="-9" y="512" on="0"/>
        <pt x="73" y="674" on="0"/>
        <pt x="172" y="731" on="1"/>
        <pt x="207" y="751" on="0"/>
        <pt x="321" y="751" on="1"/>
        <pt x="478" y="751" on="1"/>
        <pt x="597" y="751" on="0"/>
        <pt x="630" y="752" on="1"/>
        <pt x="574" y="693" on="1"/>
        <pt x="342" y="694" on="1"/>
        <pt x="335" y="675" on="0"/>
        <pt x="332" y="660" on="1"/>
        <pt x="298" y="445" on="1"/>
        <pt x="312" y="445" on="1"/>
        <pt x="430" y="441" on="1"/>
        <pt x="482" y="441" on="0"/>
        <pt x="527" y="451" on="1"/>
        <pt x="532" y="447" on="1"/>
        <pt x="514" y="421" on="0"/>
        <pt x="455" y="381" on="0"/>
      </contour>
      <contour>
        <pt x="188" y="864" on="1"/>
        <pt x="242" y="914" on="1"/>
        <pt x="275" y="888" on="0"/>
        <pt x="290" y="862" on="1"/>
        <pt x="239" y="807" on="1"/>
        <pt x="202" y="852" on="0"/>
      </contour>
      <contour>
        <pt x="377" y="864" on="1"/>
        <pt x="431" y="914" on="1"/>
        <pt x="459" y="896" on="0"/>
        <pt x="478" y="862" on="1"/>
        <pt x="433" y="807" on="1"/>
        <pt x="403" y="845" on="0"/>
      </contour>
    </TTGlyph>
    <TTGlyph name="Egrave" xMin="-9" yMin="-1" xMax="630" yMax="966">
      <contour>
        <pt x="421" y="381" on="1"/>
        <pt x="287" y="383" on="1"/>
        <pt x="268" y="260" on="0"/>
        <pt x="240" y="125" on="0"/>
        <pt x="178" y="65" on="1"/>
        <pt x="182" y="57" on="1"/>
        <pt x="419" y="55" on="1"/>
        <pt x="427" y="54" on="0"/>
        <pt x="436" y="54" on="1"/>
        <pt x="508" y="54" on="0"/>
        <pt x="565" y="94" on="1"/>
        <pt x="569" y="86" on="1"/>
        <pt x="488" y="24" on="0"/>
        <pt x="452" y="-1" on="1"/>
        <pt x="69" y="0" on="1"/>
        <pt x="65" y="8" on="1"/>
        <pt x="152" y="26" on="0"/>
        <pt x="180" y="177" on="1"/>
        <pt x="198" y="271" on="0"/>
        <pt x="230" y="478" on="0"/>
        <pt x="238" y="529" on="1"/>
        <pt x="258" y="654" on="0"/>
        <pt x="282" y="694" on="1"/>
        <pt x="241" y="694" on="1"/>
        <pt x="141" y="694" on="0"/>
        <pt x="60" y="585" on="0"/>
        <pt x="60" y="452" on="1"/>
        <pt x="-9" y="398" on="1"/>
        <pt x="-9" y="512" on="0"/>
        <pt x="73" y="674" on="0"/>
        <pt x="172" y="731" on="1"/>
        <pt x="207" y="751" on="0"/>
        <pt x="321" y="751" on="1"/>
        <pt x="478" y="751" on="1"/>
        <pt x="597" y="751" on="0"/>
        <pt x="630" y="752" on="1"/>
        <pt x="574" y="693" on="1"/>
        <pt x="342" y="694" on="1"/>
        <pt x="335" y="675" on="0"/>
        <pt x="332" y="660" on="1"/>
        <pt x="298" y="445" on="1"/>
        <pt x="312" y="445" on="1"/>
        <pt x="430" y="441" on="1"/>
        <pt x="482" y="441" on="0"/>
        <pt x="527" y="451" on="1"/>
        <pt x="532" y="447" on="1"/>
        <pt x="514" y="421" on="0"/>
        <pt x="455" y="381" on="0"/>
      </contour>
      <contour>
        <pt x="227" y="965" on="1"/>
        <pt x="304" y="965" on="0"/>
        <pt x="364" y="895" on="1"/>
        <pt x="390" y="864" on="0"/>
        <pt x="435" y="801" on="1"/>
        <pt x="420" y="783" on="1"/>
        <pt x="345" y="870" on="0"/>
        <pt x="297" y="899" on="1"/>
        <pt x="280" y="909" on="0"/>
        <pt x="236" y="926" on="0"/>
        <pt x="234" y="926" on="1"/>
        <pt x="219" y="965" on="1"/>
        <pt x="223" y="965" on="0"/>
      </contour>
    </TTGlyph>
    <TTGlyph name="Eth" xMin="11" yMin="0" xMax="679" yMax="754">
      <contour>
        <pt x="177" y="419" on="1"/>
        <pt x="215" y="419" on="0"/>
        <pt x="239" y="418" on="1"/>
        <pt x="256" y="521" on="0"/>
        <pt x="263" y="562" on="1"/>
        <pt x="281" y="664" on="0"/>
        <pt x="309" y="702" on="1"/>
        <pt x="227" y="702" on="0"/>
        <pt x="155" y="642" on="1"/>
        <pt x="120" y="612" on="0"/>
        <pt x="76" y="509" on="0"/>
        <pt x="76" y="444" on="1"/>
        <pt x="11" y="388" on="1"/>
        <pt x="11" y="565" on="0"/>
        <pt x="223" y="754" on="0"/>
        <pt x="423" y="754" on="1"/>
        <pt x="555" y="754" on="0"/>
        <pt x="679" y="615" on="0"/>
        <pt x="679" y="503" on="1"/>
        <pt x="679" y="421" on="0"/>
        <pt x="615" y="243" on="0"/>
        <pt x="506" y="96" on="0"/>
        <pt x="345" y="0" on="0"/>
        <pt x="258" y="0" on="1"/>
        <pt x="88" y="0" on="1"/>
        <pt x="84" y="8" on="1"/>
        <pt x="171" y="26" on="0"/>
        <pt x="199" y="177" on="1"/>
        <pt x="218" y="286" on="0"/>
        <pt x="229" y="356" on="1"/>
        <pt x="191" y="357" on="0"/>
        <pt x="128" y="357" on="1"/>
        <pt x="160" y="419" on="1"/>
      </contour>
      <contour>
        <pt x="329" y="57" on="1"/>
        <pt x="408" y="57" on="0"/>
        <pt x="540" y="176" on="0"/>
        <pt x="611" y="352" on="0"/>
        <pt x="611" y="443" on="1"/>
        <pt x="611" y="553" on="0"/>
        <pt x="554" y="626" on="1"/>
        <pt x="526" y="663" on="0"/>
        <pt x="429" y="705" on="0"/>
        <pt x="366" y="705" on="1"/>
        <pt x="354" y="680" on="0"/>
        <pt x="346" y="631" on="0"/>
        <pt x="311" y="416" on="1"/>
        <pt x="351" y="415" on="0"/>
        <pt x="457" y="415" on="0"/>
        <pt x="502" y="425" on="1"/>
        <pt x="507" y="421" on="1"/>
        <pt x="489" y="395" on="0"/>
        <pt x="430" y="355" on="0"/>
        <pt x="346" y="355" on="0"/>
        <pt x="301" y="356" on="1"/>
        <pt x="299" y="337" on="0"/>
        <pt x="273" y="186" on="1"/>
        <pt x="263" y="128" on="0"/>
        <pt x="197" y="65" on="1"/>
        <pt x="201" y="57" on="1"/>
      </contour>
    </TTGlyph>
    <TTGlyph name="Euro" xMin="43" yMin="-8" xMax="646" yMax="751">
      <contour>
        <pt x="510" y="751" on="1"/>
        <pt x="579" y="751" on="0"/>
        <pt x="646" y="731" on="1"/>
        <pt x="588" y="656" on="1"/>
        <pt x="533" y="695" on="0"/>
        <pt x="475" y="708" on="1"/>
        <pt x="391" y="707" on="0"/>
        <pt x="243" y="532" on="0"/>
        <pt x="215" y="412" on="1"/>
        <pt x="416" y="412" on="1"/>
        <pt x="390" y="376" on="1"/>
        <pt x="326" y="362" on="0"/>
        <pt x="206" y="360" on="1"/>
        <pt x="202" y="335" on="0"/>
        <pt x="202" y="287" on="0"/>
        <pt x="203" y="279" on="1"/>
        <pt x="405" y="279" on="1"/>
        <pt x="379" y="243" on="1"/>
        <pt x="315" y="229" on="0"/>
        <pt x="210" y="227" on="1"/>
        <pt x="224" y="163" on="0"/>
        <pt x="297" y="69" on="0"/>
        <pt x="355" y="55" on="1"/>
        <pt x="423" y="67" on="0"/>
        <pt x="531" y="148" on="1"/>
        <pt x="540" y="140" on="1"/>
        <pt x="504" y="95" on="0"/>
        <pt x="386" y="5" on="0"/>
        <pt x="337" y="-8" on="1"/>
        <pt x="268" y="-8" on="0"/>
        <pt x="220" y="28" on="1"/>
        <pt x="134" y="94" on="0"/>
        <pt x="134" y="226" on="1"/>
        <pt x="134" y="227" on="1"/>
        <pt x="99" y="228" on="0"/>
        <pt x="43" y="228" on="1"/>
        <pt x="77" y="279" on="1"/>
        <pt x="136" y="279" on="1"/>
        <pt x="141" y="326" on="0"/>
        <pt x="149" y="360" on="1"/>
        <pt x="129" y="360" on="0"/>
        <pt x="61" y="361" on="0"/>
        <pt x="54" y="361" on="1"/>
        <pt x="88" y="412" on="1"/>
        <pt x="162" y="412" on="1"/>
        <pt x="205" y="556" on="0"/>
        <pt x="389" y="751" on="0"/>
      </contour>
    </TTGlyph>
    <TTGlyph name="F" xMin="-9" yMin="-10" xMax="638" yMax="752">
      <contour>
        <pt x="429" y="381" on="1"/>
        <pt x="295" y="383" on="1"/>
        <pt x="289" y="346" on="0"/>
        <pt x="268" y="232" on="0"/>
        <pt x="266" y="219" on="1"/>
        <pt x="246" y="104" on="0"/>
        <pt x="133" y="-9" on="0"/>
        <pt x="51" y="-9" on="1"/>
        <pt x="48" y="-9" on="0"/>
        <pt x="45" y="-9" on="1"/>
        <pt x="-9" y="-8" on="1"/>
        <pt x="38" y="56" on="1"/>
        <pt x="74" y="47" on="0"/>
        <pt x="140" y="47" on="0"/>
        <pt x="172" y="80" on="0"/>
        <pt x="182" y="129" on="1"/>
        <pt x="203" y="240" on="0"/>
        <pt x="245" y="524" on="0"/>
        <pt x="272" y="665" on="0"/>
        <pt x="290" y="694" on="1"/>
        <pt x="249" y="694" on="1"/>
        <pt x="149" y="694" on="0"/>
        <pt x="68" y="585" on="0"/>
        <pt x="68" y="452" on="1"/>
        <pt x="-1" y="398" on="1"/>
        <pt x="-1" y="512" on="0"/>
        <pt x="81" y="674" on="0"/>
        <pt x="180" y="731" on="1"/>
        <pt x="215" y="751" on="0"/>
        <pt x="329" y="751" on="1"/>
        <pt x="486" y="751" on="1"/>
        <pt x="605" y="751" on="0"/>
        <pt x="638" y="752" on="1"/>
        <pt x="582" y="693" on="1"/>
        <pt x="350" y="694" on="1"/>
        <pt x="343" y="675" on="0"/>
        <pt x="340" y="660" on="1"/>
        <pt x="306" y="445" on="1"/>
        <pt x="314" y="445" on="0"/>
        <pt x="324" y="445" on="1"/>
        <pt x="438" y="441" on="1"/>
        <pt x="490" y="441" on="0"/>
        <pt x="535" y="451" on="1"/>
        <pt x="540" y="447" on="1"/>
        <pt x="522" y="421" on="0"/>
        <pt x="463" y="381" on="0"/>
      </contour>
    </TTGlyph>
    <TTGlyph name="G" xMin="35" yMin="-202" xMax="594" yMax="760">
      <contour>
        <pt x="35" y="340" on="0"/>
        <pt x="100" y="514" on="0"/>
        <pt x="213" y="665" on="0"/>
        <pt x="358" y="760" on="0"/>
        <pt x="427" y="760" on="1"/>
        <pt x="528" y="760" on="0"/>
        <pt x="594" y="745" on="1"/>
        <pt x="543" y="683" on="1"/>
        <pt x="474" y="711" on="0"/>
        <pt x="319" y="711" on="0"/>
        <pt x="178" y="574" on="0"/>
        <pt x="103" y="374" on="0"/>
        <pt x="103" y="189" on="0"/>
        <pt x="180" y="71" on="0"/>
        <pt x="257" y="53" on="1"/>
        <pt x="331" y="66" on="0"/>
        <pt x="397" y="139" on="1"/>
        <pt x="403" y="169" on="0"/>
        <pt x="412" y="226" on="1"/>
        <pt x="434" y="352" on="0"/>
        <pt x="442" y="375" on="1"/>
        <pt x="330" y="375" on="0"/>
        <pt x="294" y="358" on="1"/>
        <pt x="283" y="366" on="1"/>
        <pt x="366" y="428" on="1"/>
        <pt x="396" y="431" on="0"/>
        <pt x="538" y="431" on="1"/>
        <pt x="539" y="427" on="1"/>
        <pt x="525" y="419" on="0"/>
        <pt x="496" y="373" on="0"/>
        <pt x="491" y="340" on="1"/>
        <pt x="449" y="93" on="0"/>
        <pt x="402" y="-64" on="0"/>
        <pt x="335" y="-137" on="1"/>
        <pt x="339" y="-145" on="1"/>
        <pt x="386" y="-151" on="0"/>
        <pt x="480" y="-151" on="0"/>
        <pt x="519" y="-146" on="1"/>
        <pt x="523" y="-154" on="1"/>
        <pt x="477" y="-186" on="0"/>
        <pt x="456" y="-200" on="1"/>
        <pt x="226" y="-202" on="1"/>
        <pt x="222" y="-194" on="1"/>
        <pt x="285" y="-154" on="0"/>
        <pt x="364" y="-24" on="0"/>
        <pt x="393" y="107" on="1"/>
        <pt x="333" y="17" on="0"/>
        <pt x="238" y="-10" on="1"/>
        <pt x="108" y="-10" on="0"/>
        <pt x="60" y="106" on="1"/>
        <pt x="35" y="168" on="0"/>
      </contour>
    </TTGlyph>
    <TTGlyph name="H" xMin="-9" yMin="-10" xMax="789" yMax="751">
      <contour>
        <pt x="320" y="750" on="1"/>
        <pt x="414" y="750" on="1"/>
        <pt x="415" y="747" on="1"/>
        <pt x="405" y="740" on="0"/>
        <pt x="377" y="695" on="0"/>
        <pt x="351" y="606" on="0"/>
        <pt x="330" y="442" on="1"/>
        <pt x="632" y="441" on="1"/>
        <pt x="653" y="573" on="0"/>
        <pt x="672" y="667" on="0"/>
        <pt x="689" y="694" on="1"/>
        <pt x="668" y="695" on="0"/>
        <pt x="591" y="695" on="0"/>
        <pt x="543" y="688" on="1"/>
        <pt x="542" y="690" on="1"/>
        <pt x="573" y="727" on="0"/>
        <pt x="651" y="751" on="0"/>
        <pt x="734" y="751" on="1"/>
        <pt x="788" y="751" on="1"/>
        <pt x="789" y="748" on="1"/>
        <pt x="751" y="724" on="0"/>
        <pt x="740" y="660" on="1"/>
        <pt x="735" y="629" on="0"/>
        <pt x="678" y="284" on="0"/>
        <pt x="662" y="186" on="1"/>
        <pt x="652" y="128" on="0"/>
        <pt x="586" y="65" on="1"/>
        <pt x="590" y="57" on="1"/>
        <pt x="651" y="57" on="1"/>
        <pt x="723" y="57" on="0"/>
        <pt x="778" y="94" on="1"/>
        <pt x="782" y="86" on="1"/>
        <pt x="749" y="59" on="0"/>
        <pt x="725" y="38" on="0"/>
        <pt x="703" y="20" on="0"/>
        <pt x="691" y="12" on="0"/>
        <pt x="684" y="8" on="1"/>
        <pt x="671" y="-1" on="0"/>
        <pt x="665" y="-1" on="1"/>
        <pt x="543" y="-1" on="0"/>
        <pt x="477" y="0" on="1"/>
        <pt x="473" y="8" on="1"/>
        <pt x="560" y="26" on="0"/>
        <pt x="588" y="177" on="1"/>
        <pt x="600" y="241" on="0"/>
        <pt x="625" y="391" on="1"/>
        <pt x="322" y="393" on="1"/>
        <pt x="305" y="281" on="0"/>
        <pt x="294" y="219" on="1"/>
        <pt x="273" y="104" on="0"/>
        <pt x="160" y="-9" on="0"/>
        <pt x="79" y="-9" on="1"/>
        <pt x="76" y="-9" on="0"/>
        <pt x="73" y="-9" on="1"/>
        <pt x="19" y="-8" on="1"/>
        <pt x="66" y="56" on="1"/>
        <pt x="102" y="47" on="0"/>
        <pt x="167" y="47" on="0"/>
        <pt x="197" y="79" on="0"/>
        <pt x="207" y="129" on="1"/>
        <pt x="230" y="251" on="0"/>
        <pt x="274" y="537" on="0"/>
        <pt x="299" y="669" on="0"/>
        <pt x="314" y="694" on="1"/>
        <pt x="239" y="695" on="1"/>
        <pt x="237" y="695" on="0"/>
        <pt x="236" y="695" on="1"/>
        <pt x="141" y="695" on="0"/>
        <pt x="60" y="584" on="0"/>
        <pt x="60" y="452" on="1"/>
        <pt x="-9" y="398" on="1"/>
        <pt x="-9" y="512" on="0"/>
        <pt x="73" y="674" on="0"/>
        <pt x="172" y="731" on="1"/>
        <pt x="205" y="750" on="0"/>
      </contour>
    </TTGlyph>
    <TTGlyph name="I" xMin="-5" yMin="-1" xMax="426" yMax="751">
      <contour>
        <pt x="309" y="-1" on="1"/>
        <pt x="100" y="0" on="1"/>
        <pt x="96" y="8" on="1"/>
        <pt x="183" y="26" on="0"/>
        <pt x="211" y="177" on="1"/>
        <pt x="235" y="309" on="0"/>
        <pt x="279" y="588" on="0"/>
        <pt x="300" y="674" on="0"/>
        <pt x="312" y="694" on="1"/>
        <pt x="245" y="694" on="1"/>
        <pt x="145" y="694" on="0"/>
        <pt x="64" y="585" on="0"/>
        <pt x="64" y="452" on="1"/>
        <pt x="-5" y="398" on="1"/>
        <pt x="-5" y="512" on="0"/>
        <pt x="77" y="674" on="0"/>
        <pt x="176" y="731" on="1"/>
        <pt x="211" y="751" on="0"/>
        <pt x="321" y="751" on="1"/>
        <pt x="411" y="751" on="1"/>
        <pt x="412" y="748" on="1"/>
        <pt x="374" y="724" on="0"/>
        <pt x="363" y="660" on="1"/>
        <pt x="356" y="619" on="0"/>
        <pt x="342" y="526" on="1"/>
        <pt x="318" y="374" on="0"/>
        <pt x="285" y="186" on="1"/>
        <pt x="271" y="124" on="0"/>
        <pt x="209" y="65" on="1"/>
        <pt x="213" y="57" on="1"/>
        <pt x="237" y="56" on="0"/>
        <pt x="304" y="56" on="0"/>
        <pt x="383" y="67" on="0"/>
        <pt x="422" y="94" on="1"/>
        <pt x="426" y="86" on="1"/>
        <pt x="324" y="0" on="0"/>
      </contour>
    </TTGlyph>
    <TTGlyph name="IJ" xMin="-5" yMin="-202" xMax="785" yMax="751">
      <contour>
        <pt x="694" y="751" on="1"/>
        <pt x="784" y="751" on="1"/>
        <pt x="785" y="748" on="1"/>
        <pt x="770" y="739" on="0"/>
        <pt x="742" y="693" on="0"/>
        <pt x="737" y="660" on="1"/>
        <pt x="692" y="356" on="0"/>
        <pt x="626" y="11" on="1"/>
        <pt x="615" y="-44" on="0"/>
        <pt x="483" y="-183" on="0"/>
        <pt x="411" y="-202" on="1"/>
        <pt x="352" y="-202" on="0"/>
        <pt x="266" y="-136" on="1"/>
        <pt x="245" y="-121" on="0"/>
        <pt x="244" y="-120" on="1"/>
        <pt x="302" y="-81" on="1"/>
        <pt x="323" y="-101" on="0"/>
        <pt x="349" y="-122" on="0"/>
        <pt x="402" y="-148" on="0"/>
        <pt x="427" y="-148" on="1"/>
        <pt x="480" y="-148" on="0"/>
        <pt x="555" y="-64" on="0"/>
        <pt x="585" y="146" on="0"/>
        <pt x="602" y="257" on="1"/>
        <pt x="633" y="449" on="0"/>
        <pt x="667" y="643" on="1"/>
        <pt x="673" y="676" on="0"/>
        <pt x="688" y="694" on="1"/>
        <pt x="619" y="694" on="1"/>
        <pt x="539" y="694" on="0"/>
        <pt x="478" y="637" on="0"/>
        <pt x="478" y="562" on="1"/>
        <pt x="409" y="508" on="1"/>
        <pt x="409" y="591" on="0"/>
        <pt x="472" y="692" on="0"/>
        <pt x="550" y="731" on="1"/>
        <pt x="591" y="751" on="0"/>
      </contour>
      <contour>
        <pt x="259" y="-1" on="1"/>
        <pt x="100" y="0" on="1"/>
        <pt x="96" y="8" on="1"/>
        <pt x="183" y="26" on="0"/>
        <pt x="211" y="177" on="1"/>
        <pt x="235" y="309" on="0"/>
        <pt x="279" y="588" on="0"/>
        <pt x="300" y="674" on="0"/>
        <pt x="312" y="694" on="1"/>
        <pt x="245" y="694" on="1"/>
        <pt x="145" y="694" on="0"/>
        <pt x="64" y="585" on="0"/>
        <pt x="64" y="452" on="1"/>
        <pt x="-5" y="398" on="1"/>
        <pt x="-5" y="512" on="0"/>
        <pt x="77" y="674" on="0"/>
        <pt x="176" y="731" on="1"/>
        <pt x="211" y="751" on="0"/>
        <pt x="321" y="751" on="1"/>
        <pt x="411" y="751" on="1"/>
        <pt x="412" y="748" on="1"/>
        <pt x="374" y="724" on="0"/>
        <pt x="363" y="660" on="1"/>
        <pt x="361" y="649" on="0"/>
        <pt x="302" y="287" on="0"/>
        <pt x="285" y="186" on="1"/>
        <pt x="280" y="155" on="0"/>
        <pt x="246" y="100" on="0"/>
        <pt x="209" y="65" on="1"/>
        <pt x="213" y="57" on="1"/>
        <pt x="227" y="56" on="0"/>
        <pt x="253" y="56" on="1"/>
        <pt x="330" y="56" on="0"/>
        <pt x="372" y="94" on="1"/>
        <pt x="376" y="86" on="1"/>
        <pt x="375" y="85" on="0"/>
        <pt x="345" y="58" on="1"/>
        <pt x="281" y="1" on="0"/>
      </contour>
    </TTGlyph>
    <TTGlyph name="Iacute" xMin="-5" yMin="-1" xMax="516" yMax="960">
      <contour>
        <pt x="309" y="-1" on="1"/>
        <pt x="100" y="0" on="1"/>
        <pt x="96" y="8" on="1"/>
        <pt x="183" y="26" on="0"/>
        <pt x="211" y="177" on="1"/>
        <pt x="235" y="309" on="0"/>
        <pt x="279" y="588" on="0"/>
        <pt x="300" y="674" on="0"/>
        <pt x="312" y="694" on="1"/>
        <pt x="245" y="694" on="1"/>
        <pt x="145" y="694" on="0"/>
        <pt x="64" y="585" on="0"/>
        <pt x="64" y="452" on="1"/>
        <pt x="-5" y="398" on="1"/>
        <pt x="-5" y="512" on="0"/>
        <pt x="77" y="674" on="0"/>
        <pt x="176" y="731" on="1"/>
        <pt x="211" y="751" on="0"/>
        <pt x="321" y="751" on="1"/>
        <pt x="411" y="751" on="1"/>
        <pt x="412" y="748" on="1"/>
        <pt x="374" y="724" on="0"/>
        <pt x="363" y="660" on="1"/>
        <pt x="356" y="619" on="0"/>
        <pt x="342" y="526" on="1"/>
        <pt x="318" y="374" on="0"/>
        <pt x="285" y="186" on="1"/>
        <pt x="271" y="124" on="0"/>
        <pt x="209" y="65" on="1"/>
        <pt x="213" y="57" on="1"/>
        <pt x="237" y="56" on="0"/>
        <pt x="304" y="56" on="0"/>
        <pt x="383" y="67" on="0"/>
        <pt x="422" y="94" on="1"/>
        <pt x="426" y="86" on="1"/>
        <pt x="324" y="0" on="0"/>
      </contour>
      <contour>
        <pt x="508" y="959" on="1"/>
        <pt x="512" y="959" on="0"/>
        <pt x="516" y="959" on="1"/>
        <pt x="501" y="920" on="1"/>
        <pt x="472" y="914" on="0"/>
        <pt x="382" y="857" on="0"/>
        <pt x="314" y="778" on="1"/>
        <pt x="300" y="795" on="1"/>
        <pt x="345" y="858" on="0"/>
        <pt x="372" y="889" on="1"/>
        <pt x="431" y="959" on="0"/>
      </contour>
    </TTGlyph>
    <TTGlyph name="Icircumflex" xMin="-5" yMin="-1" xMax="496" yMax="915">
      <contour>
        <pt x="309" y="-1" on="1"/>
        <pt x="100" y="0" on="1"/>
        <pt x="96" y="8" on="1"/>
        <pt x="183" y="26" on="0"/>
        <pt x="211" y="177" on="1"/>
        <pt x="235" y="309" on="0"/>
        <pt x="279" y="588" on="0"/>
        <pt x="300" y="674" on="0"/>
        <pt x="312" y="694" on="1"/>
        <pt x="245" y="694" on="1"/>
        <pt x="145" y="694" on="0"/>
        <pt x="64" y="585" on="0"/>
        <pt x="64" y="452" on="1"/>
        <pt x="-5" y="398" on="1"/>
        <pt x="-5" y="512" on="0"/>
        <pt x="77" y="674" on="0"/>
        <pt x="176" y="731" on="1"/>
        <pt x="211" y="751" on="0"/>
        <pt x="321" y="751" on="1"/>
        <pt x="411" y="751" on="1"/>
        <pt x="412" y="748" on="1"/>
        <pt x="374" y="724" on="0"/>
        <pt x="363" y="660" on="1"/>
        <pt x="356" y="619" on="0"/>
        <pt x="342" y="526" on="1"/>
        <pt x="318" y="374" on="0"/>
        <pt x="285" y="186" on="1"/>
        <pt x="271" y="124" on="0"/>
        <pt x="209" y="65" on="1"/>
        <pt x="213" y="57" on="1"/>
        <pt x="237" y="56" on="0"/>
        <pt x="304" y="56" on="0"/>
        <pt x="383" y="67" on="0"/>
        <pt x="422" y="94" on="1"/>
        <pt x="426" y="86" on="1"/>
        <pt x="324" y="0" on="0"/>
      </contour>
      <contour>
        <pt x="380" y="915" on="1"/>
        <pt x="403" y="906" on="0"/>
        <pt x="478" y="852" on="0"/>
        <pt x="496" y="833" on="1"/>
        <pt x="461" y="800" on="1"/>
        <pt x="397" y="862" on="0"/>
        <pt x="352" y="876" on="1"/>
        <pt x="306" y="853" on="0"/>
        <pt x="246" y="802" on="1"/>
        <pt x="236" y="811" on="1"/>
        <pt x="276" y="855" on="0"/>
        <pt x="341" y="906" on="0"/>
      </contour>
    </TTGlyph>
    <TTGlyph name="Idieresis" xMin="-5" yMin="-1" xMax="497" yMax="911">
      <contour>
        <pt x="309" y="-1" on="1"/>
        <pt x="100" y="0" on="1"/>
        <pt x="96" y="8" on="1"/>
        <pt x="183" y="26" on="0"/>
        <pt x="211" y="177" on="1"/>
        <pt x="235" y="309" on="0"/>
        <pt x="279" y="588" on="0"/>
        <pt x="300" y="674" on="0"/>
        <pt x="312" y="694" on="1"/>
        <pt x="245" y="694" on="1"/>
        <pt x="145" y="694" on="0"/>
        <pt x="64" y="585" on="0"/>
        <pt x="64" y="452" on="1"/>
        <pt x="-5" y="398" on="1"/>
        <pt x="-5" y="512" on="0"/>
        <pt x="77" y="674" on="0"/>
        <pt x="176" y="731" on="1"/>
        <pt x="211" y="751" on="0"/>
        <pt x="321" y="751" on="1"/>
        <pt x="411" y="751" on="1"/>
        <pt x="412" y="748" on="1"/>
        <pt x="374" y="724" on="0"/>
        <pt x="363" y="660" on="1"/>
        <pt x="356" y="619" on="0"/>
        <pt x="342" y="526" on="1"/>
        <pt x="318" y="374" on="0"/>
        <pt x="285" y="186" on="1"/>
        <pt x="271" y="124" on="0"/>
        <pt x="209" y="65" on="1"/>
        <pt x="213" y="57" on="1"/>
        <pt x="237" y="56" on="0"/>
        <pt x="304" y="56" on="0"/>
        <pt x="383" y="67" on="0"/>
        <pt x="422" y="94" on="1"/>
        <pt x="426" y="86" on="1"/>
        <pt x="324" y="0" on="0"/>
      </contour>
      <contour>
        <pt x="207" y="861" on="1"/>
        <pt x="261" y="911" on="1"/>
        <pt x="294" y="885" on="0"/>
        <pt x="309" y="859" on="1"/>
        <pt x="258" y="804" on="1"/>
        <pt x="221" y="849" on="0"/>
      </contour>
      <contour>
        <pt x="396" y="861" on="1"/>
        <pt x="450" y="911" on="1"/>
        <pt x="478" y="893" on="0"/>
        <pt x="497" y="859" on="1"/>
        <pt x="452" y="804" on="1"/>
        <pt x="422" y="842" on="0"/>
      </contour>
    </TTGlyph>
    <TTGlyph name="Igrave" xMin="-5" yMin="-1" xMax="426" yMax="960">
      <contour>
        <pt x="309" y="-1" on="1"/>
        <pt x="100" y="0" on="1"/>
        <pt x="96" y="8" on="1"/>
        <pt x="183" y="26" on="0"/>
        <pt x="211" y="177" on="1"/>
        <pt x="235" y="309" on="0"/>
        <pt x="279" y="588" on="0"/>
        <pt x="300" y="674" on="0"/>
        <pt x="312" y="694" on="1"/>
        <pt x="245" y="694" on="1"/>
        <pt x="145" y="694" on="0"/>
        <pt x="64" y="585" on="0"/>
        <pt x="64" y="452" on="1"/>
        <pt x="-5" y="398" on="1"/>
        <pt x="-5" y="512" on="0"/>
        <pt x="77" y="674" on="0"/>
        <pt x="176" y="731" on="1"/>
        <pt x="211" y="751" on="0"/>
        <pt x="321" y="751" on="1"/>
        <pt x="411" y="751" on="1"/>
        <pt x="412" y="748" on="1"/>
        <pt x="374" y="724" on="0"/>
        <pt x="363" y="660" on="1"/>
        <pt x="356" y="619" on="0"/>
        <pt x="342" y="526" on="1"/>
        <pt x="318" y="374" on="0"/>
        <pt x="285" y="186" on="1"/>
        <pt x="271" y="124" on="0"/>
        <pt x="209" y="65" on="1"/>
        <pt x="213" y="57" on="1"/>
        <pt x="237" y="56" on="0"/>
        <pt x="304" y="56" on="0"/>
        <pt x="383" y="67" on="0"/>
        <pt x="422" y="94" on="1"/>
        <pt x="426" y="86" on="1"/>
        <pt x="324" y="0" on="0"/>
      </contour>
      <contour>
        <pt x="201" y="959" on="1"/>
        <pt x="278" y="959" on="0"/>
        <pt x="338" y="889" on="1"/>
        <pt x="364" y="858" on="0"/>
        <pt x="409" y="795" on="1"/>
        <pt x="394" y="777" on="1"/>
        <pt x="319" y="864" on="0"/>
        <pt x="271" y="893" on="1"/>
        <pt x="254" y="903" on="0"/>
        <pt x="210" y="920" on="0"/>
        <pt x="208" y="920" on="1"/>
        <pt x="193" y="959" on="1"/>
        <pt x="197" y="959" on="0"/>
      </contour>
    </TTGlyph>
    <TTGlyph name="Itilde" xMin="3" yMin="-1" xMax="519" yMax="915">
      <contour>
        <pt x="317" y="-1" on="1"/>
        <pt x="108" y="0" on="1"/>
        <pt x="104" y="8" on="1"/>
        <pt x="191" y="26" on="0"/>
        <pt x="219" y="177" on="1"/>
        <pt x="243" y="309" on="0"/>
        <pt x="287" y="588" on="0"/>
        <pt x="308" y="674" on="0"/>
        <pt x="320" y="694" on="1"/>
        <pt x="253" y="694" on="1"/>
        <pt x="153" y="694" on="0"/>
        <pt x="72" y="585" on="0"/>
        <pt x="72" y="452" on="1"/>
        <pt x="3" y="398" on="1"/>
        <pt x="3" y="512" on="0"/>
        <pt x="85" y="674" on="0"/>
        <pt x="184" y="731" on="1"/>
        <pt x="219" y="751" on="0"/>
        <pt x="329" y="751" on="1"/>
        <pt x="419" y="751" on="1"/>
        <pt x="420" y="748" on="1"/>
        <pt x="382" y="724" on="0"/>
        <pt x="371" y="660" on="1"/>
        <pt x="364" y="619" on="0"/>
        <pt x="350" y="526" on="1"/>
        <pt x="326" y="374" on="0"/>
        <pt x="293" y="186" on="1"/>
        <pt x="279" y="124" on="0"/>
        <pt x="217" y="65" on="1"/>
        <pt x="221" y="57" on="1"/>
        <pt x="245" y="56" on="0"/>
        <pt x="312" y="56" on="0"/>
        <pt x="391" y="67" on="0"/>
        <pt x="430" y="94" on="1"/>
        <pt x="434" y="86" on="1"/>
        <pt x="332" y="0" on="0"/>
      </contour>
      <contour>
        <pt x="378" y="829" on="0"/>
        <pt x="301" y="866" on="0"/>
        <pt x="257" y="866" on="0"/>
        <pt x="196" y="839" on="0"/>
        <pt x="179" y="824" on="1"/>
        <pt x="174" y="839" on="1"/>
        <pt x="223" y="889" on="0"/>
        <pt x="289" y="915" on="1"/>
        <pt x="311" y="915" on="0"/>
        <pt x="388" y="880" on="0"/>
        <pt x="433" y="880" on="0"/>
        <pt x="496" y="901" on="0"/>
        <pt x="511" y="912" on="1"/>
        <pt x="519" y="901" on="1"/>
        <pt x="463" y="844" on="0"/>
        <pt x="400" y="829" on="1"/>
      </contour>
    </TTGlyph>
    <TTGlyph name="J" xMin="-54" yMin="-202" xMax="487" yMax="751">
      <contour>
        <pt x="396" y="751" on="1"/>
        <pt x="486" y="751" on="1"/>
        <pt x="487" y="748" on="1"/>
        <pt x="472" y="739" on="0"/>
        <pt x="444" y="693" on="0"/>
        <pt x="439" y="660" on="1"/>
        <pt x="394" y="356" on="0"/>
        <pt x="328" y="11" on="1"/>
        <pt x="315" y="-55" on="0"/>
        <pt x="195" y="-182" on="0"/>
        <pt x="113" y="-202" on="1"/>
        <pt x="54" y="-202" on="0"/>
        <pt x="-32" y="-136" on="1"/>
        <pt x="-53" y="-121" on="0"/>
        <pt x="-54" y="-120" on="1"/>
        <pt x="4" y="-81" on="1"/>
        <pt x="25" y="-101" on="0"/>
        <pt x="51" y="-122" on="0"/>
        <pt x="104" y="-148" on="0"/>
        <pt x="129" y="-148" on="1"/>
        <pt x="181" y="-148" on="0"/>
        <pt x="258" y="-60" on="0"/>
        <pt x="270" y="26" on="1"/>
        <pt x="310" y="310" on="0"/>
        <pt x="369" y="643" on="1"/>
        <pt x="375" y="676" on="0"/>
        <pt x="390" y="694" on="1"/>
        <pt x="321" y="694" on="1"/>
        <pt x="221" y="694" on="0"/>
        <pt x="140" y="585" on="0"/>
        <pt x="140" y="452" on="1"/>
        <pt x="71" y="398" on="1"/>
        <pt x="71" y="512" on="0"/>
        <pt x="153" y="674" on="0"/>
        <pt x="252" y="731" on="1"/>
        <pt x="287" y="751" on="0"/>
      </contour>
    </TTGlyph>
    <TTGlyph name="Jcircumflex" xMin="-72" yMin="-202" xMax="542" yMax="912">
      <contour>
        <pt x="378" y="751" on="1"/>
        <pt x="468" y="751" on="1"/>
        <pt x="469" y="748" on="1"/>
        <pt x="454" y="739" on="0"/>
        <pt x="426" y="693" on="0"/>
        <pt x="421" y="660" on="1"/>
        <pt x="376" y="356" on="0"/>
        <pt x="310" y="11" on="1"/>
        <pt x="299" y="-44" on="0"/>
        <pt x="167" y="-183" on="0"/>
        <pt x="95" y="-202" on="1"/>
        <pt x="36" y="-202" on="0"/>
        <pt x="-50" y="-136" on="1"/>
        <pt x="-71" y="-121" on="0"/>
        <pt x="-72" y="-120" on="1"/>
        <pt x="-14" y="-81" on="1"/>
        <pt x="7" y="-101" on="0"/>
        <pt x="33" y="-122" on="0"/>
        <pt x="86" y="-148" on="0"/>
        <pt x="111" y="-148" on="1"/>
        <pt x="164" y="-148" on="0"/>
        <pt x="239" y="-64" on="0"/>
        <pt x="269" y="146" on="0"/>
        <pt x="286" y="257" on="1"/>
        <pt x="317" y="449" on="0"/>
        <pt x="351" y="643" on="1"/>
        <pt x="357" y="676" on="0"/>
        <pt x="372" y="694" on="1"/>
        <pt x="303" y="694" on="1"/>
        <pt x="203" y="694" on="0"/>
        <pt x="122" y="585" on="0"/>
        <pt x="122" y="452" on="1"/>
        <pt x="53" y="398" on="1"/>
        <pt x="53" y="512" on="0"/>
        <pt x="135" y="674" on="0"/>
        <pt x="234" y="731" on="1"/>
        <pt x="269" y="751" on="0"/>
      </contour>
      <contour>
        <pt x="426" y="912" on="1"/>
        <pt x="449" y="903" on="0"/>
        <pt x="524" y="849" on="0"/>
        <pt x="542" y="830" on="1"/>
        <pt x="507" y="797" on="1"/>
        <pt x="443" y="859" on="0"/>
        <pt x="398" y="873" on="1"/>
        <pt x="352" y="850" on="0"/>
        <pt x="292" y="799" on="1"/>
        <pt x="282" y="808" on="1"/>
        <pt x="322" y="852" on="0"/>
        <pt x="387" y="903" on="0"/>
      </contour>
    </TTGlyph>
    <TTGlyph name="K" xMin="-6" yMin="-113" xMax="743" yMax="752">
      <contour>
        <pt x="323" y="750" on="1"/>
        <pt x="417" y="750" on="1"/>
        <pt x="418" y="747" on="1"/>
        <pt x="408" y="740" on="0"/>
        <pt x="380" y="695" on="0"/>
        <pt x="358" y="620" on="0"/>
        <pt x="328" y="442" on="0"/>
        <pt x="302" y="247" on="0"/>
        <pt x="297" y="219" on="1"/>
        <pt x="276" y="106" on="0"/>
        <pt x="166" y="-8" on="0"/>
        <pt x="83" y="-8" on="1"/>
        <pt x="22" y="-8" on="1"/>
        <pt x="69" y="56" on="1"/>
        <pt x="105" y="47" on="0"/>
        <pt x="170" y="47" on="0"/>
        <pt x="200" y="79" on="0"/>
        <pt x="210" y="129" on="1"/>
        <pt x="233" y="251" on="0"/>
        <pt x="277" y="537" on="0"/>
        <pt x="302" y="670" on="0"/>
        <pt x="317" y="695" on="1"/>
        <pt x="237" y="695" on="1"/>
        <pt x="142" y="695" on="0"/>
        <pt x="63" y="582" on="0"/>
        <pt x="63" y="452" on="1"/>
        <pt x="-6" y="398" on="1"/>
        <pt x="-6" y="512" on="0"/>
        <pt x="76" y="674" on="0"/>
        <pt x="175" y="731" on="1"/>
        <pt x="208" y="750" on="0"/>
      </contour>
      <contour>
        <pt x="743" y="716" on="1"/>
        <pt x="668" y="666" on="1"/>
        <pt x="631" y="685" on="0"/>
        <pt x="553" y="685" on="0"/>
        <pt x="484" y="626" on="0"/>
        <pt x="466" y="582" on="1"/>
        <pt x="429" y="495" on="0"/>
        <pt x="429" y="419" on="1"/>
        <pt x="489" y="293" on="0"/>
        <pt x="654" y="17" on="0"/>
        <pt x="725" y="-78" on="1"/>
        <pt x="690" y="-113" on="1"/>
        <pt x="524" y="67" on="0"/>
        <pt x="360" y="339" on="1"/>
        <pt x="360" y="432" on="0"/>
        <pt x="415" y="583" on="0"/>
        <pt x="492" y="671" on="0"/>
        <pt x="538" y="701" on="1"/>
        <pt x="615" y="752" on="0"/>
        <pt x="716" y="752" on="0"/>
      </contour>
    </TTGlyph>
    <TTGlyph name="L" xMin="-50" yMin="-195" xMax="590" yMax="752">
      <contour>
        <pt x="570" y="-149" on="0"/>
        <pt x="484" y="-195" on="0"/>
        <pt x="398" y="-195" on="0"/>
        <pt x="308" y="-153" on="0"/>
        <pt x="224" y="-94" on="0"/>
        <pt x="182" y="-64" on="1"/>
        <pt x="83" y="8" on="0"/>
        <pt x="15" y="8" on="1"/>
        <pt x="-14" y="8" on="0"/>
        <pt x="-46" y="0" on="1"/>
        <pt x="-50" y="8" on="1"/>
        <pt x="37" y="26" on="0"/>
        <pt x="65" y="177" on="1"/>
        <pt x="92" y="317" on="0"/>
        <pt x="121" y="533" on="0"/>
        <pt x="125" y="560" on="1"/>
        <pt x="137" y="634" on="0"/>
        <pt x="284" y="752" on="0"/>
        <pt x="365" y="752" on="1"/>
        <pt x="420" y="752" on="0"/>
        <pt x="465" y="717" on="1"/>
        <pt x="406" y="667" on="1"/>
        <pt x="345" y="713" on="0"/>
        <pt x="299" y="713" on="1"/>
        <pt x="224" y="713" on="0"/>
        <pt x="203" y="589" on="1"/>
        <pt x="187" y="498" on="0"/>
        <pt x="145" y="216" on="0"/>
        <pt x="139" y="186" on="1"/>
        <pt x="127" y="126" on="0"/>
        <pt x="63" y="65" on="1"/>
        <pt x="67" y="57" on="1"/>
        <pt x="141" y="57" on="0"/>
        <pt x="239" y="-15" on="1"/>
        <pt x="280" y="-45" on="0"/>
        <pt x="320" y="-76" on="1"/>
        <pt x="417" y="-148" on="0"/>
        <pt x="485" y="-148" on="1"/>
        <pt x="537" y="-148" on="0"/>
        <pt x="581" y="-103" on="1"/>
        <pt x="590" y="-111" on="1"/>
      </contour>
    </TTGlyph>
    <TTGlyph name="Ldotaccent" xMin="-46" yMin="-195" xMax="604" yMax="752">
      <contour>
        <pt x="369" y="752" on="1"/>
        <pt x="424" y="752" on="0"/>
        <pt x="469" y="717" on="1"/>
        <pt x="410" y="667" on="1"/>
        <pt x="349" y="713" on="0"/>
        <pt x="303" y="713" on="1"/>
        <pt x="228" y="713" on="0"/>
        <pt x="207" y="589" on="1"/>
        <pt x="191" y="498" on="0"/>
        <pt x="149" y="216" on="0"/>
        <pt x="143" y="186" on="1"/>
        <pt x="131" y="126" on="0"/>
        <pt x="67" y="65" on="1"/>
        <pt x="71" y="57" on="1"/>
        <pt x="157" y="57" on="0"/>
        <pt x="253" y="-12" on="1"/>
        <pt x="293" y="-40" on="0"/>
        <pt x="332" y="-69" on="1"/>
        <pt x="426" y="-138" on="0"/>
        <pt x="507" y="-138" on="1"/>
        <pt x="558" y="-138" on="0"/>
        <pt x="592" y="-84" on="1"/>
        <pt x="604" y="-87" on="1"/>
        <pt x="591" y="-134" on="0"/>
        <pt x="496" y="-195" on="0"/>
        <pt x="403" y="-195" on="0"/>
        <pt x="315" y="-153" on="0"/>
        <pt x="231" y="-94" on="0"/>
        <pt x="188" y="-64" on="1"/>
        <pt x="86" y="8" on="0"/>
        <pt x="19" y="8" on="1"/>
        <pt x="-10" y="8" on="0"/>
        <pt x="-42" y="0" on="1"/>
        <pt x="-46" y="8" on="1"/>
        <pt x="41" y="26" on="0"/>
        <pt x="69" y="177" on="1"/>
        <pt x="96" y="317" on="0"/>
        <pt x="125" y="533" on="0"/>
        <pt x="129" y="560" on="1"/>
        <pt x="141" y="634" on="0"/>
        <pt x="288" y="752" on="0"/>
      </contour>
      <contour>
        <pt x="300" y="309" on="1"/>
        <pt x="368" y="383" on="1"/>
        <pt x="398" y="363" on="0"/>
        <pt x="427" y="316" on="1"/>
        <pt x="361" y="249" on="1"/>
        <pt x="353" y="261" on="0"/>
      </contour>
    </TTGlyph>
    <TTGlyph name="Lslash" xMin="-55" yMin="-195" xMax="595" yMax="752">
      <contour>
        <pt x="360" y="752" on="1"/>
        <pt x="415" y="752" on="0"/>
        <pt x="460" y="717" on="1"/>
        <pt x="401" y="667" on="1"/>
        <pt x="340" y="713" on="0"/>
        <pt x="294" y="713" on="1"/>
        <pt x="219" y="713" on="0"/>
        <pt x="198" y="589" on="1"/>
        <pt x="178" y="470" on="1"/>
        <pt x="256" y="514" on="0"/>
        <pt x="315" y="539" on="1"/>
        <pt x="290" y="479" on="1"/>
        <pt x="228" y="450" on="0"/>
        <pt x="170" y="416" on="1"/>
        <pt x="164" y="379" on="0"/>
        <pt x="156" y="324" on="1"/>
        <pt x="140" y="212" on="0"/>
        <pt x="134" y="186" on="1"/>
        <pt x="122" y="126" on="0"/>
        <pt x="58" y="65" on="1"/>
        <pt x="62" y="57" on="1"/>
        <pt x="146" y="57" on="0"/>
        <pt x="242" y="-12" on="1"/>
        <pt x="282" y="-40" on="0"/>
        <pt x="322" y="-69" on="1"/>
        <pt x="417" y="-138" on="0"/>
        <pt x="498" y="-138" on="1"/>
        <pt x="549" y="-138" on="0"/>
        <pt x="583" y="-84" on="1"/>
        <pt x="595" y="-87" on="1"/>
        <pt x="582" y="-134" on="0"/>
        <pt x="487" y="-195" on="0"/>
        <pt x="395" y="-195" on="0"/>
        <pt x="306" y="-153" on="0"/>
        <pt x="222" y="-94" on="0"/>
        <pt x="180" y="-64" on="1"/>
        <pt x="79" y="8" on="0"/>
        <pt x="10" y="8" on="1"/>
        <pt x="-19" y="8" on="0"/>
        <pt x="-51" y="0" on="1"/>
        <pt x="-55" y="8" on="1"/>
        <pt x="32" y="26" on="0"/>
        <pt x="60" y="177" on="1"/>
        <pt x="77" y="271" on="0"/>
        <pt x="92" y="366" on="1"/>
        <pt x="17" y="316" on="0"/>
        <pt x="-7" y="299" on="1"/>
        <pt x="16" y="366" on="1"/>
        <pt x="36" y="380" on="0"/>
        <pt x="100" y="421" on="1"/>
        <pt x="102" y="434" on="0"/>
        <pt x="116" y="536" on="0"/>
        <pt x="120" y="560" on="1"/>
        <pt x="132" y="634" on="0"/>
        <pt x="279" y="752" on="0"/>
      </contour>
    </TTGlyph>
    <TTGlyph name="M" xMin="-29" yMin="-19" xMax="960" yMax="759">
      <contour>
        <pt x="432" y="697" on="1"/>
        <pt x="327" y="700" on="1"/>
        <pt x="230" y="700" on="0"/>
        <pt x="193" y="679" on="1"/>
        <pt x="177" y="670" on="0"/>
        <pt x="140" y="634" on="0"/>
        <pt x="130" y="608" on="1"/>
        <pt x="106" y="546" on="0"/>
        <pt x="106" y="453" on="1"/>
        <pt x="75" y="432" on="0"/>
        <pt x="37" y="399" on="1"/>
        <pt x="37" y="592" on="0"/>
        <pt x="164" y="696" on="1"/>
        <pt x="238" y="756" on="0"/>
        <pt x="369" y="756" on="1"/>
        <pt x="400" y="756" on="0"/>
        <pt x="533" y="746" on="1"/>
        <pt x="551" y="556" on="0"/>
        <pt x="551" y="294" on="1"/>
        <pt x="551" y="182" on="1"/>
        <pt x="587" y="304" on="0"/>
        <pt x="706" y="559" on="0"/>
        <pt x="843" y="748" on="0"/>
        <pt x="894" y="759" on="1"/>
        <pt x="857" y="429" on="0"/>
        <pt x="857" y="247" on="1"/>
        <pt x="857" y="144" on="0"/>
        <pt x="869" y="66" on="1"/>
        <pt x="909" y="66" on="0"/>
        <pt x="956" y="94" on="1"/>
        <pt x="960" y="86" on="1"/>
        <pt x="888" y="23" on="0"/>
        <pt x="804" y="-16" on="1"/>
        <pt x="785" y="78" on="0"/>
        <pt x="785" y="222" on="1"/>
        <pt x="785" y="440" on="0"/>
        <pt x="821" y="611" on="1"/>
        <pt x="747" y="549" on="0"/>
        <pt x="669" y="384" on="1"/>
        <pt x="624" y="288" on="0"/>
        <pt x="512" y="35" on="0"/>
        <pt x="488" y="-19" on="1"/>
        <pt x="484" y="-18" on="1"/>
        <pt x="485" y="34" on="1"/>
        <pt x="485" y="136" on="0"/>
        <pt x="465" y="592" on="0"/>
        <pt x="465" y="628" on="1"/>
        <pt x="465" y="640" on="1"/>
        <pt x="286" y="173" on="1"/>
        <pt x="256" y="95" on="0"/>
        <pt x="122" y="-7" on="0"/>
        <pt x="32" y="-7" on="1"/>
        <pt x="-29" y="-7" on="1"/>
        <pt x="18" y="57" on="1"/>
        <pt x="54" y="48" on="0"/>
        <pt x="123" y="48" on="0"/>
        <pt x="170" y="64" on="0"/>
        <pt x="201" y="102" on="0"/>
        <pt x="216" y="131" on="0"/>
        <pt x="227" y="161" on="1"/>
        <pt x="418" y="674" on="1"/>
        <pt x="424" y="690" on="0"/>
      </contour>
    </TTGlyph>
    <TTGlyph name="N" xMin="-29" yMin="-10" xMax="791" yMax="751">
      <contour>
        <pt x="300" y="750" on="1"/>
        <pt x="388" y="750" on="1"/>
        <pt x="508" y="423" on="0"/>
        <pt x="581" y="113" on="1"/>
        <pt x="591" y="172" on="0"/>
        <pt x="635" y="473" on="0"/>
        <pt x="671" y="656" on="0"/>
        <pt x="691" y="694" on="1"/>
        <pt x="670" y="695" on="0"/>
        <pt x="593" y="695" on="0"/>
        <pt x="545" y="688" on="1"/>
        <pt x="544" y="690" on="1"/>
        <pt x="575" y="727" on="0"/>
        <pt x="653" y="751" on="0"/>
        <pt x="736" y="751" on="1"/>
        <pt x="790" y="751" on="1"/>
        <pt x="791" y="748" on="1"/>
        <pt x="753" y="724" on="0"/>
        <pt x="742" y="660" on="1"/>
        <pt x="666" y="218" on="1"/>
        <pt x="649" y="119" on="0"/>
        <pt x="592" y="16" on="0"/>
        <pt x="534" y="-10" on="1"/>
        <pt x="530" y="-2" on="1"/>
        <pt x="557" y="13" on="1"/>
        <pt x="516" y="138" on="0"/>
        <pt x="382" y="520" on="0"/>
        <pt x="338" y="655" on="1"/>
        <pt x="322" y="578" on="0"/>
        <pt x="288" y="295" on="0"/>
        <pt x="276" y="228" on="1"/>
        <pt x="255" y="113" on="0"/>
        <pt x="142" y="0" on="0"/>
        <pt x="61" y="0" on="1"/>
        <pt x="58" y="0" on="0"/>
        <pt x="55" y="0" on="1"/>
        <pt x="1" y="1" on="1"/>
        <pt x="48" y="65" on="1"/>
        <pt x="84" y="56" on="0"/>
        <pt x="149" y="56" on="0"/>
        <pt x="179" y="88" on="0"/>
        <pt x="189" y="138" on="1"/>
        <pt x="213" y="263" on="0"/>
        <pt x="254" y="543" on="0"/>
        <pt x="277" y="672" on="0"/>
        <pt x="291" y="694" on="1"/>
        <pt x="219" y="695" on="1"/>
        <pt x="217" y="695" on="0"/>
        <pt x="216" y="695" on="1"/>
        <pt x="121" y="695" on="0"/>
        <pt x="40" y="584" on="0"/>
        <pt x="40" y="452" on="1"/>
        <pt x="-29" y="398" on="1"/>
        <pt x="-29" y="512" on="0"/>
        <pt x="53" y="674" on="0"/>
        <pt x="152" y="731" on="1"/>
        <pt x="185" y="750" on="0"/>
      </contour>
    </TTGlyph>
    <TTGlyph name="Nacute" xMin="-77" yMin="-10" xMax="743" yMax="948">
      <contour>
        <pt x="252" y="750" on="1"/>
        <pt x="346" y="750" on="1"/>
        <pt x="472" y="387" on="0"/>
        <pt x="530" y="102" on="1"/>
        <pt x="544" y="175" on="0"/>
        <pt x="588" y="472" on="0"/>
        <pt x="623" y="657" on="0"/>
        <pt x="643" y="694" on="1"/>
        <pt x="622" y="695" on="0"/>
        <pt x="545" y="695" on="0"/>
        <pt x="497" y="688" on="1"/>
        <pt x="496" y="690" on="1"/>
        <pt x="527" y="727" on="0"/>
        <pt x="605" y="751" on="0"/>
        <pt x="688" y="751" on="1"/>
        <pt x="742" y="751" on="1"/>
        <pt x="743" y="748" on="1"/>
        <pt x="705" y="724" on="0"/>
        <pt x="694" y="660" on="1"/>
        <pt x="618" y="218" on="1"/>
        <pt x="601" y="119" on="0"/>
        <pt x="544" y="16" on="0"/>
        <pt x="486" y="-10" on="1"/>
        <pt x="482" y="-2" on="1"/>
        <pt x="509" y="13" on="1"/>
        <pt x="461" y="160" on="0"/>
        <pt x="325" y="540" on="0"/>
        <pt x="290" y="643" on="1"/>
        <pt x="273" y="571" on="0"/>
        <pt x="239" y="291" on="0"/>
        <pt x="228" y="228" on="1"/>
        <pt x="207" y="113" on="0"/>
        <pt x="94" y="0" on="0"/>
        <pt x="13" y="0" on="1"/>
        <pt x="10" y="0" on="0"/>
        <pt x="7" y="0" on="1"/>
        <pt x="-47" y="1" on="1"/>
        <pt x="0" y="65" on="1"/>
        <pt x="36" y="56" on="0"/>
        <pt x="101" y="56" on="0"/>
        <pt x="131" y="88" on="0"/>
        <pt x="141" y="138" on="1"/>
        <pt x="166" y="267" on="0"/>
        <pt x="204" y="538" on="0"/>
        <pt x="224" y="670" on="0"/>
        <pt x="236" y="694" on="1"/>
        <pt x="171" y="695" on="1"/>
        <pt x="169" y="695" on="0"/>
        <pt x="168" y="695" on="1"/>
        <pt x="73" y="695" on="0"/>
        <pt x="-8" y="584" on="0"/>
        <pt x="-8" y="452" on="1"/>
        <pt x="-77" y="398" on="1"/>
        <pt x="-77" y="512" on="0"/>
        <pt x="5" y="674" on="0"/>
        <pt x="104" y="731" on="1"/>
        <pt x="137" y="750" on="0"/>
      </contour>
      <contour>
        <pt x="626" y="947" on="1"/>
        <pt x="630" y="947" on="0"/>
        <pt x="634" y="947" on="1"/>
        <pt x="619" y="908" on="1"/>
        <pt x="590" y="902" on="0"/>
        <pt x="500" y="845" on="0"/>
        <pt x="432" y="766" on="1"/>
        <pt x="418" y="783" on="1"/>
        <pt x="463" y="846" on="0"/>
        <pt x="490" y="877" on="1"/>
        <pt x="549" y="947" on="0"/>
      </contour>
    </TTGlyph>
    <TTGlyph name="Ntilde" xMin="-29" yMin="-10" xMax="791" yMax="914">
      <contour>
        <pt x="300" y="750" on="1"/>
        <pt x="394" y="750" on="1"/>
        <pt x="520" y="387" on="0"/>
        <pt x="578" y="102" on="1"/>
        <pt x="592" y="175" on="0"/>
        <pt x="636" y="472" on="0"/>
        <pt x="671" y="657" on="0"/>
        <pt x="691" y="694" on="1"/>
        <pt x="670" y="695" on="0"/>
        <pt x="593" y="695" on="0"/>
        <pt x="545" y="688" on="1"/>
        <pt x="544" y="690" on="1"/>
        <pt x="575" y="727" on="0"/>
        <pt x="653" y="751" on="0"/>
        <pt x="736" y="751" on="1"/>
        <pt x="790" y="751" on="1"/>
        <pt x="791" y="748" on="1"/>
        <pt x="753" y="724" on="0"/>
        <pt x="742" y="660" on="1"/>
        <pt x="666" y="218" on="1"/>
        <pt x="649" y="119" on="0"/>
        <pt x="592" y="16" on="0"/>
        <pt x="534" y="-10" on="1"/>
        <pt x="530" y="-2" on="1"/>
        <pt x="557" y="13" on="1"/>
        <pt x="509" y="160" on="0"/>
        <pt x="373" y="540" on="0"/>
        <pt x="338" y="643" on="1"/>
        <pt x="321" y="571" on="0"/>
        <pt x="287" y="291" on="0"/>
        <pt x="276" y="228" on="1"/>
        <pt x="255" y="113" on="0"/>
        <pt x="142" y="0" on="0"/>
        <pt x="61" y="0" on="1"/>
        <pt x="58" y="0" on="0"/>
        <pt x="55" y="0" on="1"/>
        <pt x="1" y="1" on="1"/>
        <pt x="48" y="65" on="1"/>
        <pt x="84" y="56" on="0"/>
        <pt x="149" y="56" on="0"/>
        <pt x="179" y="88" on="0"/>
        <pt x="189" y="138" on="1"/>
        <pt x="214" y="267" on="0"/>
        <pt x="252" y="538" on="0"/>
        <pt x="272" y="670" on="0"/>
        <pt x="284" y="694" on="1"/>
        <pt x="219" y="695" on="1"/>
        <pt x="217" y="695" on="0"/>
        <pt x="216" y="695" on="1"/>
        <pt x="121" y="695" on="0"/>
        <pt x="40" y="584" on="0"/>
        <pt x="40" y="452" on="1"/>
        <pt x="-29" y="398" on="1"/>
        <pt x="-29" y="512" on="0"/>
        <pt x="53" y="674" on="0"/>
        <pt x="152" y="731" on="1"/>
        <pt x="185" y="750" on="0"/>
      </contour>
      <contour>
        <pt x="555" y="828" on="0"/>
        <pt x="478" y="865" on="0"/>
        <pt x="434" y="865" on="0"/>
        <pt x="373" y="838" on="0"/>
        <pt x="356" y="823" on="1"/>
        <pt x="351" y="838" on="1"/>
        <pt x="400" y="888" on="0"/>
        <pt x="466" y="914" on="1"/>
        <pt x="488" y="914" on="0"/>
        <pt x="565" y="879" on="0"/>
        <pt x="610" y="879" on="0"/>
        <pt x="673" y="900" on="0"/>
        <pt x="688" y="911" on="1"/>
        <pt x="696" y="900" on="1"/>
        <pt x="640" y="843" on="0"/>
        <pt x="577" y="828" on="1"/>
      </contour>
    </TTGlyph>
    <TTGlyph name="O" xMin="35" yMin="-5" xMax="544" yMax="753">
      <contour>
        <pt x="470" y="731" on="0"/>
        <pt x="544" y="589" on="0"/>
        <pt x="544" y="386" on="0"/>
        <pt x="454" y="177" on="0"/>
        <pt x="293" y="20" on="0"/>
        <pt x="198" y="-5" on="1"/>
        <pt x="117" y="16" on="0"/>
        <pt x="35" y="146" on="0"/>
        <pt x="35" y="237" on="1"/>
        <pt x="35" y="403" on="0"/>
        <pt x="246" y="714" on="0"/>
        <pt x="394" y="753" on="1"/>
      </contour>
      <contour>
        <pt x="476" y="429" on="1"/>
        <pt x="476" y="523" on="0"/>
        <pt x="410" y="667" on="0"/>
        <pt x="342" y="697" on="1"/>
        <pt x="240" y="666" on="0"/>
        <pt x="103" y="427" on="0"/>
        <pt x="103" y="297" on="1"/>
        <pt x="103" y="210" on="0"/>
        <pt x="176" y="78" on="0"/>
        <pt x="250" y="51" on="1"/>
        <pt x="347" y="80" on="0"/>
        <pt x="476" y="305" on="0"/>
      </contour>
    </TTGlyph>
    <TTGlyph name="OE" xMin="33" yMin="-1" xMax="803" yMax="752">
      <contour>
        <pt x="594" y="381" on="1"/>
        <pt x="460" y="383" on="1"/>
        <pt x="437" y="237" on="0"/>
        <pt x="415" y="126" on="0"/>
        <pt x="351" y="65" on="1"/>
        <pt x="356" y="54" on="1"/>
        <pt x="582" y="54" on="1"/>
        <pt x="673" y="54" on="0"/>
        <pt x="728" y="94" on="1"/>
        <pt x="732" y="86" on="1"/>
        <pt x="651" y="24" on="0"/>
        <pt x="615" y="-1" on="1"/>
        <pt x="273" y="-1" on="1"/>
        <pt x="207" y="-1" on="0"/>
        <pt x="110" y="40" on="0"/>
        <pt x="84" y="76" on="1"/>
        <pt x="33" y="145" on="0"/>
        <pt x="33" y="237" on="1"/>
        <pt x="33" y="356" on="0"/>
        <pt x="137" y="590" on="0"/>
        <pt x="337" y="751" on="0"/>
        <pt x="458" y="751" on="1"/>
        <pt x="651" y="751" on="1"/>
        <pt x="770" y="751" on="0"/>
        <pt x="803" y="752" on="1"/>
        <pt x="747" y="693" on="1"/>
        <pt x="515" y="694" on="1"/>
        <pt x="508" y="675" on="0"/>
        <pt x="505" y="660" on="1"/>
        <pt x="471" y="445" on="1"/>
        <pt x="479" y="445" on="0"/>
        <pt x="489" y="445" on="1"/>
        <pt x="603" y="441" on="1"/>
        <pt x="655" y="441" on="0"/>
        <pt x="700" y="451" on="1"/>
        <pt x="705" y="447" on="1"/>
        <pt x="687" y="421" on="0"/>
        <pt x="628" y="381" on="0"/>
      </contour>
      <contour>
        <pt x="454" y="695" on="1"/>
        <pt x="426" y="698" on="0"/>
        <pt x="366" y="698" on="0"/>
        <pt x="340" y="697" on="1"/>
        <pt x="238" y="666" on="0"/>
        <pt x="101" y="427" on="0"/>
        <pt x="101" y="297" on="1"/>
        <pt x="101" y="164" on="0"/>
        <pt x="180" y="94" on="1"/>
        <pt x="223" y="55" on="0"/>
        <pt x="285" y="55" on="1"/>
        <pt x="338" y="92" on="0"/>
        <pt x="353" y="177" on="1"/>
        <pt x="374" y="289" on="0"/>
        <pt x="413" y="556" on="0"/>
        <pt x="436" y="666" on="0"/>
      </contour>
    </TTGlyph>
    <TTGlyph name="Oacute" xMin="38" yMin="-5" xMax="547" yMax="961">
      <contour>
        <pt x="473" y="731" on="0"/>
        <pt x="547" y="589" on="0"/>
        <pt x="547" y="386" on="0"/>
        <pt x="457" y="177" on="0"/>
        <pt x="296" y="20" on="0"/>
        <pt x="201" y="-5" on="1"/>
        <pt x="120" y="16" on="0"/>
        <pt x="38" y="146" on="0"/>
        <pt x="38" y="237" on="1"/>
        <pt x="38" y="403" on="0"/>
        <pt x="249" y="714" on="0"/>
        <pt x="397" y="753" on="1"/>
      </contour>
      <contour>
        <pt x="479" y="429" on="1"/>
        <pt x="479" y="523" on="0"/>
        <pt x="413" y="667" on="0"/>
        <pt x="345" y="697" on="1"/>
        <pt x="243" y="666" on="0"/>
        <pt x="106" y="427" on="0"/>
        <pt x="106" y="297" on="1"/>
        <pt x="106" y="210" on="0"/>
        <pt x="179" y="78" on="0"/>
        <pt x="253" y="51" on="1"/>
        <pt x="350" y="80" on="0"/>
        <pt x="479" y="305" on="0"/>
      </contour>
      <contour>
        <pt x="506" y="960" on="1"/>
        <pt x="510" y="960" on="0"/>
        <pt x="514" y="960" on="1"/>
        <pt x="499" y="921" on="1"/>
        <pt x="470" y="915" on="0"/>
        <pt x="380" y="858" on="0"/>
        <pt x="312" y="779" on="1"/>
        <pt x="298" y="796" on="1"/>
        <pt x="343" y="859" on="0"/>
        <pt x="370" y="890" on="1"/>
        <pt x="429" y="960" on="0"/>
      </contour>
    </TTGlyph>
    <TTGlyph name="Ocircumflex" xMin="38" yMin="-5" xMax="547" yMax="918">
      <contour>
        <pt x="473" y="731" on="0"/>
        <pt x="547" y="589" on="0"/>
        <pt x="547" y="386" on="0"/>
        <pt x="457" y="177" on="0"/>
        <pt x="296" y="20" on="0"/>
        <pt x="201" y="-5" on="1"/>
        <pt x="120" y="16" on="0"/>
        <pt x="38" y="146" on="0"/>
        <pt x="38" y="237" on="1"/>
        <pt x="38" y="403" on="0"/>
        <pt x="249" y="714" on="0"/>
        <pt x="397" y="753" on="1"/>
      </contour>
      <contour>
        <pt x="479" y="429" on="1"/>
        <pt x="479" y="523" on="0"/>
        <pt x="413" y="667" on="0"/>
        <pt x="345" y="697" on="1"/>
        <pt x="243" y="666" on="0"/>
        <pt x="106" y="427" on="0"/>
        <pt x="106" y="297" on="1"/>
        <pt x="106" y="210" on="0"/>
        <pt x="179" y="78" on="0"/>
        <pt x="253" y="51" on="1"/>
        <pt x="350" y="80" on="0"/>
        <pt x="479" y="305" on="0"/>
      </contour>
      <contour>
        <pt x="430" y="918" on="1"/>
        <pt x="453" y="909" on="0"/>
        <pt x="528" y="855" on="0"/>
        <pt x="546" y="836" on="1"/>
        <pt x="511" y="803" on="1"/>
        <pt x="447" y="865" on="0"/>
        <pt x="402" y="879" on="1"/>
        <pt x="356" y="856" on="0"/>
        <pt x="296" y="805" on="1"/>
        <pt x="286" y="814" on="1"/>
        <pt x="326" y="858" on="0"/>
        <pt x="391" y="909" on="0"/>
      </contour>
    </TTGlyph>
    <TTGlyph name="Odieresis" xMin="38" yMin="-5" xMax="555" yMax="917">
      <contour>
        <pt x="473" y="731" on="0"/>
        <pt x="547" y="589" on="0"/>
        <pt x="547" y="386" on="0"/>
        <pt x="457" y="177" on="0"/>
        <pt x="296" y="20" on="0"/>
        <pt x="201" y="-5" on="1"/>
        <pt x="120" y="16" on="0"/>
        <pt x="38" y="146" on="0"/>
        <pt x="38" y="237" on="1"/>
        <pt x="38" y="403" on="0"/>
        <pt x="249" y="714" on="0"/>
        <pt x="397" y="753" on="1"/>
      </contour>
      <contour>
        <pt x="479" y="429" on="1"/>
        <pt x="479" y="523" on="0"/>
        <pt x="413" y="667" on="0"/>
        <pt x="345" y="697" on="1"/>
        <pt x="243" y="666" on="0"/>
        <pt x="106" y="427" on="0"/>
        <pt x="106" y="297" on="1"/>
        <pt x="106" y="210" on="0"/>
        <pt x="179" y="78" on="0"/>
        <pt x="253" y="51" on="1"/>
        <pt x="350" y="80" on="0"/>
        <pt x="479" y="305" on="0"/>
      </contour>
      <contour>
        <pt x="265" y="867" on="1"/>
        <pt x="319" y="917" on="1"/>
        <pt x="352" y="891" on="0"/>
        <pt x="367" y="865" on="1"/>
        <pt x="316" y="810" on="1"/>
        <pt x="279" y="855" on="0"/>
      </contour>
      <contour>
        <pt x="454" y="867" on="1"/>
        <pt x="508" y="917" on="1"/>
        <pt x="536" y="899" on="0"/>
        <pt x="555" y="865" on="1"/>
        <pt x="510" y="810" on="1"/>
        <pt x="480" y="848" on="0"/>
      </contour>
    </TTGlyph>
    <TTGlyph name="Ograve" xMin="38" yMin="-5" xMax="547" yMax="964">
      <contour>
        <pt x="473" y="731" on="0"/>
        <pt x="547" y="589" on="0"/>
        <pt x="547" y="386" on="0"/>
        <pt x="457" y="177" on="0"/>
        <pt x="296" y="20" on="0"/>
        <pt x="201" y="-5" on="1"/>
        <pt x="120" y="16" on="0"/>
        <pt x="38" y="146" on="0"/>
        <pt x="38" y="237" on="1"/>
        <pt x="38" y="403" on="0"/>
        <pt x="249" y="714" on="0"/>
        <pt x="397" y="753" on="1"/>
      </contour>
      <contour>
        <pt x="479" y="429" on="1"/>
        <pt x="479" y="523" on="0"/>
        <pt x="413" y="667" on="0"/>
        <pt x="345" y="697" on="1"/>
        <pt x="243" y="666" on="0"/>
        <pt x="106" y="427" on="0"/>
        <pt x="106" y="297" on="1"/>
        <pt x="106" y="210" on="0"/>
        <pt x="179" y="78" on="0"/>
        <pt x="253" y="51" on="1"/>
        <pt x="350" y="80" on="0"/>
        <pt x="479" y="305" on="0"/>
      </contour>
      <contour>
        <pt x="292" y="963" on="1"/>
        <pt x="369" y="963" on="0"/>
        <pt x="428" y="893" on="1"/>
        <pt x="455" y="862" on="0"/>
        <pt x="500" y="799" on="1"/>
        <pt x="485" y="781" on="1"/>
        <pt x="410" y="868" on="0"/>
        <pt x="362" y="897" on="1"/>
        <pt x="345" y="907" on="0"/>
        <pt x="301" y="924" on="0"/>
        <pt x="299" y="924" on="1"/>
        <pt x="284" y="963" on="1"/>
        <pt x="288" y="963" on="0"/>
      </contour>
    </TTGlyph>
    <TTGlyph name="Omega" xMin="89" yMin="0" xMax="804" yMax="759">
      <contour>
        <pt x="524" y="759" on="1"/>
        <pt x="648" y="759" on="0"/>
        <pt x="804" y="584" on="0"/>
        <pt x="804" y="322" on="0"/>
        <pt x="661" y="122" on="0"/>
        <pt x="552" y="55" on="1"/>
        <pt x="739" y="55" on="1"/>
        <pt x="701" y="0" on="1"/>
        <pt x="508" y="0" on="1"/>
        <pt x="503" y="19" on="1"/>
        <pt x="666" y="222" on="0"/>
        <pt x="703" y="365" on="1"/>
        <pt x="720" y="431" on="0"/>
        <pt x="720" y="501" on="1"/>
        <pt x="720" y="613" on="0"/>
        <pt x="619" y="729" on="0"/>
        <pt x="519" y="729" on="1"/>
        <pt x="388" y="729" on="0"/>
        <pt x="231" y="505" on="0"/>
        <pt x="231" y="208" on="0"/>
        <pt x="329" y="19" on="1"/>
        <pt x="318" y="0" on="1"/>
        <pt x="89" y="0" on="1"/>
        <pt x="134" y="55" on="1"/>
        <pt x="290" y="55" on="1"/>
        <pt x="218" y="109" on="0"/>
        <pt x="137" y="234" on="0"/>
        <pt x="137" y="446" on="0"/>
        <pt x="243" y="644" on="0"/>
        <pt x="421" y="759" on="0"/>
      </contour>
    </TTGlyph>
    <TTGlyph name="Oslash" xMin="38" yMin="-83" xMax="547" yMax="817">
      <contour>
        <pt x="538" y="788" on="1"/>
        <pt x="488" y="692" on="1"/>
        <pt x="547" y="620" on="0"/>
        <pt x="547" y="489" on="1"/>
        <pt x="547" y="386" on="0"/>
        <pt x="457" y="177" on="0"/>
        <pt x="296" y="20" on="0"/>
        <pt x="201" y="-5" on="1"/>
        <pt x="168" y="3" on="0"/>
        <pt x="136" y="23" on="1"/>
        <pt x="116" y="-13" on="0"/>
        <pt x="81" y="-83" on="1"/>
        <pt x="38" y="-24" on="1"/>
        <pt x="74" y="36" on="0"/>
        <pt x="90" y="64" on="1"/>
        <pt x="38" y="129" on="0"/>
        <pt x="38" y="237" on="1"/>
        <pt x="38" y="403" on="0"/>
        <pt x="249" y="714" on="0"/>
        <pt x="397" y="753" on="1"/>
        <pt x="433" y="742" on="0"/>
        <pt x="457" y="723" on="1"/>
        <pt x="489" y="785" on="0"/>
        <pt x="506" y="817" on="1"/>
      </contour>
      <contour>
        <pt x="350" y="80" on="0"/>
        <pt x="479" y="305" on="0"/>
        <pt x="479" y="531" on="0"/>
        <pt x="441" y="603" on="1"/>
        <pt x="254" y="248" on="0"/>
        <pt x="176" y="100" on="1"/>
        <pt x="207" y="67" on="0"/>
        <pt x="253" y="51" on="1"/>
      </contour>
      <contour>
        <pt x="106" y="297" on="1"/>
        <pt x="106" y="213" on="0"/>
        <pt x="140" y="149" on="1"/>
        <pt x="283" y="399" on="0"/>
        <pt x="415" y="644" on="1"/>
        <pt x="385" y="678" on="0"/>
        <pt x="345" y="697" on="1"/>
        <pt x="243" y="666" on="0"/>
        <pt x="106" y="427" on="0"/>
      </contour>
    </TTGlyph>
    <TTGlyph name="Otilde" xMin="29" yMin="-5" xMax="580" yMax="923">
      <contour>
        <pt x="464" y="731" on="0"/>
        <pt x="538" y="589" on="0"/>
        <pt x="538" y="386" on="0"/>
        <pt x="448" y="177" on="0"/>
        <pt x="287" y="20" on="0"/>
        <pt x="192" y="-5" on="1"/>
        <pt x="111" y="16" on="0"/>
        <pt x="29" y="146" on="0"/>
        <pt x="29" y="237" on="1"/>
        <pt x="29" y="403" on="0"/>
        <pt x="240" y="714" on="0"/>
        <pt x="388" y="753" on="1"/>
      </contour>
      <contour>
        <pt x="470" y="429" on="1"/>
        <pt x="470" y="523" on="0"/>
        <pt x="404" y="667" on="0"/>
        <pt x="336" y="697" on="1"/>
        <pt x="234" y="666" on="0"/>
        <pt x="97" y="427" on="0"/>
        <pt x="97" y="297" on="1"/>
        <pt x="97" y="210" on="0"/>
        <pt x="170" y="78" on="0"/>
        <pt x="244" y="51" on="1"/>
        <pt x="341" y="80" on="0"/>
        <pt x="470" y="305" on="0"/>
      </contour>
      <contour>
        <pt x="439" y="837" on="0"/>
        <pt x="362" y="874" on="0"/>
        <pt x="318" y="874" on="0"/>
        <pt x="257" y="847" on="0"/>
        <pt x="240" y="832" on="1"/>
        <pt x="235" y="847" on="1"/>
        <pt x="284" y="897" on="0"/>
        <pt x="350" y="923" on="1"/>
        <pt x="372" y="923" on="0"/>
        <pt x="449" y="888" on="0"/>
        <pt x="494" y="888" on="0"/>
        <pt x="557" y="909" on="0"/>
        <pt x="572" y="920" on="1"/>
        <pt x="580" y="909" on="1"/>
        <pt x="524" y="852" on="0"/>
        <pt x="461" y="837" on="1"/>
      </contour>
    </TTGlyph>
    <TTGlyph name="P" xMin="-9" yMin="-1" xMax="648" yMax="754">
      <contour>
        <pt x="146" y="691" on="0"/>
        <pt x="313" y="754" on="0"/>
        <pt x="531" y="754" on="0"/>
        <pt x="648" y="676" on="0"/>
        <pt x="648" y="611" on="1"/>
        <pt x="648" y="562" on="0"/>
        <pt x="588" y="445" on="0"/>
        <pt x="470" y="355" on="0"/>
        <pt x="401" y="355" on="1"/>
        <pt x="386" y="355" on="0"/>
        <pt x="379" y="356" on="1"/>
        <pt x="419" y="406" on="1"/>
        <pt x="436" y="399" on="0"/>
        <pt x="456" y="399" on="1"/>
        <pt x="513" y="399" on="0"/>
        <pt x="573" y="490" on="0"/>
        <pt x="573" y="617" on="0"/>
        <pt x="476" y="705" on="0"/>
        <pt x="388" y="705" on="1"/>
        <pt x="369" y="705" on="1"/>
        <pt x="358" y="682" on="0"/>
        <pt x="347" y="619" on="0"/>
        <pt x="332" y="526" on="1"/>
        <pt x="309" y="374" on="0"/>
        <pt x="276" y="186" on="1"/>
        <pt x="266" y="128" on="0"/>
        <pt x="200" y="65" on="1"/>
        <pt x="204" y="57" on="1"/>
        <pt x="265" y="57" on="1"/>
        <pt x="337" y="57" on="0"/>
        <pt x="392" y="94" on="1"/>
        <pt x="396" y="86" on="1"/>
        <pt x="363" y="59" on="0"/>
        <pt x="339" y="38" on="0"/>
        <pt x="317" y="20" on="0"/>
        <pt x="305" y="12" on="0"/>
        <pt x="298" y="8" on="1"/>
        <pt x="285" y="-1" on="0"/>
        <pt x="279" y="-1" on="1"/>
        <pt x="157" y="-1" on="0"/>
        <pt x="91" y="0" on="1"/>
        <pt x="87" y="8" on="1"/>
        <pt x="174" y="26" on="0"/>
        <pt x="202" y="177" on="1"/>
        <pt x="229" y="325" on="0"/>
        <pt x="271" y="589" on="0"/>
        <pt x="296" y="680" on="0"/>
        <pt x="313" y="702" on="1"/>
        <pt x="201" y="702" on="0"/>
        <pt x="56" y="553" on="0"/>
        <pt x="56" y="404" on="1"/>
        <pt x="-9" y="348" on="1"/>
        <pt x="-9" y="522" on="0"/>
        <pt x="94" y="635" on="1"/>
      </contour>
    </TTGlyph>
    <TTGlyph name="Q" xMin="5" yMin="-104" xMax="633" yMax="753">
      <contour>
        <pt x="69" y="386" on="1"/>
        <pt x="69" y="537" on="0"/>
        <pt x="281" y="753" on="0"/>
        <pt x="445" y="753" on="1"/>
        <pt x="520" y="731" on="0"/>
        <pt x="593" y="594" on="0"/>
        <pt x="593" y="505" on="1"/>
        <pt x="593" y="374" on="0"/>
        <pt x="388" y="114" on="0"/>
        <pt x="251" y="47" on="1"/>
        <pt x="271" y="39" on="0"/>
        <pt x="328" y="10" on="1"/>
        <pt x="439" y="-47" on="0"/>
        <pt x="508" y="-47" on="1"/>
        <pt x="553" y="-47" on="0"/>
        <pt x="623" y="-13" on="1"/>
        <pt x="633" y="-24" on="1"/>
        <pt x="528" y="-104" on="0"/>
        <pt x="441" y="-104" on="1"/>
        <pt x="376" y="-104" on="0"/>
        <pt x="276" y="-38" on="1"/>
        <pt x="240" y="-13" on="0"/>
        <pt x="128" y="29" on="0"/>
        <pt x="41" y="29" on="0"/>
        <pt x="9" y="21" on="1"/>
        <pt x="5" y="29" on="1"/>
        <pt x="86" y="79" on="1"/>
        <pt x="124" y="64" on="0"/>
        <pt x="161" y="64" on="1"/>
        <pt x="226" y="64" on="0"/>
        <pt x="361" y="141" on="0"/>
        <pt x="462" y="256" on="0"/>
        <pt x="526" y="394" on="0"/>
        <pt x="526" y="531" on="0"/>
        <pt x="460" y="668" on="0"/>
        <pt x="393" y="697" on="1"/>
        <pt x="137" y="697" on="0"/>
        <pt x="137" y="428" on="1"/>
        <pt x="137" y="317" on="0"/>
        <pt x="231" y="278" on="1"/>
        <pt x="170" y="223" on="1"/>
        <pt x="124" y="239" on="0"/>
        <pt x="69" y="325" on="0"/>
      </contour>
    </TTGlyph>
    <TTGlyph name="R" xMin="-6" yMin="-113" xMax="728" yMax="754">
      <contour>
        <pt x="149" y="691" on="0"/>
        <pt x="316" y="754" on="0"/>
        <pt x="534" y="754" on="0"/>
        <pt x="651" y="676" on="0"/>
        <pt x="651" y="537" on="0"/>
        <pt x="536" y="414" on="0"/>
        <pt x="438" y="391" on="1"/>
        <pt x="593" y="89" on="0"/>
        <pt x="728" y="-79" on="1"/>
        <pt x="698" y="-113" on="1"/>
        <pt x="500" y="102" on="0"/>
        <pt x="343" y="383" on="1"/>
        <pt x="376" y="418" on="1"/>
        <pt x="415" y="418" on="1"/>
        <pt x="491" y="418" on="0"/>
        <pt x="576" y="499" on="0"/>
        <pt x="576" y="617" on="0"/>
        <pt x="479" y="705" on="0"/>
        <pt x="391" y="705" on="1"/>
        <pt x="372" y="705" on="1"/>
        <pt x="361" y="682" on="0"/>
        <pt x="350" y="619" on="0"/>
        <pt x="336" y="526" on="1"/>
        <pt x="312" y="374" on="0"/>
        <pt x="279" y="186" on="1"/>
        <pt x="269" y="128" on="0"/>
        <pt x="203" y="65" on="1"/>
        <pt x="207" y="57" on="1"/>
        <pt x="268" y="57" on="1"/>
        <pt x="340" y="57" on="0"/>
        <pt x="395" y="94" on="1"/>
        <pt x="399" y="86" on="1"/>
        <pt x="366" y="59" on="0"/>
        <pt x="342" y="38" on="0"/>
        <pt x="320" y="20" on="0"/>
        <pt x="308" y="12" on="0"/>
        <pt x="301" y="8" on="1"/>
        <pt x="288" y="-1" on="0"/>
        <pt x="282" y="-1" on="1"/>
        <pt x="160" y="-1" on="0"/>
        <pt x="94" y="0" on="1"/>
        <pt x="90" y="8" on="1"/>
        <pt x="177" y="26" on="0"/>
        <pt x="205" y="177" on="1"/>
        <pt x="232" y="325" on="0"/>
        <pt x="274" y="589" on="0"/>
        <pt x="299" y="680" on="0"/>
        <pt x="316" y="702" on="1"/>
        <pt x="204" y="702" on="0"/>
        <pt x="59" y="553" on="0"/>
        <pt x="59" y="404" on="1"/>
        <pt x="-6" y="348" on="1"/>
        <pt x="-6" y="522" on="0"/>
        <pt x="98" y="635" on="1"/>
      </contour>
    </TTGlyph>
    <TTGlyph name="Racute" xMin="-105" yMin="-113" xMax="634" yMax="955">
      <contour>
        <pt x="50" y="691" on="0"/>
        <pt x="217" y="754" on="0"/>
        <pt x="435" y="754" on="0"/>
        <pt x="552" y="676" on="0"/>
        <pt x="552" y="538" on="0"/>
        <pt x="440" y="415" on="0"/>
        <pt x="349" y="394" on="1"/>
        <pt x="401" y="286" on="0"/>
        <pt x="564" y="16" on="0"/>
        <pt x="634" y="-78" on="1"/>
        <pt x="599" y="-113" on="1"/>
        <pt x="401" y="102" on="0"/>
        <pt x="244" y="383" on="1"/>
        <pt x="277" y="418" on="1"/>
        <pt x="316" y="418" on="1"/>
        <pt x="392" y="418" on="0"/>
        <pt x="477" y="499" on="0"/>
        <pt x="477" y="617" on="0"/>
        <pt x="380" y="705" on="0"/>
        <pt x="292" y="705" on="1"/>
        <pt x="273" y="705" on="1"/>
        <pt x="262" y="682" on="0"/>
        <pt x="251" y="619" on="0"/>
        <pt x="236" y="526" on="1"/>
        <pt x="213" y="374" on="0"/>
        <pt x="180" y="186" on="1"/>
        <pt x="170" y="128" on="0"/>
        <pt x="104" y="65" on="1"/>
        <pt x="108" y="57" on="1"/>
        <pt x="169" y="57" on="1"/>
        <pt x="241" y="57" on="0"/>
        <pt x="296" y="94" on="1"/>
        <pt x="300" y="86" on="1"/>
        <pt x="267" y="59" on="0"/>
        <pt x="243" y="38" on="0"/>
        <pt x="221" y="20" on="0"/>
        <pt x="209" y="12" on="0"/>
        <pt x="202" y="8" on="1"/>
        <pt x="189" y="-1" on="0"/>
        <pt x="183" y="-1" on="1"/>
        <pt x="61" y="-1" on="0"/>
        <pt x="-5" y="0" on="1"/>
        <pt x="-9" y="8" on="1"/>
        <pt x="78" y="26" on="0"/>
        <pt x="106" y="177" on="1"/>
        <pt x="133" y="325" on="0"/>
        <pt x="175" y="589" on="0"/>
        <pt x="200" y="680" on="0"/>
        <pt x="217" y="702" on="1"/>
        <pt x="105" y="702" on="0"/>
        <pt x="-40" y="553" on="0"/>
        <pt x="-40" y="404" on="1"/>
        <pt x="-105" y="348" on="1"/>
        <pt x="-105" y="522" on="0"/>
        <pt x="-2" y="635" on="1"/>
      </contour>
      <contour>
        <pt x="503" y="954" on="1"/>
        <pt x="507" y="954" on="0"/>
        <pt x="511" y="954" on="1"/>
        <pt x="496" y="915" on="1"/>
        <pt x="467" y="909" on="0"/>
        <pt x="377" y="852" on="0"/>
        <pt x="309" y="773" on="1"/>
        <pt x="295" y="790" on="1"/>
        <pt x="340" y="853" on="0"/>
        <pt x="366" y="884" on="1"/>
        <pt x="426" y="954" on="0"/>
      </contour>
    </TTGlyph>
    <TTGlyph name="Rcaron" xMin="-105" yMin="-113" xMax="634" yMax="960">
      <contour>
        <pt x="50" y="691" on="0"/>
        <pt x="217" y="754" on="0"/>
        <pt x="435" y="754" on="0"/>
        <pt x="552" y="676" on="0"/>
        <pt x="552" y="538" on="0"/>
        <pt x="440" y="415" on="0"/>
        <pt x="349" y="394" on="1"/>
        <pt x="401" y="286" on="0"/>
        <pt x="564" y="16" on="0"/>
        <pt x="634" y="-78" on="1"/>
        <pt x="599" y="-113" on="1"/>
        <pt x="401" y="102" on="0"/>
        <pt x="244" y="383" on="1"/>
        <pt x="277" y="418" on="1"/>
        <pt x="316" y="418" on="1"/>
        <pt x="392" y="418" on="0"/>
        <pt x="477" y="499" on="0"/>
        <pt x="477" y="617" on="0"/>
        <pt x="380" y="705" on="0"/>
        <pt x="292" y="705" on="1"/>
        <pt x="273" y="705" on="1"/>
        <pt x="262" y="682" on="0"/>
        <pt x="251" y="619" on="0"/>
        <pt x="236" y="526" on="1"/>
        <pt x="213" y="374" on="0"/>
        <pt x="180" y="186" on="1"/>
        <pt x="170" y="128" on="0"/>
        <pt x="104" y="65" on="1"/>
        <pt x="108" y="57" on="1"/>
        <pt x="169" y="57" on="1"/>
        <pt x="241" y="57" on="0"/>
        <pt x="296" y="94" on="1"/>
        <pt x="300" y="86" on="1"/>
        <pt x="267" y="59" on="0"/>
        <pt x="243" y="38" on="0"/>
        <pt x="221" y="20" on="0"/>
        <pt x="209" y="12" on="0"/>
        <pt x="202" y="8" on="1"/>
        <pt x="189" y="-1" on="0"/>
        <pt x="183" y="-1" on="1"/>
        <pt x="61" y="-1" on="0"/>
        <pt x="-5" y="0" on="1"/>
        <pt x="-9" y="8" on="1"/>
        <pt x="78" y="26" on="0"/>
        <pt x="106" y="177" on="1"/>
        <pt x="133" y="325" on="0"/>
        <pt x="175" y="589" on="0"/>
        <pt x="200" y="680" on="0"/>
        <pt x="217" y="702" on="1"/>
        <pt x="105" y="702" on="0"/>
        <pt x="-40" y="553" on="0"/>
        <pt x="-40" y="404" on="1"/>
        <pt x="-105" y="348" on="1"/>
        <pt x="-105" y="522" on="0"/>
        <pt x="-2" y="635" on="1"/>
      </contour>
      <contour>
        <pt x="221" y="930" on="1"/>
        <pt x="266" y="951" on="1"/>
        <pt x="329" y="885" on="0"/>
        <pt x="379" y="869" on="1"/>
        <pt x="425" y="892" on="0"/>
        <pt x="505" y="960" on="1"/>
        <pt x="515" y="951" on="1"/>
        <pt x="419" y="846" on="0"/>
        <pt x="351" y="830" on="1"/>
        <pt x="325" y="841" on="0"/>
        <pt x="250" y="897" on="0"/>
      </contour>
    </TTGlyph>
    <TTGlyph name="Rcommaaccent" xMin="-105" yMin="-284" xMax="634" yMax="754">
      <contour>
        <pt x="50" y="691" on="0"/>
        <pt x="217" y="754" on="0"/>
        <pt x="435" y="754" on="0"/>
        <pt x="552" y="676" on="0"/>
        <pt x="552" y="538" on="0"/>
        <pt x="440" y="415" on="0"/>
        <pt x="349" y="394" on="1"/>
        <pt x="401" y="286" on="0"/>
        <pt x="564" y="16" on="0"/>
        <pt x="634" y="-78" on="1"/>
        <pt x="599" y="-113" on="1"/>
        <pt x="401" y="102" on="0"/>
        <pt x="244" y="383" on="1"/>
        <pt x="277" y="418" on="1"/>
        <pt x="316" y="418" on="1"/>
        <pt x="392" y="418" on="0"/>
        <pt x="477" y="499" on="0"/>
        <pt x="477" y="617" on="0"/>
        <pt x="380" y="705" on="0"/>
        <pt x="292" y="705" on="1"/>
        <pt x="273" y="705" on="1"/>
        <pt x="262" y="682" on="0"/>
        <pt x="251" y="619" on="0"/>
        <pt x="236" y="526" on="1"/>
        <pt x="213" y="374" on="0"/>
        <pt x="180" y="186" on="1"/>
        <pt x="170" y="128" on="0"/>
        <pt x="104" y="65" on="1"/>
        <pt x="108" y="57" on="1"/>
        <pt x="169" y="57" on="1"/>
        <pt x="241" y="57" on="0"/>
        <pt x="296" y="94" on="1"/>
        <pt x="300" y="86" on="1"/>
        <pt x="267" y="59" on="0"/>
        <pt x="243" y="38" on="0"/>
        <pt x="221" y="20" on="0"/>
        <pt x="209" y="12" on="0"/>
        <pt x="202" y="8" on="1"/>
        <pt x="189" y="-1" on="0"/>
        <pt x="183" y="-1" on="1"/>
        <pt x="61" y="-1" on="0"/>
        <pt x="-5" y="0" on="1"/>
        <pt x="-9" y="8" on="1"/>
        <pt x="78" y="26" on="0"/>
        <pt x="106" y="177" on="1"/>
        <pt x="133" y="325" on="0"/>
        <pt x="175" y="589" on="0"/>
        <pt x="200" y="680" on="0"/>
        <pt x="217" y="702" on="1"/>
        <pt x="105" y="702" on="0"/>
        <pt x="-40" y="553" on="0"/>
        <pt x="-40" y="404" on="1"/>
        <pt x="-105" y="348" on="1"/>
        <pt x="-105" y="522" on="0"/>
        <pt x="-2" y="635" on="1"/>
      </contour>
      <contour>
        <pt x="204" y="-269" on="1"/>
        <pt x="242" y="-220" on="0"/>
        <pt x="242" y="-156" on="0"/>
        <pt x="195" y="-102" on="1"/>
        <pt x="228" y="-64" on="0"/>
        <pt x="265" y="-39" on="1"/>
        <pt x="301" y="-87" on="0"/>
        <pt x="316" y="-117" on="1"/>
        <pt x="314" y="-133" on="0"/>
        <pt x="263" y="-231" on="0"/>
        <pt x="222" y="-284" on="1"/>
      </contour>
    </TTGlyph>
    <TTGlyph name="S" xMin="-25" yMin="-8" xMax="483" yMax="760">
      <contour>
        <pt x="110" y="654" on="0"/>
        <pt x="246" y="760" on="0"/>
        <pt x="413" y="760" on="0"/>
        <pt x="483" y="734" on="1"/>
        <pt x="426" y="668" on="1"/>
        <pt x="360" y="698" on="0"/>
        <pt x="292" y="698" on="1"/>
        <pt x="165" y="698" on="0"/>
        <pt x="165" y="641" on="1"/>
        <pt x="165" y="604" on="0"/>
        <pt x="230" y="501" on="0"/>
        <pt x="308" y="412" on="0"/>
        <pt x="373" y="305" on="0"/>
        <pt x="373" y="266" on="1"/>
        <pt x="373" y="155" on="0"/>
        <pt x="229" y="-8" on="0"/>
        <pt x="34" y="-8" on="0"/>
        <pt x="-25" y="38" on="1"/>
        <pt x="32" y="102" on="1"/>
        <pt x="116" y="49" on="0"/>
        <pt x="183" y="49" on="1"/>
        <pt x="231" y="49" on="0"/>
        <pt x="312" y="135" on="0"/>
        <pt x="312" y="226" on="0"/>
        <pt x="249" y="337" on="0"/>
        <pt x="173" y="426" on="0"/>
        <pt x="110" y="534" on="0"/>
        <pt x="110" y="576" on="1"/>
      </contour>
    </TTGlyph>
    <TTGlyph name="Scaron" xMin="-30" yMin="-8" xMax="478" yMax="966">
      <contour>
        <pt x="180" y="936" on="1"/>
        <pt x="225" y="957" on="1"/>
        <pt x="288" y="891" on="0"/>
        <pt x="338" y="875" on="1"/>
        <pt x="384" y="898" on="0"/>
        <pt x="464" y="966" on="1"/>
        <pt x="474" y="957" on="1"/>
        <pt x="378" y="852" on="0"/>
        <pt x="310" y="836" on="1"/>
        <pt x="284" y="847" on="0"/>
        <pt x="209" y="903" on="0"/>
      </contour>
      <contour>
        <pt x="105" y="654" on="0"/>
        <pt x="241" y="760" on="0"/>
        <pt x="408" y="760" on="0"/>
        <pt x="478" y="734" on="1"/>
        <pt x="421" y="668" on="1"/>
        <pt x="355" y="698" on="0"/>
        <pt x="287" y="698" on="1"/>
        <pt x="160" y="698" on="0"/>
        <pt x="160" y="641" on="1"/>
        <pt x="160" y="604" on="0"/>
        <pt x="225" y="501" on="0"/>
        <pt x="303" y="412" on="0"/>
        <pt x="368" y="305" on="0"/>
        <pt x="368" y="266" on="1"/>
        <pt x="368" y="155" on="0"/>
        <pt x="224" y="-8" on="0"/>
        <pt x="29" y="-8" on="0"/>
        <pt x="-30" y="38" on="1"/>
        <pt x="27" y="102" on="1"/>
        <pt x="111" y="49" on="0"/>
        <pt x="178" y="49" on="1"/>
        <pt x="226" y="49" on="0"/>
        <pt x="307" y="135" on="0"/>
        <pt x="307" y="226" on="0"/>
        <pt x="244" y="337" on="0"/>
        <pt x="168" y="426" on="0"/>
        <pt x="105" y="534" on="0"/>
        <pt x="105" y="576" on="1"/>
      </contour>
    </TTGlyph>
    <TTGlyph name="T" xMin="-6" yMin="-1" xMax="683" yMax="752">
      <contour>
        <pt x="627" y="693" on="1"/>
        <pt x="415" y="694" on="1"/>
        <pt x="408" y="675" on="0"/>
        <pt x="405" y="660" on="1"/>
        <pt x="339" y="252" on="0"/>
        <pt x="327" y="186" on="1"/>
        <pt x="313" y="124" on="0"/>
        <pt x="251" y="65" on="1"/>
        <pt x="255" y="57" on="1"/>
        <pt x="309" y="54" on="1"/>
        <pt x="400" y="54" on="0"/>
        <pt x="455" y="94" on="1"/>
        <pt x="459" y="86" on="1"/>
        <pt x="378" y="24" on="0"/>
        <pt x="342" y="-1" on="1"/>
        <pt x="142" y="0" on="1"/>
        <pt x="138" y="8" on="1"/>
        <pt x="225" y="26" on="0"/>
        <pt x="253" y="177" on="1"/>
        <pt x="271" y="271" on="0"/>
        <pt x="303" y="478" on="0"/>
        <pt x="311" y="529" on="1"/>
        <pt x="331" y="654" on="0"/>
        <pt x="355" y="694" on="1"/>
        <pt x="244" y="694" on="1"/>
        <pt x="144" y="694" on="0"/>
        <pt x="63" y="585" on="0"/>
        <pt x="63" y="452" on="1"/>
        <pt x="-6" y="398" on="1"/>
        <pt x="-6" y="512" on="0"/>
        <pt x="76" y="674" on="0"/>
        <pt x="175" y="731" on="1"/>
        <pt x="202" y="747" on="0"/>
        <pt x="307" y="751" on="0"/>
        <pt x="394" y="751" on="1"/>
        <pt x="551" y="751" on="1"/>
        <pt x="654" y="751" on="0"/>
        <pt x="683" y="752" on="1"/>
      </contour>
    </TTGlyph>
    <TTGlyph name="Thorn" xMin="-9" yMin="-257" xMax="579" yMax="813">
      <contour>
        <pt x="316" y="700" on="0"/>
        <pt x="436" y="813" on="0"/>
        <pt x="579" y="813" on="0"/>
        <pt x="579" y="746" on="1"/>
        <pt x="579" y="668" on="0"/>
        <pt x="441" y="552" on="0"/>
        <pt x="346" y="527" on="1"/>
        <pt x="321" y="358" on="0"/>
        <pt x="313" y="316" on="1"/>
        <pt x="316" y="315" on="1"/>
        <pt x="359" y="389" on="0"/>
        <pt x="474" y="501" on="0"/>
        <pt x="528" y="518" on="1"/>
        <pt x="546" y="489" on="0"/>
        <pt x="559" y="421" on="0"/>
        <pt x="559" y="288" on="0"/>
        <pt x="507" y="125" on="0"/>
        <pt x="404" y="1" on="0"/>
        <pt x="344" y="1" on="1"/>
        <pt x="309" y="1" on="0"/>
        <pt x="280" y="29" on="1"/>
        <pt x="278" y="22" on="0"/>
        <pt x="273" y="1" on="1"/>
        <pt x="211" y="-257" on="0"/>
        <pt x="35" y="-257" on="1"/>
        <pt x="14" y="-257" on="0"/>
        <pt x="-9" y="-251" on="1"/>
        <pt x="29" y="-196" on="1"/>
        <pt x="59" y="-204" on="0"/>
        <pt x="131" y="-204" on="0"/>
        <pt x="190" y="-143" on="0"/>
        <pt x="218" y="34" on="0"/>
        <pt x="240" y="200" on="1"/>
        <pt x="274" y="454" on="0"/>
        <pt x="284" y="515" on="1"/>
        <pt x="271" y="513" on="0"/>
        <pt x="247" y="513" on="1"/>
        <pt x="129" y="513" on="0"/>
        <pt x="52" y="585" on="1"/>
        <pt x="110" y="646" on="1"/>
        <pt x="187" y="567" on="0"/>
        <pt x="292" y="562" on="1"/>
        <pt x="295" y="583" on="0"/>
        <pt x="301" y="614" on="1"/>
      </contour>
      <contour>
        <pt x="346" y="54" on="1"/>
        <pt x="424" y="54" on="0"/>
        <pt x="487" y="185" on="0"/>
        <pt x="487" y="332" on="1"/>
        <pt x="487" y="411" on="0"/>
        <pt x="478" y="429" on="1"/>
        <pt x="478" y="429" on="0"/>
        <pt x="477" y="429" on="1"/>
        <pt x="451" y="429" on="0"/>
        <pt x="323" y="305" on="0"/>
        <pt x="309" y="248" on="1"/>
        <pt x="288" y="161" on="0"/>
        <pt x="283" y="70" on="1"/>
        <pt x="291" y="64" on="0"/>
        <pt x="335" y="54" on="0"/>
      </contour>
      <contour>
        <pt x="525" y="686" on="1"/>
        <pt x="525" y="720" on="0"/>
        <pt x="488" y="765" on="0"/>
        <pt x="455" y="765" on="1"/>
        <pt x="381" y="765" on="0"/>
        <pt x="365" y="659" on="1"/>
        <pt x="359" y="622" on="0"/>
        <pt x="351" y="566" on="1"/>
        <pt x="418" y="576" on="0"/>
        <pt x="525" y="638" on="0"/>
      </contour>
    </TTGlyph>
    <TTGlyph name="U" xMin="-9" yMin="-1" xMax="791" yMax="751">
      <contour>
        <pt x="320" y="750" on="1"/>
        <pt x="414" y="750" on="1"/>
        <pt x="415" y="747" on="1"/>
        <pt x="405" y="740" on="0"/>
        <pt x="377" y="695" on="0"/>
        <pt x="369" y="666" on="1"/>
        <pt x="297" y="274" on="0"/>
        <pt x="297" y="187" on="1"/>
        <pt x="297" y="65" on="0"/>
        <pt x="377" y="65" on="1"/>
        <pt x="411" y="65" on="0"/>
        <pt x="486" y="136" on="0"/>
        <pt x="515" y="186" on="1"/>
        <pt x="577" y="295" on="0"/>
        <pt x="593" y="371" on="1"/>
        <pt x="657" y="694" on="1"/>
        <pt x="664" y="712" on="0"/>
        <pt x="704" y="738" on="0"/>
        <pt x="733" y="746" on="0"/>
        <pt x="758" y="751" on="1"/>
        <pt x="759" y="748" on="1"/>
        <pt x="721" y="724" on="0"/>
        <pt x="710" y="660" on="1"/>
        <pt x="704" y="625" on="0"/>
        <pt x="687" y="528" on="1"/>
        <pt x="630" y="201" on="0"/>
        <pt x="630" y="110" on="0"/>
        <pt x="671" y="66" on="0"/>
        <pt x="740" y="66" on="0"/>
        <pt x="787" y="94" on="1"/>
        <pt x="791" y="86" on="1"/>
        <pt x="737" y="38" on="0"/>
        <pt x="674" y="0" on="1"/>
        <pt x="571" y="1" on="0"/>
        <pt x="571" y="141" on="1"/>
        <pt x="571" y="184" on="0"/>
        <pt x="583" y="256" on="1"/>
        <pt x="578" y="256" on="1"/>
        <pt x="543" y="160" on="0"/>
        <pt x="381" y="-1" on="0"/>
        <pt x="319" y="-1" on="1"/>
        <pt x="224" y="-1" on="0"/>
        <pt x="224" y="159" on="1"/>
        <pt x="224" y="212" on="0"/>
        <pt x="242" y="325" on="0"/>
        <pt x="252" y="398" on="1"/>
        <pt x="268" y="510" on="1"/>
        <pt x="283" y="612" on="0"/>
        <pt x="304" y="678" on="0"/>
        <pt x="314" y="695" on="1"/>
        <pt x="234" y="695" on="1"/>
        <pt x="139" y="695" on="0"/>
        <pt x="60" y="582" on="0"/>
        <pt x="60" y="452" on="1"/>
        <pt x="-9" y="398" on="1"/>
        <pt x="-9" y="512" on="0"/>
        <pt x="73" y="674" on="0"/>
        <pt x="172" y="731" on="1"/>
        <pt x="205" y="750" on="0"/>
      </contour>
    </TTGlyph>
    <TTGlyph name="Uacute" xMin="-9" yMin="-1" xMax="791" yMax="962">
      <contour>
        <pt x="320" y="750" on="1"/>
        <pt x="414" y="750" on="1"/>
        <pt x="415" y="747" on="1"/>
        <pt x="405" y="740" on="0"/>
        <pt x="377" y="695" on="0"/>
        <pt x="369" y="666" on="1"/>
        <pt x="297" y="274" on="0"/>
        <pt x="297" y="187" on="1"/>
        <pt x="297" y="65" on="0"/>
        <pt x="377" y="65" on="1"/>
        <pt x="411" y="65" on="0"/>
        <pt x="486" y="136" on="0"/>
        <pt x="515" y="186" on="1"/>
        <pt x="577" y="295" on="0"/>
        <pt x="593" y="371" on="1"/>
        <pt x="657" y="694" on="1"/>
        <pt x="664" y="712" on="0"/>
        <pt x="704" y="738" on="0"/>
        <pt x="733" y="746" on="0"/>
        <pt x="758" y="751" on="1"/>
        <pt x="759" y="748" on="1"/>
        <pt x="721" y="724" on="0"/>
        <pt x="710" y="660" on="1"/>
        <pt x="704" y="625" on="0"/>
        <pt x="687" y="528" on="1"/>
        <pt x="630" y="201" on="0"/>
        <pt x="630" y="110" on="0"/>
        <pt x="671" y="66" on="0"/>
        <pt x="740" y="66" on="0"/>
        <pt x="787" y="94" on="1"/>
        <pt x="791" y="86" on="1"/>
        <pt x="737" y="38" on="0"/>
        <pt x="674" y="0" on="1"/>
        <pt x="571" y="1" on="0"/>
        <pt x="571" y="141" on="1"/>
        <pt x="571" y="184" on="0"/>
        <pt x="583" y="256" on="1"/>
        <pt x="578" y="256" on="1"/>
        <pt x="543" y="160" on="0"/>
        <pt x="381" y="-1" on="0"/>
        <pt x="319" y="-1" on="1"/>
        <pt x="224" y="-1" on="0"/>
        <pt x="224" y="159" on="1"/>
        <pt x="224" y="212" on="0"/>
        <pt x="242" y="325" on="0"/>
        <pt x="252" y="398" on="1"/>
        <pt x="268" y="510" on="1"/>
        <pt x="283" y="612" on="0"/>
        <pt x="304" y="678" on="0"/>
        <pt x="314" y="695" on="1"/>
        <pt x="234" y="695" on="1"/>
        <pt x="139" y="695" on="0"/>
        <pt x="60" y="582" on="0"/>
        <pt x="60" y="452" on="1"/>
        <pt x="-9" y="398" on="1"/>
        <pt x="-9" y="512" on="0"/>
        <pt x="73" y="674" on="0"/>
        <pt x="172" y="731" on="1"/>
        <pt x="205" y="750" on="0"/>
      </contour>
      <contour>
        <pt x="687" y="961" on="1"/>
        <pt x="691" y="961" on="0"/>
        <pt x="695" y="961" on="1"/>
        <pt x="680" y="922" on="1"/>
        <pt x="651" y="916" on="0"/>
        <pt x="561" y="859" on="0"/>
        <pt x="493" y="780" on="1"/>
        <pt x="479" y="797" on="1"/>
        <pt x="524" y="860" on="0"/>
        <pt x="550" y="891" on="1"/>
        <pt x="610" y="961" on="0"/>
      </contour>
    </TTGlyph>
    <TTGlyph name="Ucircumflex" xMin="-9" yMin="-1" xMax="791" yMax="926">
      <contour>
        <pt x="320" y="750" on="1"/>
        <pt x="414" y="750" on="1"/>
        <pt x="415" y="747" on="1"/>
        <pt x="405" y="740" on="0"/>
        <pt x="377" y="695" on="0"/>
        <pt x="369" y="666" on="1"/>
        <pt x="297" y="274" on="0"/>
        <pt x="297" y="187" on="1"/>
        <pt x="297" y="65" on="0"/>
        <pt x="377" y="65" on="1"/>
        <pt x="411" y="65" on="0"/>
        <pt x="486" y="136" on="0"/>
        <pt x="515" y="186" on="1"/>
        <pt x="577" y="295" on="0"/>
        <pt x="593" y="371" on="1"/>
        <pt x="657" y="694" on="1"/>
        <pt x="664" y="712" on="0"/>
        <pt x="704" y="738" on="0"/>
        <pt x="733" y="746" on="0"/>
        <pt x="758" y="751" on="1"/>
        <pt x="759" y="748" on="1"/>
        <pt x="721" y="724" on="0"/>
        <pt x="710" y="660" on="1"/>
        <pt x="704" y="625" on="0"/>
        <pt x="687" y="528" on="1"/>
        <pt x="630" y="201" on="0"/>
        <pt x="630" y="110" on="0"/>
        <pt x="671" y="66" on="0"/>
        <pt x="740" y="66" on="0"/>
        <pt x="787" y="94" on="1"/>
        <pt x="791" y="86" on="1"/>
        <pt x="737" y="38" on="0"/>
        <pt x="674" y="0" on="1"/>
        <pt x="571" y="1" on="0"/>
        <pt x="571" y="141" on="1"/>
        <pt x="571" y="184" on="0"/>
        <pt x="583" y="256" on="1"/>
        <pt x="578" y="256" on="1"/>
        <pt x="543" y="160" on="0"/>
        <pt x="381" y="-1" on="0"/>
        <pt x="319" y="-1" on="1"/>
        <pt x="224" y="-1" on="0"/>
        <pt x="224" y="159" on="1"/>
        <pt x="224" y="212" on="0"/>
        <pt x="242" y="325" on="0"/>
        <pt x="252" y="398" on="1"/>
        <pt x="268" y="510" on="1"/>
        <pt x="283" y="612" on="0"/>
        <pt x="304" y="678" on="0"/>
        <pt x="314" y="695" on="1"/>
        <pt x="234" y="695" on="1"/>
        <pt x="139" y="695" on="0"/>
        <pt x="60" y="582" on="0"/>
        <pt x="60" y="452" on="1"/>
        <pt x="-9" y="398" on="1"/>
        <pt x="-9" y="512" on="0"/>
        <pt x="73" y="674" on="0"/>
        <pt x="172" y="731" on="1"/>
        <pt x="205" y="750" on="0"/>
      </contour>
      <contour>
        <pt x="586" y="926" on="1"/>
        <pt x="609" y="917" on="0"/>
        <pt x="684" y="863" on="0"/>
        <pt x="702" y="844" on="1"/>
        <pt x="667" y="811" on="1"/>
        <pt x="603" y="873" on="0"/>
        <pt x="558" y="887" on="1"/>
        <pt x="512" y="864" on="0"/>
        <pt x="452" y="813" on="1"/>
        <pt x="442" y="822" on="1"/>
        <pt x="482" y="866" on="0"/>
        <pt x="547" y="917" on="0"/>
      </contour>
    </TTGlyph>
    <TTGlyph name="Udieresis" xMin="-9" yMin="-1" xMax="791" yMax="921">
      <contour>
        <pt x="320" y="750" on="1"/>
        <pt x="414" y="750" on="1"/>
        <pt x="415" y="747" on="1"/>
        <pt x="405" y="740" on="0"/>
        <pt x="377" y="695" on="0"/>
        <pt x="369" y="666" on="1"/>
        <pt x="297" y="274" on="0"/>
        <pt x="297" y="187" on="1"/>
        <pt x="297" y="65" on="0"/>
        <pt x="377" y="65" on="1"/>
        <pt x="411" y="65" on="0"/>
        <pt x="486" y="136" on="0"/>
        <pt x="515" y="186" on="1"/>
        <pt x="577" y="295" on="0"/>
        <pt x="593" y="371" on="1"/>
        <pt x="657" y="694" on="1"/>
        <pt x="664" y="712" on="0"/>
        <pt x="704" y="738" on="0"/>
        <pt x="733" y="746" on="0"/>
        <pt x="758" y="751" on="1"/>
        <pt x="759" y="748" on="1"/>
        <pt x="721" y="724" on="0"/>
        <pt x="710" y="660" on="1"/>
        <pt x="704" y="625" on="0"/>
        <pt x="687" y="528" on="1"/>
        <pt x="630" y="201" on="0"/>
        <pt x="630" y="110" on="0"/>
        <pt x="671" y="66" on="0"/>
        <pt x="740" y="66" on="0"/>
        <pt x="787" y="94" on="1"/>
        <pt x="791" y="86" on="1"/>
        <pt x="737" y="38" on="0"/>
        <pt x="674" y="0" on="1"/>
        <pt x="571" y="1" on="0"/>
        <pt x="571" y="141" on="1"/>
        <pt x="571" y="184" on="0"/>
        <pt x="583" y="256" on="1"/>
        <pt x="578" y="256" on="1"/>
        <pt x="543" y="160" on="0"/>
        <pt x="381" y="-1" on="0"/>
        <pt x="319" y="-1" on="1"/>
        <pt x="224" y="-1" on="0"/>
        <pt x="224" y="159" on="1"/>
        <pt x="224" y="212" on="0"/>
        <pt x="242" y="325" on="0"/>
        <pt x="252" y="398" on="1"/>
        <pt x="268" y="510" on="1"/>
        <pt x="283" y="612" on="0"/>
        <pt x="304" y="678" on="0"/>
        <pt x="314" y="695" on="1"/>
        <pt x="234" y="695" on="1"/>
        <pt x="139" y="695" on="0"/>
        <pt x="60" y="582" on="0"/>
        <pt x="60" y="452" on="1"/>
        <pt x="-9" y="398" on="1"/>
        <pt x="-9" y="512" on="0"/>
        <pt x="73" y="674" on="0"/>
        <pt x="172" y="731" on="1"/>
        <pt x="205" y="750" on="0"/>
      </contour>
      <contour>
        <pt x="403" y="871" on="1"/>
        <pt x="457" y="921" on="1"/>
        <pt x="490" y="895" on="0"/>
        <pt x="505" y="869" on="1"/>
        <pt x="454" y="814" on="1"/>
        <pt x="417" y="859" on="0"/>
      </contour>
      <contour>
        <pt x="592" y="871" on="1"/>
        <pt x="646" y="921" on="1"/>
        <pt x="674" y="903" on="0"/>
        <pt x="693" y="869" on="1"/>
        <pt x="648" y="814" on="1"/>
        <pt x="618" y="852" on="0"/>
      </contour>
    </TTGlyph>
    <TTGlyph name="Ugrave" xMin="-9" yMin="-1" xMax="791" yMax="959">
      <contour>
        <pt x="320" y="750" on="1"/>
        <pt x="414" y="750" on="1"/>
        <pt x="415" y="747" on="1"/>
        <pt x="405" y="740" on="0"/>
        <pt x="377" y="695" on="0"/>
        <pt x="369" y="666" on="1"/>
        <pt x="297" y="274" on="0"/>
        <pt x="297" y="187" on="1"/>
        <pt x="297" y="65" on="0"/>
        <pt x="377" y="65" on="1"/>
        <pt x="411" y="65" on="0"/>
        <pt x="486" y="136" on="0"/>
        <pt x="515" y="186" on="1"/>
        <pt x="577" y="295" on="0"/>
        <pt x="593" y="371" on="1"/>
        <pt x="657" y="694" on="1"/>
        <pt x="664" y="712" on="0"/>
        <pt x="704" y="738" on="0"/>
        <pt x="733" y="746" on="0"/>
        <pt x="758" y="751" on="1"/>
        <pt x="759" y="748" on="1"/>
        <pt x="721" y="724" on="0"/>
        <pt x="710" y="660" on="1"/>
        <pt x="704" y="625" on="0"/>
        <pt x="687" y="528" on="1"/>
        <pt x="630" y="201" on="0"/>
        <pt x="630" y="110" on="0"/>
        <pt x="671" y="66" on="0"/>
        <pt x="740" y="66" on="0"/>
        <pt x="787" y="94" on="1"/>
        <pt x="791" y="86" on="1"/>
        <pt x="737" y="38" on="0"/>
        <pt x="674" y="0" on="1"/>
        <pt x="571" y="1" on="0"/>
        <pt x="571" y="141" on="1"/>
        <pt x="571" y="184" on="0"/>
        <pt x="583" y="256" on="1"/>
        <pt x="578" y="256" on="1"/>
        <pt x="543" y="160" on="0"/>
        <pt x="381" y="-1" on="0"/>
        <pt x="319" y="-1" on="1"/>
        <pt x="224" y="-1" on="0"/>
        <pt x="224" y="159" on="1"/>
        <pt x="224" y="212" on="0"/>
        <pt x="242" y="325" on="0"/>
        <pt x="252" y="398" on="1"/>
        <pt x="268" y="510" on="1"/>
        <pt x="283" y="612" on="0"/>
        <pt x="304" y="678" on="0"/>
        <pt x="314" y="695" on="1"/>
        <pt x="234" y="695" on="1"/>
        <pt x="139" y="695" on="0"/>
        <pt x="60" y="582" on="0"/>
        <pt x="60" y="452" on="1"/>
        <pt x="-9" y="398" on="1"/>
        <pt x="-9" y="512" on="0"/>
        <pt x="73" y="674" on="0"/>
        <pt x="172" y="731" on="1"/>
        <pt x="205" y="750" on="0"/>
      </contour>
      <contour>
        <pt x="397" y="958" on="1"/>
        <pt x="474" y="958" on="0"/>
        <pt x="534" y="888" on="1"/>
        <pt x="560" y="857" on="0"/>
        <pt x="605" y="794" on="1"/>
        <pt x="590" y="776" on="1"/>
        <pt x="515" y="863" on="0"/>
        <pt x="467" y="892" on="1"/>
        <pt x="450" y="902" on="0"/>
        <pt x="406" y="919" on="0"/>
        <pt x="404" y="919" on="1"/>
        <pt x="389" y="958" on="1"/>
        <pt x="393" y="958" on="0"/>
      </contour>
    </TTGlyph>
    <TTGlyph name="V" xMin="-15" yMin="-9" xMax="753" yMax="757">
      <contour>
        <pt x="278" y="757" on="1"/>
        <pt x="330" y="757" on="0"/>
        <pt x="359" y="708" on="1"/>
        <pt x="391" y="653" on="0"/>
        <pt x="410" y="529" on="0"/>
        <pt x="419" y="442" on="0"/>
        <pt x="422" y="378" on="1"/>
        <pt x="425" y="290" on="0"/>
        <pt x="425" y="134" on="1"/>
        <pt x="434" y="165" on="0"/>
        <pt x="474" y="244" on="0"/>
        <pt x="536" y="360" on="1"/>
        <pt x="678" y="627" on="0"/>
        <pt x="678" y="661" on="1"/>
        <pt x="678" y="684" on="0"/>
        <pt x="642" y="684" on="1"/>
        <pt x="585" y="684" on="1"/>
        <pt x="584" y="688" on="1"/>
        <pt x="657" y="733" on="1"/>
        <pt x="696" y="733" on="1"/>
        <pt x="753" y="733" on="0"/>
        <pt x="753" y="693" on="1"/>
        <pt x="753" y="667" on="0"/>
        <pt x="657" y="483" on="0"/>
        <pt x="603" y="384" on="0"/>
        <pt x="544" y="278" on="0"/>
        <pt x="458" y="123" on="0"/>
        <pt x="414" y="28" on="1"/>
        <pt x="347" y="-9" on="1"/>
        <pt x="358" y="74" on="0"/>
        <pt x="358" y="295" on="0"/>
        <pt x="345" y="457" on="0"/>
        <pt x="317" y="609" on="0"/>
        <pt x="262" y="700" on="0"/>
        <pt x="225" y="700" on="1"/>
        <pt x="170" y="700" on="0"/>
        <pt x="117" y="653" on="1"/>
        <pt x="89" y="628" on="0"/>
        <pt x="54" y="524" on="0"/>
        <pt x="54" y="453" on="1"/>
        <pt x="23" y="432" on="0"/>
        <pt x="-15" y="399" on="1"/>
        <pt x="-15" y="543" on="0"/>
        <pt x="159" y="757" on="0"/>
      </contour>
    </TTGlyph>
    <TTGlyph name="W" xMin="-15" yMin="-10" xMax="1016" yMax="757">
      <contour>
        <pt x="278" y="757" on="1"/>
        <pt x="421" y="757" on="0"/>
        <pt x="421" y="361" on="1"/>
        <pt x="421" y="259" on="0"/>
        <pt x="412" y="153" on="1"/>
        <pt x="468" y="252" on="0"/>
        <pt x="618" y="620" on="0"/>
        <pt x="644" y="681" on="1"/>
        <pt x="761" y="753" on="1"/>
        <pt x="767" y="746" on="1"/>
        <pt x="694" y="660" on="0"/>
        <pt x="694" y="492" on="1"/>
        <pt x="694" y="398" on="0"/>
        <pt x="720" y="136" on="1"/>
        <pt x="771" y="204" on="0"/>
        <pt x="924" y="555" on="0"/>
        <pt x="924" y="637" on="1"/>
        <pt x="924" y="684" on="0"/>
        <pt x="892" y="684" on="1"/>
        <pt x="845" y="684" on="1"/>
        <pt x="844" y="688" on="1"/>
        <pt x="920" y="733" on="1"/>
        <pt x="959" y="733" on="1"/>
        <pt x="1016" y="733" on="0"/>
        <pt x="1016" y="705" on="1"/>
        <pt x="1016" y="701" on="1"/>
        <pt x="999" y="615" on="0"/>
        <pt x="910" y="390" on="0"/>
        <pt x="872" y="316" on="1"/>
        <pt x="816" y="204" on="0"/>
        <pt x="720" y="25" on="1"/>
        <pt x="684" y="-10" on="1"/>
        <pt x="654" y="144" on="0"/>
        <pt x="631" y="338" on="0"/>
        <pt x="631" y="482" on="1"/>
        <pt x="631" y="537" on="1"/>
        <pt x="551" y="342" on="0"/>
        <pt x="475" y="182" on="0"/>
        <pt x="393" y="28" on="1"/>
        <pt x="324" y="-9" on="1"/>
        <pt x="331" y="48" on="1"/>
        <pt x="346" y="166" on="0"/>
        <pt x="346" y="318" on="1"/>
        <pt x="346" y="700" on="0"/>
        <pt x="225" y="700" on="1"/>
        <pt x="170" y="700" on="0"/>
        <pt x="117" y="653" on="1"/>
        <pt x="89" y="628" on="0"/>
        <pt x="54" y="524" on="0"/>
        <pt x="54" y="453" on="1"/>
        <pt x="23" y="432" on="0"/>
        <pt x="-15" y="399" on="1"/>
        <pt x="-15" y="543" on="0"/>
        <pt x="159" y="757" on="0"/>
      </contour>
    </TTGlyph>
    <TTGlyph name="X" xMin="-20" yMin="-8" xMax="821" yMax="757">
      <contour>
        <pt x="640" y="729" on="0"/>
        <pt x="699" y="757" on="0"/>
        <pt x="784" y="757" on="0"/>
        <pt x="821" y="737" on="1"/>
        <pt x="772" y="676" on="1"/>
        <pt x="718" y="714" on="0"/>
        <pt x="689" y="714" on="1"/>
        <pt x="650" y="714" on="0"/>
        <pt x="615" y="655" on="1"/>
        <pt x="589" y="611" on="0"/>
        <pt x="478" y="407" on="1"/>
        <pt x="484" y="379" on="1"/>
        <pt x="505" y="274" on="0"/>
        <pt x="595" y="54" on="0"/>
        <pt x="630" y="54" on="1"/>
        <pt x="682" y="54" on="0"/>
        <pt x="767" y="124" on="1"/>
        <pt x="776" y="116" on="1"/>
        <pt x="743" y="77" on="0"/>
        <pt x="648" y="5" on="0"/>
        <pt x="600" y="-8" on="1"/>
        <pt x="510" y="-8" on="0"/>
        <pt x="423" y="309" on="1"/>
        <pt x="358" y="213" on="0"/>
        <pt x="301" y="148" on="1"/>
        <pt x="211" y="44" on="0"/>
        <pt x="115" y="13" on="1"/>
        <pt x="76" y="0" on="0"/>
        <pt x="41" y="0" on="1"/>
        <pt x="-20" y="0" on="1"/>
        <pt x="27" y="65" on="1"/>
        <pt x="63" y="56" on="0"/>
        <pt x="151" y="56" on="0"/>
        <pt x="215" y="103" on="0"/>
        <pt x="296" y="216" on="0"/>
        <pt x="405" y="387" on="1"/>
        <pt x="399" y="413" on="1"/>
        <pt x="356" y="608" on="0"/>
        <pt x="321" y="668" on="1"/>
        <pt x="301" y="702" on="0"/>
        <pt x="277" y="718" on="1"/>
        <pt x="205" y="718" on="0"/>
        <pt x="136" y="617" on="0"/>
        <pt x="136" y="508" on="1"/>
        <pt x="67" y="454" on="1"/>
        <pt x="67" y="581" on="0"/>
        <pt x="195" y="757" on="0"/>
        <pt x="321" y="757" on="1"/>
        <pt x="361" y="757" on="0"/>
        <pt x="386" y="714" on="1"/>
        <pt x="415" y="663" on="0"/>
        <pt x="427" y="620" on="1"/>
        <pt x="443" y="558" on="0"/>
        <pt x="456" y="498" on="1"/>
        <pt x="461" y="475" on="1"/>
        <pt x="464" y="479" on="0"/>
        <pt x="479" y="509" on="0"/>
        <pt x="514" y="569" on="0"/>
        <pt x="543" y="618" on="0"/>
        <pt x="598" y="695" on="0"/>
      </contour>
    </TTGlyph>
    <TTGlyph name="Y" xMin="-15" yMin="-183" xMax="731" yMax="757">
      <contour>
        <pt x="230" y="757" on="1"/>
        <pt x="263" y="757" on="0"/>
        <pt x="320" y="686" on="0"/>
        <pt x="374" y="510" on="0"/>
        <pt x="385" y="464" on="1"/>
        <pt x="416" y="338" on="0"/>
        <pt x="436" y="236" on="1"/>
        <pt x="572" y="473" on="0"/>
        <pt x="655" y="636" on="0"/>
        <pt x="655" y="671" on="0"/>
        <pt x="618" y="684" on="0"/>
        <pt x="563" y="684" on="1"/>
        <pt x="562" y="688" on="1"/>
        <pt x="637" y="733" on="1"/>
        <pt x="676" y="733" on="1"/>
        <pt x="731" y="733" on="0"/>
        <pt x="731" y="693" on="1"/>
        <pt x="731" y="648" on="0"/>
        <pt x="579" y="380" on="1"/>
        <pt x="514" y="266" on="0"/>
        <pt x="512" y="262" on="1"/>
        <pt x="391" y="35" on="0"/>
        <pt x="253" y="-137" on="0"/>
        <pt x="152" y="-183" on="1"/>
        <pt x="77" y="-173" on="0"/>
        <pt x="-15" y="-101" on="1"/>
        <pt x="43" y="-59" on="1"/>
        <pt x="108" y="-119" on="0"/>
        <pt x="170" y="-119" on="1"/>
        <pt x="218" y="-119" on="0"/>
        <pt x="311" y="0" on="0"/>
        <pt x="392" y="154" on="1"/>
        <pt x="385" y="179" on="0"/>
        <pt x="339" y="363" on="0"/>
        <pt x="312" y="464" on="0"/>
        <pt x="291" y="536" on="1"/>
        <pt x="250" y="676" on="0"/>
        <pt x="216" y="718" on="1"/>
        <pt x="149" y="718" on="0"/>
        <pt x="85" y="617" on="0"/>
        <pt x="85" y="508" on="1"/>
        <pt x="16" y="454" on="1"/>
        <pt x="16" y="572" on="0"/>
        <pt x="142" y="757" on="0"/>
      </contour>
    </TTGlyph>
    <TTGlyph name="Yacute" xMin="-19" yMin="-183" xMax="727" yMax="962">
      <contour>
        <pt x="638" y="961" on="1"/>
        <pt x="642" y="961" on="0"/>
        <pt x="646" y="961" on="1"/>
        <pt x="631" y="922" on="1"/>
        <pt x="602" y="916" on="0"/>
        <pt x="512" y="859" on="0"/>
        <pt x="444" y="780" on="1"/>
        <pt x="430" y="797" on="1"/>
        <pt x="475" y="860" on="0"/>
        <pt x="502" y="891" on="1"/>
        <pt x="561" y="961" on="0"/>
      </contour>
      <contour>
        <pt x="226" y="757" on="1"/>
        <pt x="259" y="757" on="0"/>
        <pt x="316" y="686" on="0"/>
        <pt x="370" y="510" on="0"/>
        <pt x="381" y="464" on="1"/>
        <pt x="412" y="338" on="0"/>
        <pt x="432" y="236" on="1"/>
        <pt x="568" y="473" on="0"/>
        <pt x="651" y="636" on="0"/>
        <pt x="651" y="671" on="0"/>
        <pt x="614" y="684" on="0"/>
        <pt x="559" y="684" on="1"/>
        <pt x="558" y="688" on="1"/>
        <pt x="633" y="733" on="1"/>
        <pt x="672" y="733" on="1"/>
        <pt x="727" y="733" on="0"/>
        <pt x="727" y="693" on="1"/>
        <pt x="727" y="648" on="0"/>
        <pt x="575" y="380" on="1"/>
        <pt x="510" y="266" on="0"/>
        <pt x="508" y="262" on="1"/>
        <pt x="387" y="35" on="0"/>
        <pt x="249" y="-137" on="0"/>
        <pt x="148" y="-183" on="1"/>
        <pt x="73" y="-173" on="0"/>
        <pt x="-19" y="-101" on="1"/>
        <pt x="39" y="-59" on="1"/>
        <pt x="104" y="-119" on="0"/>
        <pt x="166" y="-119" on="1"/>
        <pt x="214" y="-119" on="0"/>
        <pt x="307" y="0" on="0"/>
        <pt x="388" y="154" on="1"/>
        <pt x="381" y="179" on="0"/>
        <pt x="335" y="363" on="0"/>
        <pt x="308" y="464" on="0"/>
        <pt x="287" y="536" on="1"/>
        <pt x="246" y="676" on="0"/>
        <pt x="212" y="718" on="1"/>
        <pt x="145" y="718" on="0"/>
        <pt x="81" y="617" on="0"/>
        <pt x="81" y="508" on="1"/>
        <pt x="12" y="454" on="1"/>
        <pt x="12" y="572" on="0"/>
        <pt x="138" y="757" on="0"/>
      </contour>
    </TTGlyph>
    <TTGlyph name="Ydieresis" xMin="-85" yMin="-183" xMax="661" yMax="912">
      <contour>
        <pt x="257" y="862" on="1"/>
        <pt x="311" y="912" on="1"/>
        <pt x="344" y="886" on="0"/>
        <pt x="359" y="860" on="1"/>
        <pt x="308" y="805" on="1"/>
        <pt x="271" y="850" on="0"/>
      </contour>
      <contour>
        <pt x="446" y="862" on="1"/>
        <pt x="500" y="912" on="1"/>
        <pt x="528" y="894" on="0"/>
        <pt x="547" y="860" on="1"/>
        <pt x="502" y="805" on="1"/>
        <pt x="472" y="843" on="0"/>
      </contour>
      <contour>
        <pt x="160" y="757" on="1"/>
        <pt x="193" y="757" on="0"/>
        <pt x="250" y="686" on="0"/>
        <pt x="304" y="510" on="0"/>
        <pt x="315" y="464" on="1"/>
        <pt x="346" y="338" on="0"/>
        <pt x="366" y="236" on="1"/>
        <pt x="502" y="473" on="0"/>
        <pt x="585" y="636" on="0"/>
        <pt x="585" y="671" on="0"/>
        <pt x="548" y="684" on="0"/>
        <pt x="493" y="684" on="1"/>
        <pt x="492" y="688" on="1"/>
        <pt x="567" y="733" on="1"/>
        <pt x="606" y="733" on="1"/>
        <pt x="661" y="733" on="0"/>
        <pt x="661" y="693" on="1"/>
        <pt x="661" y="648" on="0"/>
        <pt x="509" y="380" on="1"/>
        <pt x="444" y="266" on="0"/>
        <pt x="442" y="262" on="1"/>
        <pt x="321" y="35" on="0"/>
        <pt x="183" y="-137" on="0"/>
        <pt x="82" y="-183" on="1"/>
        <pt x="7" y="-173" on="0"/>
        <pt x="-85" y="-101" on="1"/>
        <pt x="-27" y="-59" on="1"/>
        <pt x="38" y="-119" on="0"/>
        <pt x="100" y="-119" on="1"/>
        <pt x="148" y="-119" on="0"/>
        <pt x="241" y="0" on="0"/>
        <pt x="322" y="154" on="1"/>
        <pt x="315" y="179" on="0"/>
        <pt x="269" y="363" on="0"/>
        <pt x="242" y="464" on="0"/>
        <pt x="221" y="536" on="1"/>
        <pt x="180" y="676" on="0"/>
        <pt x="146" y="718" on="1"/>
        <pt x="79" y="718" on="0"/>
        <pt x="15" y="617" on="0"/>
        <pt x="15" y="508" on="1"/>
        <pt x="-54" y="454" on="1"/>
        <pt x="-54" y="572" on="0"/>
        <pt x="72" y="757" on="0"/>
      </contour>
    </TTGlyph>
    <TTGlyph name="Z" xMin="-25" yMin="-142" xMax="651" yMax="759">
      <contour>
        <pt x="124" y="711" on="0"/>
        <pt x="216" y="759" on="0"/>
        <pt x="328" y="759" on="0"/>
        <pt x="462" y="718" on="0"/>
        <pt x="499" y="718" on="1"/>
        <pt x="562" y="718" on="0"/>
        <pt x="644" y="755" on="1"/>
        <pt x="651" y="748" on="1"/>
        <pt x="554" y="660" on="0"/>
        <pt x="372" y="404" on="1"/>
        <pt x="307" y="312" on="0"/>
        <pt x="154" y="134" on="0"/>
        <pt x="98" y="98" on="1"/>
        <pt x="102" y="90" on="1"/>
        <pt x="156" y="90" on="0"/>
        <pt x="274" y="35" on="0"/>
        <pt x="360" y="-30" on="0"/>
        <pt x="476" y="-85" on="0"/>
        <pt x="579" y="-85" on="0"/>
        <pt x="613" y="-31" on="1"/>
        <pt x="625" y="-34" on="1"/>
        <pt x="612" y="-81" on="0"/>
        <pt x="517" y="-142" on="0"/>
        <pt x="417" y="-142" on="0"/>
        <pt x="300" y="-82" on="0"/>
        <pt x="204" y="-9" on="0"/>
        <pt x="85" y="51" on="0"/>
        <pt x="11" y="51" on="0"/>
        <pt x="-21" y="43" on="1"/>
        <pt x="-25" y="51" on="1"/>
        <pt x="108" y="192" on="0"/>
        <pt x="256" y="353" on="0"/>
        <pt x="441" y="576" on="0"/>
        <pt x="502" y="666" on="1"/>
        <pt x="476" y="663" on="0"/>
        <pt x="456" y="663" on="1"/>
        <pt x="401" y="663" on="0"/>
        <pt x="261" y="714" on="0"/>
        <pt x="191" y="714" on="0"/>
        <pt x="170" y="708" on="1"/>
        <pt x="120" y="662" on="0"/>
        <pt x="120" y="539" on="1"/>
        <pt x="51" y="485" on="1"/>
        <pt x="51" y="591" on="0"/>
        <pt x="99" y="670" on="1"/>
      </contour>
    </TTGlyph>
    <TTGlyph name="Zcaron" xMin="-47" yMin="-142" xMax="629" yMax="958">
      <contour>
        <pt x="102" y="711" on="0"/>
        <pt x="194" y="759" on="0"/>
        <pt x="306" y="759" on="0"/>
        <pt x="440" y="718" on="0"/>
        <pt x="477" y="718" on="1"/>
        <pt x="540" y="718" on="0"/>
        <pt x="622" y="755" on="1"/>
        <pt x="629" y="748" on="1"/>
        <pt x="532" y="660" on="0"/>
        <pt x="350" y="404" on="1"/>
        <pt x="285" y="312" on="0"/>
        <pt x="132" y="134" on="0"/>
        <pt x="76" y="98" on="1"/>
        <pt x="80" y="90" on="1"/>
        <pt x="134" y="90" on="0"/>
        <pt x="252" y="35" on="0"/>
        <pt x="338" y="-30" on="0"/>
        <pt x="454" y="-85" on="0"/>
        <pt x="557" y="-85" on="0"/>
        <pt x="591" y="-31" on="1"/>
        <pt x="603" y="-34" on="1"/>
        <pt x="590" y="-81" on="0"/>
        <pt x="495" y="-142" on="0"/>
        <pt x="395" y="-142" on="0"/>
        <pt x="278" y="-82" on="0"/>
        <pt x="182" y="-9" on="0"/>
        <pt x="63" y="51" on="0"/>
        <pt x="-11" y="51" on="0"/>
        <pt x="-43" y="43" on="1"/>
        <pt x="-47" y="51" on="1"/>
        <pt x="86" y="192" on="0"/>
        <pt x="234" y="353" on="0"/>
        <pt x="419" y="576" on="0"/>
        <pt x="480" y="666" on="1"/>
        <pt x="455" y="663" on="0"/>
        <pt x="434" y="663" on="1"/>
        <pt x="379" y="663" on="0"/>
        <pt x="239" y="714" on="0"/>
        <pt x="169" y="714" on="0"/>
        <pt x="148" y="708" on="1"/>
        <pt x="98" y="662" on="0"/>
        <pt x="98" y="539" on="1"/>
        <pt x="29" y="485" on="1"/>
        <pt x="29" y="591" on="0"/>
        <pt x="77" y="670" on="1"/>
      </contour>
      <contour>
        <pt x="292" y="928" on="1"/>
        <pt x="337" y="949" on="1"/>
        <pt x="400" y="883" on="0"/>
        <pt x="450" y="867" on="1"/>
        <pt x="496" y="890" on="0"/>
        <pt x="576" y="958" on="1"/>
        <pt x="586" y="949" on="1"/>
        <pt x="490" y="844" on="0"/>
        <pt x="422" y="828" on="1"/>
        <pt x="396" y="839" on="0"/>
        <pt x="321" y="895" on="0"/>
      </contour>
    </TTGlyph>
    <TTGlyph name="Zdotaccent" xMin="-25" yMin="-142" xMax="651" yMax="961">
      <contour>
        <pt x="124" y="711" on="0"/>
        <pt x="216" y="759" on="0"/>
        <pt x="328" y="759" on="0"/>
        <pt x="462" y="718" on="0"/>
        <pt x="499" y="718" on="1"/>
        <pt x="562" y="718" on="0"/>
        <pt x="644" y="755" on="1"/>
        <pt x="651" y="748" on="1"/>
        <pt x="554" y="660" on="0"/>
        <pt x="372" y="404" on="1"/>
        <pt x="307" y="312" on="0"/>
        <pt x="154" y="134" on="0"/>
        <pt x="98" y="98" on="1"/>
        <pt x="102" y="90" on="1"/>
        <pt x="156" y="90" on="0"/>
        <pt x="274" y="35" on="0"/>
        <pt x="360" y="-30" on="0"/>
        <pt x="476" y="-85" on="0"/>
        <pt x="579" y="-85" on="0"/>
        <pt x="613" y="-31" on="1"/>
        <pt x="625" y="-34" on="1"/>
        <pt x="612" y="-81" on="0"/>
        <pt x="517" y="-142" on="0"/>
        <pt x="417" y="-142" on="0"/>
        <pt x="300" y="-82" on="0"/>
        <pt x="204" y="-9" on="0"/>
        <pt x="85" y="51" on="0"/>
        <pt x="11" y="51" on="0"/>
        <pt x="-21" y="43" on="1"/>
        <pt x="-25" y="51" on="1"/>
        <pt x="108" y="192" on="0"/>
        <pt x="256" y="353" on="0"/>
        <pt x="441" y="576" on="0"/>
        <pt x="502" y="666" on="1"/>
        <pt x="476" y="663" on="0"/>
        <pt x="456" y="663" on="1"/>
        <pt x="401" y="663" on="0"/>
        <pt x="261" y="714" on="0"/>
        <pt x="191" y="714" on="0"/>
        <pt x="170" y="708" on="1"/>
        <pt x="120" y="662" on="0"/>
        <pt x="120" y="539" on="1"/>
        <pt x="51" y="485" on="1"/>
        <pt x="51" y="591" on="0"/>
        <pt x="99" y="670" on="1"/>
      </contour>
      <contour>
        <pt x="377" y="899" on="1"/>
        <pt x="443" y="961" on="1"/>
        <pt x="464" y="944" on="0"/>
        <pt x="504" y="887" on="1"/>
        <pt x="440" y="830" on="1"/>
        <pt x="389" y="889" on="0"/>
      </contour>
    </TTGlyph>
    <TTGlyph name="a" xMin="3" yMin="-15" xMax="483" yMax="500">
      <contour>
        <pt x="254" y="500" on="1"/>
        <pt x="326" y="500" on="0"/>
        <pt x="351" y="495" on="1"/>
        <pt x="345" y="466" on="1"/>
        <pt x="336" y="420" on="0"/>
        <pt x="320" y="328" on="1"/>
        <pt x="295" y="160" on="0"/>
        <pt x="260" y="54" on="1"/>
        <pt x="263" y="52" on="1"/>
        <pt x="350" y="115" on="0"/>
        <pt x="473" y="286" on="1"/>
        <pt x="483" y="279" on="1"/>
        <pt x="411" y="174" on="0"/>
        <pt x="265" y="11" on="0"/>
        <pt x="216" y="-10" on="1"/>
        <pt x="215" y="2" on="0"/>
        <pt x="215" y="73" on="0"/>
        <pt x="225" y="148" on="0"/>
        <pt x="248" y="254" on="0"/>
        <pt x="254" y="288" on="1"/>
        <pt x="251" y="290" on="1"/>
        <pt x="189" y="185" on="0"/>
        <pt x="85" y="46" on="0"/>
        <pt x="16" y="-15" on="1"/>
        <pt x="3" y="30" on="0"/>
        <pt x="3" y="202" on="0"/>
        <pt x="56" y="394" on="0"/>
        <pt x="160" y="500" on="0"/>
      </contour>
      <contour>
        <pt x="137" y="449" on="0"/>
        <pt x="89" y="387" on="0"/>
        <pt x="65" y="191" on="0"/>
        <pt x="65" y="85" on="0"/>
        <pt x="71" y="67" on="1"/>
        <pt x="81" y="67" on="0"/>
        <pt x="125" y="134" on="0"/>
        <pt x="126" y="135" on="1"/>
        <pt x="164" y="182" on="0"/>
        <pt x="279" y="399" on="0"/>
        <pt x="279" y="443" on="1"/>
        <pt x="258" y="449" on="0"/>
        <pt x="217" y="449" on="1"/>
      </contour>
    </TTGlyph>
    <TTGlyph name="aacute" xMin="3" yMin="-15" xMax="483" yMax="759">
      <contour>
        <pt x="254" y="500" on="1"/>
        <pt x="326" y="500" on="0"/>
        <pt x="351" y="495" on="1"/>
        <pt x="345" y="466" on="1"/>
        <pt x="336" y="420" on="0"/>
        <pt x="320" y="328" on="1"/>
        <pt x="295" y="160" on="0"/>
        <pt x="260" y="54" on="1"/>
        <pt x="263" y="52" on="1"/>
        <pt x="350" y="115" on="0"/>
        <pt x="473" y="286" on="1"/>
        <pt x="483" y="279" on="1"/>
        <pt x="411" y="174" on="0"/>
        <pt x="265" y="11" on="0"/>
        <pt x="216" y="-10" on="1"/>
        <pt x="215" y="2" on="0"/>
        <pt x="215" y="73" on="0"/>
        <pt x="225" y="148" on="0"/>
        <pt x="248" y="254" on="0"/>
        <pt x="254" y="288" on="1"/>
        <pt x="251" y="290" on="1"/>
        <pt x="189" y="185" on="0"/>
        <pt x="85" y="46" on="0"/>
        <pt x="16" y="-15" on="1"/>
        <pt x="3" y="30" on="0"/>
        <pt x="3" y="202" on="0"/>
        <pt x="56" y="394" on="0"/>
        <pt x="160" y="500" on="0"/>
      </contour>
      <contour>
        <pt x="137" y="449" on="0"/>
        <pt x="89" y="387" on="0"/>
        <pt x="65" y="191" on="0"/>
        <pt x="65" y="85" on="0"/>
        <pt x="71" y="67" on="1"/>
        <pt x="81" y="67" on="0"/>
        <pt x="125" y="134" on="0"/>
        <pt x="126" y="135" on="1"/>
        <pt x="164" y="182" on="0"/>
        <pt x="279" y="399" on="0"/>
        <pt x="279" y="443" on="1"/>
        <pt x="258" y="449" on="0"/>
        <pt x="217" y="449" on="1"/>
      </contour>
      <contour>
        <pt x="423" y="758" on="1"/>
        <pt x="427" y="758" on="0"/>
        <pt x="431" y="758" on="1"/>
        <pt x="416" y="719" on="1"/>
        <pt x="387" y="713" on="0"/>
        <pt x="297" y="656" on="0"/>
        <pt x="229" y="577" on="1"/>
        <pt x="215" y="594" on="1"/>
        <pt x="260" y="657" on="0"/>
        <pt x="286" y="688" on="1"/>
        <pt x="346" y="758" on="0"/>
      </contour>
    </TTGlyph>
    <TTGlyph name="acircumflex" xMin="3" yMin="-15" xMax="483" yMax="765">
      <contour>
        <pt x="254" y="500" on="1"/>
        <pt x="326" y="500" on="0"/>
        <pt x="351" y="495" on="1"/>
        <pt x="345" y="466" on="1"/>
        <pt x="336" y="420" on="0"/>
        <pt x="320" y="328" on="1"/>
        <pt x="295" y="160" on="0"/>
        <pt x="260" y="54" on="1"/>
        <pt x="263" y="52" on="1"/>
        <pt x="350" y="115" on="0"/>
        <pt x="473" y="286" on="1"/>
        <pt x="483" y="279" on="1"/>
        <pt x="411" y="174" on="0"/>
        <pt x="265" y="11" on="0"/>
        <pt x="216" y="-10" on="1"/>
        <pt x="215" y="2" on="0"/>
        <pt x="215" y="73" on="0"/>
        <pt x="225" y="148" on="0"/>
        <pt x="248" y="254" on="0"/>
        <pt x="254" y="288" on="1"/>
        <pt x="251" y="290" on="1"/>
        <pt x="189" y="185" on="0"/>
        <pt x="85" y="46" on="0"/>
        <pt x="16" y="-15" on="1"/>
        <pt x="3" y="30" on="0"/>
        <pt x="3" y="202" on="0"/>
        <pt x="56" y="394" on="0"/>
        <pt x="160" y="500" on="0"/>
      </contour>
      <contour>
        <pt x="137" y="449" on="0"/>
        <pt x="89" y="387" on="0"/>
        <pt x="65" y="191" on="0"/>
        <pt x="65" y="85" on="0"/>
        <pt x="71" y="67" on="1"/>
        <pt x="81" y="67" on="0"/>
        <pt x="125" y="134" on="0"/>
        <pt x="126" y="135" on="1"/>
        <pt x="164" y="182" on="0"/>
        <pt x="279" y="399" on="0"/>
        <pt x="279" y="443" on="1"/>
        <pt x="258" y="449" on="0"/>
        <pt x="217" y="449" on="1"/>
      </contour>
      <contour>
        <pt x="272" y="765" on="1"/>
        <pt x="295" y="756" on="0"/>
        <pt x="370" y="702" on="0"/>
        <pt x="388" y="683" on="1"/>
        <pt x="353" y="650" on="1"/>
        <pt x="289" y="712" on="0"/>
        <pt x="244" y="726" on="1"/>
        <pt x="198" y="703" on="0"/>
        <pt x="138" y="652" on="1"/>
        <pt x="128" y="661" on="1"/>
        <pt x="168" y="705" on="0"/>
        <pt x="233" y="756" on="0"/>
      </contour>
    </TTGlyph>
    <TTGlyph name="acute" xMin="41" yMin="577" xMax="257" yMax="759">
      <contour>
        <pt x="249" y="758" on="1"/>
        <pt x="253" y="758" on="0"/>
        <pt x="257" y="758" on="1"/>
        <pt x="242" y="719" on="1"/>
        <pt x="213" y="713" on="0"/>
        <pt x="123" y="656" on="0"/>
        <pt x="55" y="577" on="1"/>
        <pt x="41" y="594" on="1"/>
        <pt x="86" y="657" on="0"/>
        <pt x="112" y="688" on="1"/>
        <pt x="172" y="758" on="0"/>
      </contour>
    </TTGlyph>
    <TTGlyph name="adieresis" xMin="3" yMin="-15" xMax="483" yMax="759">
      <contour>
        <pt x="254" y="500" on="1"/>
        <pt x="326" y="500" on="0"/>
        <pt x="351" y="495" on="1"/>
        <pt x="345" y="466" on="1"/>
        <pt x="336" y="420" on="0"/>
        <pt x="320" y="328" on="1"/>
        <pt x="295" y="160" on="0"/>
        <pt x="260" y="54" on="1"/>
        <pt x="263" y="52" on="1"/>
        <pt x="350" y="115" on="0"/>
        <pt x="473" y="286" on="1"/>
        <pt x="483" y="279" on="1"/>
        <pt x="411" y="174" on="0"/>
        <pt x="265" y="11" on="0"/>
        <pt x="216" y="-10" on="1"/>
        <pt x="215" y="2" on="0"/>
        <pt x="215" y="73" on="0"/>
        <pt x="225" y="148" on="0"/>
        <pt x="248" y="254" on="0"/>
        <pt x="254" y="288" on="1"/>
        <pt x="251" y="290" on="1"/>
        <pt x="189" y="185" on="0"/>
        <pt x="85" y="46" on="0"/>
        <pt x="16" y="-15" on="1"/>
        <pt x="3" y="30" on="0"/>
        <pt x="3" y="202" on="0"/>
        <pt x="56" y="394" on="0"/>
        <pt x="160" y="500" on="0"/>
      </contour>
      <contour>
        <pt x="137" y="449" on="0"/>
        <pt x="89" y="387" on="0"/>
        <pt x="65" y="191" on="0"/>
        <pt x="65" y="85" on="0"/>
        <pt x="71" y="67" on="1"/>
        <pt x="81" y="67" on="0"/>
        <pt x="125" y="134" on="0"/>
        <pt x="126" y="135" on="1"/>
        <pt x="164" y="182" on="0"/>
        <pt x="279" y="399" on="0"/>
        <pt x="279" y="443" on="1"/>
        <pt x="258" y="449" on="0"/>
        <pt x="217" y="449" on="1"/>
      </contour>
      <contour>
        <pt x="140" y="709" on="1"/>
        <pt x="194" y="759" on="1"/>
        <pt x="227" y="733" on="0"/>
        <pt x="242" y="707" on="1"/>
        <pt x="191" y="652" on="1"/>
        <pt x="154" y="697" on="0"/>
      </contour>
      <contour>
        <pt x="329" y="709" on="1"/>
        <pt x="383" y="759" on="1"/>
        <pt x="411" y="741" on="0"/>
        <pt x="430" y="707" on="1"/>
        <pt x="385" y="652" on="1"/>
        <pt x="355" y="690" on="0"/>
      </contour>
    </TTGlyph>
    <TTGlyph name="ae" xMin="3" yMin="-15" xMax="603" yMax="514">
      <contour>
        <pt x="16" y="-15" on="1"/>
        <pt x="3" y="30" on="0"/>
        <pt x="3" y="202" on="0"/>
        <pt x="61" y="407" on="0"/>
        <pt x="171" y="500" on="0"/>
        <pt x="326" y="500" on="0"/>
        <pt x="351" y="495" on="1"/>
        <pt x="345" y="466" on="1"/>
        <pt x="344" y="460" on="0"/>
        <pt x="336" y="428" on="0"/>
        <pt x="335" y="422" on="1"/>
        <pt x="412" y="514" on="0"/>
        <pt x="474" y="514" on="1"/>
        <pt x="525" y="514" on="0"/>
        <pt x="525" y="474" on="1"/>
        <pt x="525" y="377" on="0"/>
        <pt x="304" y="230" on="1"/>
        <pt x="303" y="219" on="0"/>
        <pt x="303" y="202" on="1"/>
        <pt x="303" y="97" on="0"/>
        <pt x="372" y="40" on="1"/>
        <pt x="469" y="114" on="0"/>
        <pt x="593" y="287" on="1"/>
        <pt x="603" y="280" on="1"/>
        <pt x="531" y="175" on="0"/>
        <pt x="385" y="12" on="0"/>
        <pt x="336" y="-9" on="1"/>
        <pt x="286" y="3" on="0"/>
        <pt x="236" y="114" on="0"/>
        <pt x="236" y="242" on="0"/>
        <pt x="254" y="288" on="1"/>
        <pt x="251" y="290" on="1"/>
        <pt x="189" y="185" on="0"/>
        <pt x="85" y="46" on="0"/>
      </contour>
      <contour>
        <pt x="279" y="443" on="1"/>
        <pt x="258" y="449" on="0"/>
        <pt x="161" y="449" on="0"/>
        <pt x="109" y="422" on="0"/>
        <pt x="85" y="355" on="0"/>
        <pt x="65" y="191" on="0"/>
        <pt x="65" y="85" on="0"/>
        <pt x="71" y="67" on="1"/>
        <pt x="81" y="67" on="0"/>
        <pt x="125" y="134" on="0"/>
        <pt x="126" y="135" on="1"/>
        <pt x="164" y="182" on="0"/>
        <pt x="279" y="399" on="0"/>
      </contour>
      <contour>
        <pt x="440" y="465" on="1"/>
        <pt x="389" y="465" on="0"/>
        <pt x="324" y="348" on="0"/>
        <pt x="309" y="254" on="1"/>
        <pt x="371" y="294" on="0"/>
        <pt x="467" y="408" on="0"/>
        <pt x="467" y="444" on="1"/>
        <pt x="467" y="465" on="0"/>
      </contour>
    </TTGlyph>
    <TTGlyph name="agrave" xMin="1" yMin="-15" xMax="481" yMax="759">
      <contour>
        <pt x="252" y="500" on="1"/>
        <pt x="324" y="500" on="0"/>
        <pt x="349" y="495" on="1"/>
        <pt x="343" y="466" on="1"/>
        <pt x="334" y="420" on="0"/>
        <pt x="318" y="328" on="1"/>
        <pt x="293" y="160" on="0"/>
        <pt x="258" y="54" on="1"/>
        <pt x="261" y="52" on="1"/>
        <pt x="348" y="115" on="0"/>
        <pt x="471" y="286" on="1"/>
        <pt x="481" y="279" on="1"/>
        <pt x="409" y="174" on="0"/>
        <pt x="263" y="11" on="0"/>
        <pt x="214" y="-10" on="1"/>
        <pt x="213" y="2" on="0"/>
        <pt x="213" y="73" on="0"/>
        <pt x="223" y="148" on="0"/>
        <pt x="246" y="254" on="0"/>
        <pt x="252" y="288" on="1"/>
        <pt x="249" y="290" on="1"/>
        <pt x="187" y="185" on="0"/>
        <pt x="83" y="46" on="0"/>
        <pt x="14" y="-15" on="1"/>
        <pt x="1" y="30" on="0"/>
        <pt x="1" y="202" on="0"/>
        <pt x="54" y="394" on="0"/>
        <pt x="158" y="500" on="0"/>
      </contour>
      <contour>
        <pt x="135" y="449" on="0"/>
        <pt x="87" y="387" on="0"/>
        <pt x="63" y="191" on="0"/>
        <pt x="63" y="85" on="0"/>
        <pt x="69" y="67" on="1"/>
        <pt x="79" y="67" on="0"/>
        <pt x="123" y="134" on="0"/>
        <pt x="124" y="135" on="1"/>
        <pt x="162" y="182" on="0"/>
        <pt x="277" y="399" on="0"/>
        <pt x="277" y="443" on="1"/>
        <pt x="256" y="449" on="0"/>
        <pt x="215" y="449" on="1"/>
      </contour>
      <contour>
        <pt x="112" y="758" on="1"/>
        <pt x="189" y="758" on="0"/>
        <pt x="248" y="688" on="1"/>
        <pt x="275" y="657" on="0"/>
        <pt x="320" y="594" on="1"/>
        <pt x="305" y="576" on="1"/>
        <pt x="230" y="663" on="0"/>
        <pt x="182" y="692" on="1"/>
        <pt x="165" y="702" on="0"/>
        <pt x="121" y="719" on="0"/>
        <pt x="119" y="719" on="1"/>
        <pt x="104" y="758" on="1"/>
        <pt x="108" y="758" on="0"/>
      </contour>
    </TTGlyph>
    <TTGlyph name="ampersand" xMin="38" yMin="-10" xMax="766" yMax="751">
      <contour>
        <pt x="38" y="358" on="0"/>
        <pt x="104" y="540" on="0"/>
        <pt x="203" y="670" on="0"/>
        <pt x="317" y="751" on="0"/>
        <pt x="400" y="751" on="0"/>
        <pt x="445" y="711" on="0"/>
        <pt x="445" y="673" on="1"/>
        <pt x="445" y="600" on="0"/>
        <pt x="276" y="497" on="1"/>
        <pt x="420" y="510" on="0"/>
        <pt x="543" y="510" on="1"/>
        <pt x="548" y="510" on="0"/>
        <pt x="677" y="507" on="1"/>
        <pt x="616" y="449" on="1"/>
        <pt x="590" y="451" on="0"/>
        <pt x="479" y="451" on="1"/>
        <pt x="476" y="434" on="0"/>
        <pt x="463" y="378" on="1"/>
        <pt x="435" y="257" on="0"/>
        <pt x="435" y="193" on="1"/>
        <pt x="435" y="68" on="0"/>
        <pt x="516" y="52" on="1"/>
        <pt x="565" y="86" on="0"/>
        <pt x="698" y="231" on="0"/>
        <pt x="757" y="311" on="1"/>
        <pt x="766" y="305" on="1"/>
        <pt x="686" y="193" on="0"/>
        <pt x="520" y="12" on="0"/>
        <pt x="465" y="-10" on="1"/>
        <pt x="440" y="-10" on="0"/>
        <pt x="381" y="49" on="0"/>
        <pt x="371" y="110" on="1"/>
        <pt x="290" y="13" on="0"/>
        <pt x="230" y="-8" on="1"/>
        <pt x="176" y="-8" on="0"/>
        <pt x="98" y="38" on="0"/>
        <pt x="78" y="78" on="1"/>
        <pt x="38" y="157" on="0"/>
      </contour>
      <contour>
        <pt x="368" y="157" on="1"/>
        <pt x="368" y="315" on="0"/>
        <pt x="422" y="450" on="1"/>
        <pt x="269" y="450" on="0"/>
        <pt x="136" y="421" on="1"/>
        <pt x="131" y="419" on="0"/>
        <pt x="123" y="415" on="1"/>
        <pt x="109" y="356" on="0"/>
        <pt x="109" y="299" on="1"/>
        <pt x="109" y="179" on="0"/>
        <pt x="183" y="67" on="0"/>
        <pt x="253" y="55" on="1"/>
        <pt x="297" y="65" on="0"/>
        <pt x="368" y="135" on="1"/>
      </contour>
      <contour>
        <pt x="133" y="451" on="1"/>
        <pt x="200" y="482" on="0"/>
        <pt x="208" y="490" on="1"/>
        <pt x="209" y="490" on="1"/>
        <pt x="367" y="579" on="0"/>
        <pt x="370" y="641" on="1"/>
        <pt x="370" y="665" on="0"/>
        <pt x="343" y="693" on="0"/>
        <pt x="317" y="693" on="1"/>
        <pt x="273" y="693" on="0"/>
        <pt x="164" y="550" on="0"/>
      </contour>
    </TTGlyph>
    <TTGlyph name="approxequal" xMin="80" yMin="140" xMax="676" yMax="466">
      <contour>
        <pt x="274" y="466" on="1"/>
        <pt x="305" y="466" on="0"/>
        <pt x="494" y="405" on="0"/>
        <pt x="563" y="405" on="1"/>
        <pt x="605" y="405" on="0"/>
        <pt x="663" y="433" on="1"/>
        <pt x="676" y="421" on="1"/>
        <pt x="622" y="354" on="0"/>
        <pt x="538" y="354" on="1"/>
        <pt x="476" y="354" on="0"/>
        <pt x="304" y="412" on="0"/>
        <pt x="264" y="412" on="1"/>
        <pt x="164" y="412" on="0"/>
        <pt x="89" y="357" on="1"/>
        <pt x="80" y="375" on="1"/>
        <pt x="195" y="466" on="0"/>
      </contour>
      <contour>
        <pt x="274" y="252" on="1"/>
        <pt x="305" y="252" on="0"/>
        <pt x="494" y="191" on="0"/>
        <pt x="563" y="191" on="1"/>
        <pt x="605" y="191" on="0"/>
        <pt x="663" y="219" on="1"/>
        <pt x="676" y="207" on="1"/>
        <pt x="622" y="140" on="0"/>
        <pt x="538" y="140" on="1"/>
        <pt x="476" y="140" on="0"/>
        <pt x="304" y="198" on="0"/>
        <pt x="264" y="198" on="1"/>
        <pt x="164" y="198" on="0"/>
        <pt x="89" y="143" on="1"/>
        <pt x="80" y="161" on="1"/>
        <pt x="195" y="252" on="0"/>
      </contour>
    </TTGlyph>
    <TTGlyph name="aring" xMin="3" yMin="-15" xMax="483" yMax="774">
      <contour>
        <pt x="254" y="500" on="1"/>
        <pt x="326" y="500" on="0"/>
        <pt x="351" y="495" on="1"/>
        <pt x="345" y="466" on="1"/>
        <pt x="336" y="420" on="0"/>
        <pt x="320" y="328" on="1"/>
        <pt x="295" y="160" on="0"/>
        <pt x="260" y="54" on="1"/>
        <pt x="263" y="52" on="1"/>
        <pt x="350" y="115" on="0"/>
        <pt x="473" y="286" on="1"/>
        <pt x="483" y="279" on="1"/>
        <pt x="411" y="174" on="0"/>
        <pt x="265" y="11" on="0"/>
        <pt x="216" y="-10" on="1"/>
        <pt x="215" y="2" on="0"/>
        <pt x="215" y="73" on="0"/>
        <pt x="225" y="148" on="0"/>
        <pt x="248" y="254" on="0"/>
        <pt x="254" y="288" on="1"/>
        <pt x="251" y="290" on="1"/>
        <pt x="189" y="185" on="0"/>
        <pt x="85" y="46" on="0"/>
        <pt x="16" y="-15" on="1"/>
        <pt x="3" y="30" on="0"/>
        <pt x="3" y="202" on="0"/>
        <pt x="56" y="394" on="0"/>
        <pt x="160" y="500" on="0"/>
      </contour>
      <contour>
        <pt x="137" y="449" on="0"/>
        <pt x="89" y="387" on="0"/>
        <pt x="65" y="191" on="0"/>
        <pt x="65" y="85" on="0"/>
        <pt x="71" y="67" on="1"/>
        <pt x="81" y="67" on="0"/>
        <pt x="125" y="134" on="0"/>
        <pt x="126" y="135" on="1"/>
        <pt x="164" y="182" on="0"/>
        <pt x="279" y="399" on="0"/>
        <pt x="279" y="443" on="1"/>
        <pt x="258" y="449" on="0"/>
        <pt x="217" y="449" on="1"/>
      </contour>
      <contour>
        <pt x="316" y="774" on="0"/>
        <pt x="355" y="742" on="0"/>
        <pt x="355" y="686" on="0"/>
        <pt x="311" y="632" on="0"/>
        <pt x="251" y="632" on="0"/>
        <pt x="214" y="664" on="0"/>
        <pt x="214" y="715" on="0"/>
        <pt x="251" y="762" on="0"/>
        <pt x="278" y="774" on="1"/>
      </contour>
      <contour>
        <pt x="298" y="664" on="1"/>
        <pt x="333" y="675" on="0"/>
        <pt x="333" y="721" on="0"/>
        <pt x="298" y="747" on="0"/>
        <pt x="273" y="747" on="1"/>
        <pt x="247" y="733" on="0"/>
        <pt x="241" y="701" on="1"/>
        <pt x="241" y="689" on="0"/>
        <pt x="277" y="664" on="0"/>
      </contour>
    </TTGlyph>
    <TTGlyph name="asciicircum" xMin="54" yMin="292" xMax="591" yMax="697">
      <contour>
        <pt x="347" y="697" on="1"/>
        <pt x="528" y="447" on="0"/>
        <pt x="591" y="336" on="1"/>
        <pt x="546" y="292" on="1"/>
        <pt x="530" y="315" on="0"/>
        <pt x="320" y="614" on="1"/>
        <pt x="235" y="494" on="0"/>
        <pt x="66" y="304" on="1"/>
        <pt x="54" y="318" on="1"/>
        <pt x="190" y="506" on="0"/>
      </contour>
    </TTGlyph>
    <TTGlyph name="asciitilde" xMin="80" yMin="234" xMax="676" yMax="346">
      <contour>
        <pt x="274" y="346" on="1"/>
        <pt x="305" y="346" on="0"/>
        <pt x="494" y="285" on="0"/>
        <pt x="563" y="285" on="1"/>
        <pt x="605" y="285" on="0"/>
        <pt x="663" y="313" on="1"/>
        <pt x="676" y="301" on="1"/>
        <pt x="622" y="234" on="0"/>
        <pt x="538" y="234" on="1"/>
        <pt x="476" y="234" on="0"/>
        <pt x="304" y="292" on="0"/>
        <pt x="264" y="292" on="1"/>
        <pt x="164" y="292" on="0"/>
        <pt x="89" y="237" on="1"/>
        <pt x="80" y="255" on="1"/>
        <pt x="195" y="346" on="0"/>
      </contour>
    </TTGlyph>
    <TTGlyph name="asterisk" xMin="87" yMin="439" xMax="407" yMax="769">
      <contour>
        <pt x="316" y="769" on="1"/>
        <pt x="279" y="644" on="1"/>
        <pt x="286" y="637" on="1"/>
        <pt x="373" y="699" on="0"/>
        <pt x="403" y="717" on="1"/>
        <pt x="407" y="646" on="1"/>
        <pt x="292" y="606" on="1"/>
        <pt x="288" y="592" on="1"/>
        <pt x="380" y="527" on="1"/>
        <pt x="330" y="492" on="1"/>
        <pt x="267" y="561" on="1"/>
        <pt x="257" y="557" on="1"/>
        <pt x="237" y="455" on="1"/>
        <pt x="181" y="439" on="1"/>
        <pt x="222" y="559" on="1"/>
        <pt x="216" y="566" on="1"/>
        <pt x="98" y="511" on="1"/>
        <pt x="87" y="529" on="1"/>
        <pt x="205" y="592" on="1"/>
        <pt x="210" y="610" on="1"/>
        <pt x="177" y="633" on="0"/>
        <pt x="104" y="692" on="1"/>
        <pt x="164" y="721" on="1"/>
        <pt x="235" y="639" on="1"/>
        <pt x="246" y="645" on="1"/>
        <pt x="256" y="744" on="1"/>
      </contour>
    </TTGlyph>
    <TTGlyph name="at" xMin="75" yMin="-75" xMax="810" yMax="698">
      <contour>
        <pt x="408" y="448" on="1"/>
        <pt x="374" y="419" on="0"/>
        <pt x="343" y="291" on="0"/>
        <pt x="343" y="229" on="1"/>
        <pt x="384" y="230" on="0"/>
        <pt x="463" y="305" on="0"/>
        <pt x="514" y="408" on="0"/>
        <pt x="521" y="457" on="1"/>
        <pt x="446" y="457" on="0"/>
      </contour>
      <contour>
        <pt x="530" y="698" on="1"/>
        <pt x="668" y="698" on="0"/>
        <pt x="810" y="549" on="0"/>
        <pt x="810" y="440" on="1"/>
        <pt x="810" y="363" on="0"/>
        <pt x="743" y="222" on="0"/>
        <pt x="612" y="128" on="0"/>
        <pt x="529" y="128" on="1"/>
        <pt x="503" y="128" on="0"/>
        <pt x="480" y="132" on="1"/>
        <pt x="482" y="152" on="0"/>
        <pt x="507" y="293" on="0"/>
        <pt x="507" y="333" on="1"/>
        <pt x="404" y="176" on="0"/>
        <pt x="296" y="132" on="1"/>
        <pt x="284" y="157" on="0"/>
        <pt x="284" y="234" on="1"/>
        <pt x="284" y="239" on="1"/>
        <pt x="284" y="340" on="0"/>
        <pt x="348" y="421" on="1"/>
        <pt x="381" y="463" on="0"/>
        <pt x="425" y="480" on="1"/>
        <pt x="468" y="494" on="0"/>
        <pt x="582" y="494" on="1"/>
        <pt x="602" y="494" on="0"/>
        <pt x="602" y="478" on="1"/>
        <pt x="592" y="430" on="0"/>
        <pt x="531" y="222" on="0"/>
        <pt x="518" y="171" on="1"/>
        <pt x="637" y="189" on="0"/>
        <pt x="756" y="315" on="0"/>
        <pt x="756" y="398" on="1"/>
        <pt x="756" y="525" on="0"/>
        <pt x="617" y="664" on="0"/>
        <pt x="479" y="664" on="1"/>
        <pt x="376" y="664" on="0"/>
        <pt x="218" y="553" on="0"/>
        <pt x="140" y="385" on="0"/>
        <pt x="140" y="291" on="1"/>
        <pt x="140" y="134" on="0"/>
        <pt x="300" y="-43" on="0"/>
        <pt x="468" y="-43" on="1"/>
        <pt x="604" y="-43" on="0"/>
        <pt x="744" y="86" on="1"/>
        <pt x="753" y="74" on="1"/>
        <pt x="617" y="-75" on="0"/>
        <pt x="444" y="-75" on="1"/>
        <pt x="350" y="-75" on="0"/>
        <pt x="204" y="-20" on="0"/>
        <pt x="161" y="27" on="1"/>
        <pt x="75" y="121" on="0"/>
        <pt x="75" y="249" on="1"/>
        <pt x="75" y="329" on="0"/>
        <pt x="138" y="488" on="0"/>
        <pt x="252" y="618" on="0"/>
        <pt x="427" y="698" on="0"/>
      </contour>
    </TTGlyph>
    <TTGlyph name="atilde" xMin="3" yMin="-15" xMax="483" yMax="740">
      <contour>
        <pt x="254" y="500" on="1"/>
        <pt x="326" y="500" on="0"/>
        <pt x="351" y="495" on="1"/>
        <pt x="345" y="466" on="1"/>
        <pt x="336" y="420" on="0"/>
        <pt x="320" y="328" on="1"/>
        <pt x="295" y="160" on="0"/>
        <pt x="260" y="54" on="1"/>
        <pt x="263" y="52" on="1"/>
        <pt x="350" y="115" on="0"/>
        <pt x="473" y="286" on="1"/>
        <pt x="483" y="279" on="1"/>
        <pt x="411" y="174" on="0"/>
        <pt x="265" y="11" on="0"/>
        <pt x="216" y="-10" on="1"/>
        <pt x="215" y="2" on="0"/>
        <pt x="215" y="73" on="0"/>
        <pt x="225" y="148" on="0"/>
        <pt x="248" y="254" on="0"/>
        <pt x="254" y="288" on="1"/>
        <pt x="251" y="290" on="1"/>
        <pt x="189" y="185" on="0"/>
        <pt x="85" y="46" on="0"/>
        <pt x="16" y="-15" on="1"/>
        <pt x="3" y="30" on="0"/>
        <pt x="3" y="202" on="0"/>
        <pt x="56" y="394" on="0"/>
        <pt x="160" y="500" on="0"/>
      </contour>
      <contour>
        <pt x="137" y="449" on="0"/>
        <pt x="89" y="387" on="0"/>
        <pt x="65" y="191" on="0"/>
        <pt x="65" y="85" on="0"/>
        <pt x="71" y="67" on="1"/>
        <pt x="81" y="67" on="0"/>
        <pt x="125" y="134" on="0"/>
        <pt x="126" y="135" on="1"/>
        <pt x="164" y="182" on="0"/>
        <pt x="279" y="399" on="0"/>
        <pt x="279" y="443" on="1"/>
        <pt x="258" y="449" on="0"/>
        <pt x="217" y="449" on="1"/>
      </contour>
      <contour>
        <pt x="317" y="654" on="0"/>
        <pt x="240" y="691" on="0"/>
        <pt x="196" y="691" on="0"/>
        <pt x="135" y="664" on="0"/>
        <pt x="118" y="649" on="1"/>
        <pt x="113" y="664" on="1"/>
        <pt x="162" y="714" on="0"/>
        <pt x="228" y="740" on="1"/>
        <pt x="250" y="740" on="0"/>
        <pt x="327" y="705" on="0"/>
        <pt x="372" y="705" on="0"/>
        <pt x="435" y="726" on="0"/>
        <pt x="450" y="737" on="1"/>
        <pt x="458" y="726" on="1"/>
        <pt x="402" y="669" on="0"/>
        <pt x="339" y="654" on="1"/>
      </contour>
    </TTGlyph>
    <TTGlyph name="b" xMin="17" yMin="-9" xMax="372" yMax="851">
      <contour>
        <pt x="117" y="42" on="1"/>
        <pt x="192" y="42" on="0"/>
        <pt x="287" y="212" on="0"/>
        <pt x="287" y="331" on="1"/>
        <pt x="287" y="382" on="0"/>
        <pt x="272" y="420" on="1"/>
        <pt x="203" y="350" on="0"/>
        <pt x="78" y="156" on="0"/>
        <pt x="68" y="57" on="1"/>
        <pt x="68" y="42" on="0"/>
      </contour>
      <contour>
        <pt x="323" y="851" on="1"/>
        <pt x="352" y="851" on="0"/>
        <pt x="372" y="846" on="1"/>
        <pt x="331" y="792" on="1"/>
        <pt x="303" y="798" on="0"/>
        <pt x="245" y="798" on="0"/>
        <pt x="208" y="778" on="0"/>
        <pt x="183" y="739" on="0"/>
        <pt x="165" y="700" on="0"/>
        <pt x="153" y="639" on="0"/>
        <pt x="150" y="620" on="1"/>
        <pt x="144" y="590" on="0"/>
        <pt x="138" y="530" on="1"/>
        <pt x="133" y="498" on="0"/>
        <pt x="106" y="247" on="0"/>
        <pt x="103" y="229" on="1"/>
        <pt x="238" y="477" on="0"/>
        <pt x="324" y="517" on="1"/>
        <pt x="333" y="510" on="0"/>
        <pt x="347" y="458" on="0"/>
        <pt x="347" y="374" on="0"/>
        <pt x="327" y="256" on="0"/>
        <pt x="280" y="137" on="0"/>
        <pt x="209" y="47" on="0"/>
        <pt x="97" y="-9" on="0"/>
        <pt x="28" y="-9" on="1"/>
        <pt x="17" y="11" on="0"/>
        <pt x="17" y="51" on="1"/>
        <pt x="22" y="95" on="0"/>
        <pt x="90" y="606" on="1"/>
        <pt x="102" y="697" on="0"/>
        <pt x="242" y="851" on="0"/>
      </contour>
    </TTGlyph>
    <TTGlyph name="backslash" xMin="65" yMin="-83" xMax="391" yMax="838">
      <contour>
        <pt x="114" y="838" on="1"/>
        <pt x="251" y="342" on="0"/>
        <pt x="391" y="-29" on="1"/>
        <pt x="350" y="-83" on="1"/>
        <pt x="229" y="248" on="0"/>
        <pt x="65" y="788" on="1"/>
      </contour>
    </TTGlyph>
    <TTGlyph name="bar" xMin="115" yMin="-213" xMax="173" yMax="896">
      <contour>
        <pt x="173" y="896" on="1"/>
        <pt x="161" y="-169" on="1"/>
        <pt x="117" y="-213" on="1"/>
        <pt x="115" y="854" on="1"/>
      </contour>
    </TTGlyph>
    <TTGlyph name="braceleft" xMin="95" yMin="-116" xMax="387" yMax="819">
      <contour>
        <pt x="234" y="-116" on="1"/>
        <pt x="122" y="-99" on="0"/>
        <pt x="122" y="-4" on="1"/>
        <pt x="122" y="43" on="0"/>
        <pt x="174" y="233" on="0"/>
        <pt x="174" y="274" on="1"/>
        <pt x="174" y="280" on="0"/>
        <pt x="174" y="284" on="1"/>
        <pt x="167" y="347" on="0"/>
        <pt x="108" y="351" on="1"/>
        <pt x="95" y="352" on="1"/>
        <pt x="111" y="379" on="1"/>
        <pt x="151" y="379" on="0"/>
        <pt x="174" y="422" on="1"/>
        <pt x="189" y="451" on="0"/>
        <pt x="198" y="529" on="0"/>
        <pt x="203" y="620" on="0"/>
        <pt x="218" y="706" on="0"/>
        <pt x="250" y="776" on="0"/>
        <pt x="324" y="819" on="0"/>
        <pt x="380" y="819" on="1"/>
        <pt x="387" y="806" on="1"/>
        <pt x="335" y="799" on="0"/>
        <pt x="280" y="715" on="0"/>
        <pt x="265" y="599" on="0"/>
        <pt x="251" y="481" on="0"/>
        <pt x="226" y="432" on="1"/>
        <pt x="193" y="366" on="0"/>
        <pt x="122" y="366" on="1"/>
        <pt x="120" y="363" on="1"/>
        <pt x="141" y="363" on="0"/>
        <pt x="153" y="359" on="1"/>
        <pt x="226" y="333" on="0"/>
        <pt x="226" y="255" on="1"/>
        <pt x="226" y="209" on="0"/>
        <pt x="181" y="15" on="0"/>
        <pt x="181" y="-29" on="1"/>
        <pt x="181" y="-99" on="0"/>
        <pt x="244" y="-102" on="1"/>
      </contour>
    </TTGlyph>
    <TTGlyph name="braceright" xMin="37" yMin="-117" xMax="314" yMax="819">
      <contour>
        <pt x="213" y="707" on="1"/>
        <pt x="213" y="797" on="0"/>
        <pt x="146" y="806" on="1"/>
        <pt x="154" y="819" on="1"/>
        <pt x="264" y="819" on="0"/>
        <pt x="274" y="722" on="1"/>
        <pt x="274" y="720" on="0"/>
        <pt x="274" y="690" on="0"/>
        <pt x="244" y="514" on="0"/>
        <pt x="244" y="455" on="0"/>
        <pt x="245" y="445" on="1"/>
        <pt x="250" y="393" on="0"/>
        <pt x="281" y="382" on="1"/>
        <pt x="290" y="377" on="0"/>
        <pt x="314" y="376" on="1"/>
        <pt x="303" y="352" on="1"/>
        <pt x="260" y="351" on="0"/>
        <pt x="212" y="301" on="0"/>
        <pt x="199" y="223" on="0"/>
        <pt x="196" y="128" on="0"/>
        <pt x="189" y="30" on="0"/>
        <pt x="164" y="-53" on="0"/>
        <pt x="94" y="-111" on="0"/>
        <pt x="37" y="-117" on="1"/>
        <pt x="41" y="-102" on="1"/>
        <pt x="108" y="-98" on="0"/>
        <pt x="122" y="-8" on="1"/>
        <pt x="129" y="33" on="0"/>
        <pt x="134" y="131" on="0"/>
        <pt x="145" y="228" on="0"/>
        <pt x="171" y="309" on="0"/>
        <pt x="236" y="361" on="0"/>
        <pt x="288" y="363" on="1"/>
        <pt x="291" y="366" on="1"/>
        <pt x="284" y="366" on="1"/>
        <pt x="193" y="366" on="0"/>
        <pt x="193" y="480" on="1"/>
        <pt x="193" y="522" on="0"/>
        <pt x="213" y="668" on="0"/>
      </contour>
    </TTGlyph>
    <TTGlyph name="bracketleft" xMin="113" yMin="-88" xMax="442" yMax="820">
      <contour>
        <pt x="235" y="820" on="1"/>
        <pt x="442" y="820" on="1"/>
        <pt x="424" y="797" on="1"/>
        <pt x="296" y="797" on="1"/>
        <pt x="214" y="248" on="0"/>
        <pt x="176" y="-64" on="1"/>
        <pt x="323" y="-64" on="1"/>
        <pt x="304" y="-88" on="1"/>
        <pt x="113" y="-88" on="1"/>
        <pt x="156" y="284" on="0"/>
      </contour>
    </TTGlyph>
    <TTGlyph name="bracketright" xMin="-6" yMin="-88" xMax="327" yMax="820">
      <contour>
        <pt x="135" y="820" on="1"/>
        <pt x="327" y="820" on="1"/>
        <pt x="277" y="425" on="0"/>
        <pt x="201" y="-88" on="1"/>
        <pt x="-6" y="-88" on="1"/>
        <pt x="13" y="-64" on="1"/>
        <pt x="146" y="-64" on="1"/>
        <pt x="206" y="358" on="0"/>
        <pt x="261" y="797" on="1"/>
        <pt x="117" y="797" on="1"/>
      </contour>
    </TTGlyph>
    <TTGlyph name="breve" xMin="58" yMin="789" xMax="299" yMax="864">
      <contour>
        <pt x="165" y="789" on="1"/>
        <pt x="104" y="789" on="0"/>
        <pt x="58" y="820" on="1"/>
        <pt x="101" y="864" on="1"/>
        <pt x="150" y="836" on="0"/>
        <pt x="253" y="836" on="0"/>
        <pt x="292" y="863" on="1"/>
        <pt x="299" y="855" on="1"/>
        <pt x="255" y="789" on="0"/>
      </contour>
    </TTGlyph>
    <TTGlyph name="brokenbar" xMin="90" yMin="-163" xMax="148" yMax="856">
      <contour>
        <pt x="92" y="236" on="1"/>
        <pt x="138" y="236" on="1"/>
        <pt x="134" y="-119" on="1"/>
        <pt x="92" y="-163" on="1"/>
      </contour>
      <contour>
        <pt x="148" y="856" on="1"/>
        <pt x="140" y="472" on="1"/>
        <pt x="93" y="472" on="1"/>
        <pt x="90" y="814" on="1"/>
      </contour>
    </TTGlyph>
    <TTGlyph name="bullet" xMin="129" yMin="159" xMax="400" yMax="444">
      <contour>
        <pt x="333" y="443" on="0"/>
        <pt x="400" y="372" on="0"/>
        <pt x="400" y="318" on="1"/>
        <pt x="400" y="243" on="0"/>
        <pt x="305" y="159" on="0"/>
        <pt x="196" y="159" on="0"/>
        <pt x="129" y="229" on="0"/>
        <pt x="129" y="282" on="1"/>
        <pt x="129" y="353" on="0"/>
        <pt x="174" y="398" on="1"/>
        <pt x="221" y="443" on="0"/>
      </contour>
    </TTGlyph>
    <TTGlyph name="c" xMin="6" yMin="-10" xMax="387" yMax="514">
      <contour>
        <pt x="236" y="514" on="1"/>
        <pt x="285" y="514" on="0"/>
        <pt x="314" y="487" on="1"/>
        <pt x="270" y="435" on="1"/>
        <pt x="247" y="474" on="0"/>
        <pt x="210" y="474" on="1"/>
        <pt x="155" y="474" on="0"/>
        <pt x="74" y="302" on="0"/>
        <pt x="74" y="79" on="0"/>
        <pt x="140" y="43" on="1"/>
        <pt x="243" y="117" on="0"/>
        <pt x="377" y="311" on="1"/>
        <pt x="387" y="305" on="1"/>
        <pt x="312" y="193" on="0"/>
        <pt x="155" y="12" on="0"/>
        <pt x="102" y="-10" on="1"/>
        <pt x="75" y="-10" on="0"/>
        <pt x="45" y="22" on="1"/>
        <pt x="28" y="41" on="0"/>
        <pt x="6" y="125" on="0"/>
        <pt x="6" y="256" on="0"/>
        <pt x="60" y="386" on="0"/>
        <pt x="137" y="467" on="0"/>
        <pt x="212" y="514" on="0"/>
      </contour>
    </TTGlyph>
    <TTGlyph name="caron" xMin="54" yMin="635" xMax="348" yMax="765">
      <contour>
        <pt x="99" y="756" on="1"/>
        <pt x="162" y="690" on="0"/>
        <pt x="212" y="674" on="1"/>
        <pt x="258" y="697" on="0"/>
        <pt x="338" y="765" on="1"/>
        <pt x="348" y="756" on="1"/>
        <pt x="252" y="651" on="0"/>
        <pt x="184" y="635" on="1"/>
        <pt x="158" y="646" on="0"/>
        <pt x="83" y="702" on="0"/>
        <pt x="54" y="735" on="1"/>
      </contour>
    </TTGlyph>
    <TTGlyph name="ccedilla" xMin="-50" yMin="-224" xMax="384" yMax="514">
      <contour>
        <pt x="233" y="514" on="1"/>
        <pt x="282" y="514" on="0"/>
        <pt x="311" y="487" on="1"/>
        <pt x="267" y="435" on="1"/>
        <pt x="244" y="474" on="0"/>
        <pt x="207" y="474" on="1"/>
        <pt x="152" y="474" on="0"/>
        <pt x="71" y="302" on="0"/>
        <pt x="71" y="79" on="0"/>
        <pt x="137" y="43" on="1"/>
        <pt x="240" y="117" on="0"/>
        <pt x="374" y="311" on="1"/>
        <pt x="384" y="305" on="1"/>
        <pt x="313" y="198" on="0"/>
        <pt x="163" y="23" on="0"/>
        <pt x="109" y="-5" on="1"/>
        <pt x="65" y="-42" on="0"/>
        <pt x="57" y="-50" on="1"/>
        <pt x="87" y="-58" on="0"/>
        <pt x="147" y="-109" on="0"/>
        <pt x="147" y="-130" on="1"/>
        <pt x="147" y="-166" on="0"/>
        <pt x="72" y="-224" on="0"/>
        <pt x="-29" y="-224" on="0"/>
        <pt x="-50" y="-184" on="1"/>
        <pt x="-5" y="-145" on="1"/>
        <pt x="16" y="-184" on="0"/>
        <pt x="102" y="-184" on="0"/>
        <pt x="102" y="-169" on="1"/>
        <pt x="102" y="-143" on="0"/>
        <pt x="38" y="-90" on="0"/>
        <pt x="-8" y="-74" on="1"/>
        <pt x="75" y="-4" on="1"/>
        <pt x="3" y="29" on="0"/>
        <pt x="3" y="184" on="1"/>
        <pt x="3" y="256" on="0"/>
        <pt x="57" y="386" on="0"/>
        <pt x="134" y="467" on="0"/>
        <pt x="209" y="514" on="0"/>
      </contour>
    </TTGlyph>
    <TTGlyph name="cedilla" xMin="94" yMin="-224" xMax="291" yMax="21">
      <contour>
        <pt x="291" y="-130" on="1"/>
        <pt x="291" y="-166" on="0"/>
        <pt x="216" y="-224" on="0"/>
        <pt x="115" y="-224" on="0"/>
        <pt x="94" y="-184" on="1"/>
        <pt x="139" y="-145" on="1"/>
        <pt x="160" y="-184" on="0"/>
        <pt x="246" y="-184" on="0"/>
        <pt x="246" y="-169" on="1"/>
        <pt x="246" y="-143" on="0"/>
        <pt x="182" y="-90" on="0"/>
        <pt x="136" y="-74" on="1"/>
        <pt x="249" y="21" on="1"/>
        <pt x="266" y="6" on="1"/>
        <pt x="254" y="-5" on="0"/>
        <pt x="201" y="-50" on="1"/>
        <pt x="231" y="-58" on="0"/>
        <pt x="291" y="-109" on="0"/>
      </contour>
    </TTGlyph>
    <TTGlyph name="cent" xMin="15" yMin="-86" xMax="349" yMax="639">
      <contour>
        <pt x="241" y="510" on="1"/>
        <pt x="258" y="514" on="0"/>
        <pt x="278" y="514" on="1"/>
        <pt x="315" y="514" on="0"/>
        <pt x="349" y="499" on="1"/>
        <pt x="345" y="493" on="0"/>
        <pt x="313" y="455" on="0"/>
        <pt x="306" y="443" on="1"/>
        <pt x="270" y="462" on="0"/>
        <pt x="234" y="464" on="1"/>
        <pt x="174" y="77" on="1"/>
        <pt x="238" y="88" on="0"/>
        <pt x="300" y="114" on="1"/>
        <pt x="306" y="101" on="1"/>
        <pt x="244" y="66" on="0"/>
        <pt x="169" y="48" on="1"/>
        <pt x="148" y="-86" on="1"/>
        <pt x="110" y="-68" on="1"/>
        <pt x="128" y="45" on="1"/>
        <pt x="72" y="51" on="0"/>
        <pt x="15" y="135" on="0"/>
        <pt x="15" y="198" on="1"/>
        <pt x="15" y="287" on="0"/>
        <pt x="117" y="463" on="0"/>
        <pt x="199" y="497" on="1"/>
        <pt x="221" y="639" on="1"/>
        <pt x="260" y="627" on="1"/>
      </contour>
      <contour>
        <pt x="131" y="447" on="0"/>
        <pt x="72" y="340" on="0"/>
        <pt x="72" y="214" on="0"/>
        <pt x="107" y="114" on="0"/>
        <pt x="135" y="92" on="1"/>
        <pt x="193" y="460" on="1"/>
      </contour>
    </TTGlyph>
    <TTGlyph name="circumflex" xMin="46" yMin="650" xMax="306" yMax="765">
      <contour>
        <pt x="190" y="765" on="1"/>
        <pt x="213" y="756" on="0"/>
        <pt x="288" y="702" on="0"/>
        <pt x="306" y="683" on="1"/>
        <pt x="271" y="650" on="1"/>
        <pt x="207" y="712" on="0"/>
        <pt x="162" y="726" on="1"/>
        <pt x="116" y="703" on="0"/>
        <pt x="56" y="652" on="1"/>
        <pt x="46" y="661" on="1"/>
        <pt x="86" y="705" on="0"/>
        <pt x="151" y="756" on="0"/>
      </contour>
    </TTGlyph>
    <TTGlyph name="colon" xMin="60" yMin="-11" xMax="237" yMax="509">
      <contour>
        <pt x="60" y="65" on="1"/>
        <pt x="132" y="134" on="1"/>
        <pt x="163" y="110" on="0"/>
        <pt x="199" y="53" on="1"/>
        <pt x="129" y="-11" on="1"/>
        <pt x="128" y="-10" on="0"/>
        <pt x="77" y="50" on="0"/>
      </contour>
      <contour>
        <pt x="98" y="440" on="1"/>
        <pt x="170" y="509" on="1"/>
        <pt x="201" y="485" on="0"/>
        <pt x="237" y="428" on="1"/>
        <pt x="167" y="364" on="1"/>
        <pt x="166" y="365" on="0"/>
        <pt x="115" y="425" on="0"/>
      </contour>
    </TTGlyph>
    <TTGlyph name="comma" xMin="60" yMin="-115" xMax="187" yMax="133">
      <contour>
        <pt x="60" y="66" on="1"/>
        <pt x="112" y="131" on="0"/>
        <pt x="120" y="133" on="1"/>
        <pt x="141" y="116" on="0"/>
        <pt x="181" y="62" on="0"/>
        <pt x="187" y="50" on="1"/>
        <pt x="185" y="35" on="0"/>
        <pt x="133" y="-59" on="0"/>
        <pt x="89" y="-115" on="1"/>
        <pt x="74" y="-104" on="1"/>
        <pt x="127" y="-33" on="0"/>
        <pt x="127" y="-17" on="1"/>
        <pt x="121" y="-7" on="0"/>
        <pt x="66" y="50" on="0"/>
      </contour>
    </TTGlyph>
    <TTGlyph name="commaaccent" xMin="39" yMin="-5" xMax="160" yMax="240">
      <contour>
        <pt x="48" y="10" on="1"/>
        <pt x="86" y="59" on="0"/>
        <pt x="86" y="123" on="0"/>
        <pt x="39" y="177" on="1"/>
        <pt x="72" y="215" on="0"/>
        <pt x="109" y="240" on="1"/>
        <pt x="145" y="192" on="0"/>
        <pt x="160" y="162" on="1"/>
        <pt x="158" y="146" on="0"/>
        <pt x="107" y="48" on="0"/>
        <pt x="66" y="-5" on="1"/>
      </contour>
    </TTGlyph>
    <TTGlyph name="copyright" xMin="120" yMin="1" xMax="765" yMax="666">
      <contour>
        <pt x="479" y="666" on="1"/>
        <pt x="608" y="666" on="0"/>
        <pt x="765" y="492" on="0"/>
        <pt x="765" y="378" on="1"/>
        <pt x="765" y="209" on="0"/>
        <pt x="569" y="1" on="0"/>
        <pt x="401" y="1" on="1"/>
        <pt x="281" y="1" on="0"/>
        <pt x="120" y="179" on="0"/>
        <pt x="120" y="288" on="1"/>
        <pt x="120" y="455" on="0"/>
        <pt x="306" y="666" on="0"/>
      </contour>
      <contour>
        <pt x="618" y="561" on="1"/>
        <pt x="548" y="620" on="0"/>
        <pt x="337" y="620" on="0"/>
        <pt x="188" y="502" on="0"/>
        <pt x="173" y="418" on="1"/>
        <pt x="166" y="380" on="0"/>
        <pt x="166" y="338" on="1"/>
        <pt x="166" y="190" on="0"/>
        <pt x="264" y="106" on="1"/>
        <pt x="333" y="47" on="0"/>
        <pt x="428" y="47" on="1"/>
        <pt x="544" y="47" on="0"/>
        <pt x="695" y="165" on="0"/>
        <pt x="710" y="250" on="1"/>
        <pt x="717" y="287" on="0"/>
        <pt x="717" y="329" on="1"/>
        <pt x="717" y="478" on="0"/>
      </contour>
      <contour>
        <pt x="467" y="527" on="1"/>
        <pt x="503" y="527" on="0"/>
        <pt x="571" y="505" on="0"/>
        <pt x="581" y="491" on="1"/>
        <pt x="581" y="428" on="1"/>
        <pt x="565" y="428" on="1"/>
        <pt x="562" y="454" on="0"/>
        <pt x="514" y="499" on="0"/>
        <pt x="403" y="499" on="0"/>
        <pt x="331" y="410" on="0"/>
        <pt x="331" y="271" on="0"/>
        <pt x="404" y="170" on="0"/>
        <pt x="538" y="170" on="0"/>
        <pt x="580" y="237" on="1"/>
        <pt x="595" y="237" on="1"/>
        <pt x="581" y="173" on="1"/>
        <pt x="571" y="162" on="0"/>
        <pt x="493" y="142" on="0"/>
        <pt x="462" y="142" on="1"/>
        <pt x="374" y="142" on="0"/>
        <pt x="261" y="241" on="0"/>
        <pt x="261" y="342" on="1"/>
        <pt x="261" y="410" on="0"/>
        <pt x="370" y="527" on="0"/>
      </contour>
    </TTGlyph>
    <TTGlyph name="currency" xMin="185" yMin="49" xMax="674" yMax="535">
      <contour>
        <pt x="674" y="495" on="1"/>
        <pt x="599" y="421" on="1"/>
        <pt x="644" y="362" on="0"/>
        <pt x="644" y="292" on="1"/>
        <pt x="644" y="246" on="0"/>
        <pt x="614" y="185" on="1"/>
        <pt x="603" y="164" on="0"/>
        <pt x="599" y="162" on="1"/>
        <pt x="641" y="123" on="0"/>
        <pt x="674" y="89" on="1"/>
        <pt x="648" y="63" on="0"/>
        <pt x="635" y="49" on="1"/>
        <pt x="560" y="124" on="1"/>
        <pt x="506" y="78" on="0"/>
        <pt x="353" y="78" on="0"/>
        <pt x="299" y="124" on="1"/>
        <pt x="224" y="49" on="1"/>
        <pt x="211" y="63" on="0"/>
        <pt x="185" y="89" on="1"/>
        <pt x="235" y="139" on="0"/>
        <pt x="260" y="162" on="1"/>
        <pt x="215" y="224" on="0"/>
        <pt x="215" y="368" on="0"/>
        <pt x="260" y="421" on="1"/>
        <pt x="185" y="495" on="1"/>
        <pt x="203" y="510" on="0"/>
        <pt x="224" y="535" on="1"/>
        <pt x="299" y="460" on="1"/>
        <pt x="359" y="505" on="0"/>
        <pt x="506" y="505" on="0"/>
        <pt x="560" y="460" on="1"/>
        <pt x="578" y="479" on="0"/>
        <pt x="627" y="527" on="0"/>
        <pt x="635" y="535" on="1"/>
      </contour>
      <contour>
        <pt x="495" y="134" on="0"/>
        <pt x="588" y="228" on="0"/>
        <pt x="588" y="360" on="0"/>
        <pt x="492" y="449" on="0"/>
        <pt x="363" y="449" on="0"/>
        <pt x="271" y="356" on="0"/>
        <pt x="271" y="228" on="0"/>
        <pt x="364" y="134" on="0"/>
      </contour>
    </TTGlyph>
    <TTGlyph name="d" xMin="3" yMin="-10" xMax="586" yMax="851">
      <contour>
        <pt x="537" y="851" on="1"/>
        <pt x="566" y="851" on="0"/>
        <pt x="586" y="846" on="1"/>
        <pt x="545" y="792" on="1"/>
        <pt x="517" y="798" on="0"/>
        <pt x="455" y="798" on="0"/>
        <pt x="413" y="768" on="0"/>
        <pt x="389" y="728" on="0"/>
        <pt x="370" y="660" on="0"/>
        <pt x="363" y="615" on="0"/>
        <pt x="354" y="540" on="0"/>
        <pt x="345" y="488" on="0"/>
        <pt x="318" y="263" on="0"/>
        <pt x="290" y="105" on="0"/>
        <pt x="269" y="54" on="1"/>
        <pt x="272" y="52" on="1"/>
        <pt x="356" y="113" on="0"/>
        <pt x="482" y="286" on="1"/>
        <pt x="492" y="279" on="1"/>
        <pt x="420" y="174" on="0"/>
        <pt x="274" y="11" on="0"/>
        <pt x="225" y="-10" on="1"/>
        <pt x="223" y="14" on="0"/>
        <pt x="223" y="75" on="0"/>
        <pt x="252" y="235" on="0"/>
        <pt x="257" y="279" on="0"/>
        <pt x="262" y="288" on="1"/>
        <pt x="259" y="290" on="1"/>
        <pt x="255" y="284" on="0"/>
        <pt x="179" y="160" on="0"/>
        <pt x="137" y="98" on="0"/>
        <pt x="58" y="11" on="0"/>
        <pt x="23" y="-8" on="1"/>
        <pt x="3" y="35" on="0"/>
        <pt x="3" y="180" on="0"/>
        <pt x="27" y="278" on="1"/>
        <pt x="61" y="390" on="0"/>
        <pt x="165" y="501" on="0"/>
        <pt x="251" y="501" on="1"/>
        <pt x="272" y="501" on="0"/>
        <pt x="285" y="496" on="1"/>
        <pt x="304" y="606" on="1"/>
        <pt x="320" y="698" on="0"/>
        <pt x="457" y="851" on="0"/>
      </contour>
      <contour>
        <pt x="214" y="450" on="1"/>
        <pt x="146" y="450" on="0"/>
        <pt x="93" y="379" on="0"/>
        <pt x="70" y="171" on="0"/>
        <pt x="70" y="92" on="0"/>
        <pt x="80" y="62" on="1"/>
        <pt x="214" y="204" on="0"/>
        <pt x="278" y="440" on="1"/>
        <pt x="256" y="450" on="0"/>
      </contour>
    </TTGlyph>
</ttFont>
